<svg width="330" height="268" viewBox="0 0 330 268" fill="none" xmlns="http://www.w3.org/2000/svg">
<path d="M15.0988 25V15.2H17.2268L20.3488 21.416L23.4288 15.2H25.5568V25H23.7648V18.238L21.0348 23.6H19.6208L16.8908 18.238V25H15.0988ZM30.4682 25.168C29.7962 25.168 29.1895 25.014 28.6482 24.706C28.1162 24.398 27.6915 23.9733 27.3742 23.432C27.0662 22.8813 26.9122 22.2467 26.9122 21.528C26.9122 20.8093 27.0709 20.1793 27.3882 19.638C27.7055 19.0873 28.1302 18.658 28.6622 18.35C29.2035 18.042 29.8102 17.888 30.4822 17.888C31.1449 17.888 31.7422 18.042 32.2742 18.35C32.8155 18.658 33.2402 19.0873 33.5482 19.638C33.8655 20.1793 34.0242 20.8093 34.0242 21.528C34.0242 22.2467 33.8655 22.8813 33.5482 23.432C33.2402 23.9733 32.8155 24.398 32.2742 24.706C31.7329 25.014 31.1309 25.168 30.4682 25.168ZM30.4682 23.614C30.9349 23.614 31.3409 23.4413 31.6862 23.096C32.0315 22.7413 32.2042 22.2187 32.2042 21.528C32.2042 20.8373 32.0315 20.3193 31.6862 19.974C31.3409 19.6193 30.9395 19.442 30.4822 19.442C30.0062 19.442 29.5955 19.6193 29.2502 19.974C28.9142 20.3193 28.7462 20.8373 28.7462 21.528C28.7462 22.2187 28.9142 22.7413 29.2502 23.096C29.5955 23.4413 30.0015 23.614 30.4682 23.614Z" fill="#2B3674"/>
<path d="M66.8315 25V16.642H63.9755V15.2H71.4935V16.642H68.6235V25H66.8315ZM74.4057 25.168C73.5377 25.168 72.8657 24.8973 72.3897 24.356C71.9231 23.8147 71.6897 23.0213 71.6897 21.976V18.056H73.4677V21.808C73.4677 22.4053 73.5891 22.8627 73.8317 23.18C74.0744 23.4973 74.4571 23.656 74.9797 23.656C75.4744 23.656 75.8804 23.4787 76.1977 23.124C76.5244 22.7693 76.6877 22.2747 76.6877 21.64V18.056H78.4797V25H76.8977L76.7577 23.824C76.5431 24.2347 76.2304 24.5613 75.8197 24.804C75.4184 25.0467 74.9471 25.168 74.4057 25.168Z" fill="#2B3674"/>
<path d="M110.772 25L108.182 15.2H110.1L111.864 22.998L113.936 15.2H115.91L117.926 22.998L119.69 15.2H121.622L118.962 25H116.834L114.888 17.734L112.886 25H110.772ZM125.235 25.168C124.535 25.168 123.914 25.0187 123.373 24.72C122.831 24.4213 122.407 24.0013 122.099 23.46C121.791 22.9187 121.637 22.2933 121.637 21.584C121.637 20.8653 121.786 20.226 122.085 19.666C122.393 19.106 122.813 18.672 123.345 18.364C123.886 18.0467 124.521 17.888 125.249 17.888C125.93 17.888 126.532 18.0373 127.055 18.336C127.577 18.6347 127.983 19.0453 128.273 19.568C128.571 20.0813 128.721 20.6553 128.721 21.29C128.721 21.3927 128.716 21.5 128.707 21.612C128.707 21.724 128.702 21.8407 128.693 21.962H123.415C123.452 22.5033 123.639 22.928 123.975 23.236C124.32 23.544 124.735 23.698 125.221 23.698C125.585 23.698 125.888 23.6187 126.131 23.46C126.383 23.292 126.569 23.0773 126.691 22.816H128.511C128.38 23.2547 128.161 23.656 127.853 24.02C127.554 24.3747 127.181 24.6547 126.733 24.86C126.294 25.0653 125.795 25.168 125.235 25.168ZM125.249 19.344C124.81 19.344 124.423 19.47 124.087 19.722C123.751 19.9647 123.536 20.338 123.443 20.842H126.901C126.873 20.3847 126.705 20.0207 126.397 19.75C126.089 19.4793 125.706 19.344 125.249 19.344Z" fill="#2B3674"/>
<path d="M160.626 25V16.642H157.77V15.2H165.288V16.642H162.418V25H160.626ZM166.294 25V14.92H168.086V19.12C168.319 18.7373 168.632 18.4387 169.024 18.224C169.425 18 169.883 17.888 170.396 17.888C171.255 17.888 171.917 18.1587 172.384 18.7C172.86 19.2413 173.098 20.0347 173.098 21.08V25H171.32V21.248C171.32 20.6507 171.199 20.1933 170.956 19.876C170.723 19.5587 170.349 19.4 169.836 19.4C169.332 19.4 168.912 19.5773 168.576 19.932C168.249 20.2867 168.086 20.7813 168.086 21.416V25H166.294Z" fill="#2B3674"/>
<path d="M205.454 25V15.2H211.782V16.642H207.246V19.386H210.914V20.8H207.246V25H205.454ZM212.843 25V18.056H214.439L214.607 19.358C214.859 18.91 215.199 18.5553 215.629 18.294C216.067 18.0233 216.581 17.888 217.169 17.888V19.778H216.665C216.273 19.778 215.923 19.8387 215.615 19.96C215.307 20.0813 215.064 20.2913 214.887 20.59C214.719 20.8887 214.635 21.304 214.635 21.836V25H212.843ZM219.079 16.978C218.753 16.978 218.482 16.88 218.267 16.684C218.062 16.488 217.959 16.2407 217.959 15.942C217.959 15.6433 218.062 15.4007 218.267 15.214C218.482 15.018 218.753 14.92 219.079 14.92C219.406 14.92 219.672 15.018 219.877 15.214C220.092 15.4007 220.199 15.6433 220.199 15.942C220.199 16.2407 220.092 16.488 219.877 16.684C219.672 16.88 219.406 16.978 219.079 16.978ZM218.183 25V18.056H219.975V25H218.183Z" fill="#2B3674"/>
<path d="M256.012 25.168C255.294 25.168 254.659 25.0467 254.108 24.804C253.558 24.552 253.124 24.1973 252.806 23.74C252.489 23.2733 252.326 22.7087 252.316 22.046H254.206C254.225 22.5033 254.388 22.8907 254.696 23.208C255.014 23.516 255.448 23.67 255.998 23.67C256.474 23.67 256.852 23.558 257.132 23.334C257.412 23.1007 257.552 22.7927 257.552 22.41C257.552 22.0087 257.426 21.696 257.174 21.472C256.932 21.248 256.605 21.066 256.194 20.926C255.784 20.786 255.345 20.6367 254.878 20.478C254.122 20.2167 253.544 19.8807 253.142 19.47C252.75 19.0593 252.554 18.5133 252.554 17.832C252.545 17.2533 252.68 16.7587 252.96 16.348C253.25 15.928 253.642 15.606 254.136 15.382C254.631 15.1487 255.2 15.032 255.844 15.032C256.498 15.032 257.072 15.1487 257.566 15.382C258.07 15.6153 258.462 15.942 258.742 16.362C259.032 16.782 259.186 17.2813 259.204 17.86H257.286C257.277 17.5147 257.142 17.2113 256.88 16.95C256.628 16.6793 256.274 16.544 255.816 16.544C255.424 16.5347 255.093 16.6327 254.822 16.838C254.561 17.034 254.43 17.3233 254.43 17.706C254.43 18.0327 254.533 18.294 254.738 18.49C254.944 18.6767 255.224 18.8353 255.578 18.966C255.933 19.0967 256.339 19.2367 256.796 19.386C257.282 19.554 257.725 19.75 258.126 19.974C258.528 20.198 258.85 20.4967 259.092 20.87C259.335 21.234 259.456 21.7053 259.456 22.284C259.456 22.7973 259.326 23.2733 259.064 23.712C258.803 24.1507 258.416 24.5053 257.902 24.776C257.389 25.0373 256.759 25.168 256.012 25.168ZM263.092 25.168C262.494 25.168 262.004 25.0747 261.622 24.888C261.239 24.692 260.954 24.4353 260.768 24.118C260.581 23.8007 260.488 23.4507 260.488 23.068C260.488 22.424 260.74 21.9013 261.244 21.5C261.748 21.0987 262.504 20.898 263.512 20.898H265.276V20.73C265.276 20.254 265.14 19.904 264.87 19.68C264.599 19.456 264.263 19.344 263.862 19.344C263.498 19.344 263.18 19.4327 262.91 19.61C262.639 19.778 262.471 20.03 262.406 20.366H260.656C260.702 19.862 260.87 19.4233 261.16 19.05C261.458 18.6767 261.841 18.392 262.308 18.196C262.774 17.9907 263.297 17.888 263.876 17.888C264.865 17.888 265.644 18.1353 266.214 18.63C266.783 19.1247 267.068 19.8247 267.068 20.73V25H265.542L265.374 23.88C265.168 24.2533 264.879 24.5613 264.506 24.804C264.142 25.0467 263.67 25.168 263.092 25.168ZM263.498 23.768C264.011 23.768 264.408 23.6 264.688 23.264C264.977 22.928 265.159 22.5127 265.234 22.018H263.708C263.232 22.018 262.891 22.1067 262.686 22.284C262.48 22.452 262.378 22.662 262.378 22.914C262.378 23.1847 262.48 23.3947 262.686 23.544C262.891 23.6933 263.162 23.768 263.498 23.768Z" fill="#2B3674"/>
<path d="M302.865 25.168C302.147 25.168 301.512 25.0467 300.961 24.804C300.411 24.552 299.977 24.1973 299.659 23.74C299.342 23.2733 299.179 22.7087 299.169 22.046H301.059C301.078 22.5033 301.241 22.8907 301.549 23.208C301.867 23.516 302.301 23.67 302.851 23.67C303.327 23.67 303.705 23.558 303.985 23.334C304.265 23.1007 304.405 22.7927 304.405 22.41C304.405 22.0087 304.279 21.696 304.027 21.472C303.785 21.248 303.458 21.066 303.047 20.926C302.637 20.786 302.198 20.6367 301.731 20.478C300.975 20.2167 300.397 19.8807 299.995 19.47C299.603 19.0593 299.407 18.5133 299.407 17.832C299.398 17.2533 299.533 16.7587 299.813 16.348C300.103 15.928 300.495 15.606 300.989 15.382C301.484 15.1487 302.053 15.032 302.697 15.032C303.351 15.032 303.925 15.1487 304.419 15.382C304.923 15.6153 305.315 15.942 305.595 16.362C305.885 16.782 306.039 17.2813 306.057 17.86H304.139C304.13 17.5147 303.995 17.2113 303.733 16.95C303.481 16.6793 303.127 16.544 302.669 16.544C302.277 16.5347 301.946 16.6327 301.675 16.838C301.414 17.034 301.283 17.3233 301.283 17.706C301.283 18.0327 301.386 18.294 301.591 18.49C301.797 18.6767 302.077 18.8353 302.431 18.966C302.786 19.0967 303.192 19.2367 303.649 19.386C304.135 19.554 304.578 19.75 304.979 19.974C305.381 20.198 305.703 20.4967 305.945 20.87C306.188 21.234 306.309 21.7053 306.309 22.284C306.309 22.7973 306.179 23.2733 305.917 23.712C305.656 24.1507 305.269 24.5053 304.755 24.776C304.242 25.0373 303.612 25.168 302.865 25.168ZM310.155 25.168C309.287 25.168 308.615 24.8973 308.139 24.356C307.672 23.8147 307.439 23.0213 307.439 21.976V18.056H309.217V21.808C309.217 22.4053 309.338 22.8627 309.581 23.18C309.823 23.4973 310.206 23.656 310.729 23.656C311.223 23.656 311.629 23.4787 311.947 23.124C312.273 22.7693 312.437 22.2747 312.437 21.64V18.056H314.229V25H312.647L312.507 23.824C312.292 24.2347 311.979 24.5613 311.569 24.804C311.167 25.0467 310.696 25.168 310.155 25.168Z" fill="#2B3674"/>
<path d="M18.5579 62V61.088C19.1019 60.656 19.6219 60.22 20.1179 59.78C20.6139 59.34 21.0539 58.908 21.4379 58.484C21.8299 58.052 22.1379 57.632 22.3619 57.224C22.5859 56.808 22.6979 56.408 22.6979 56.024C22.6979 55.768 22.6539 55.528 22.5659 55.304C22.4779 55.072 22.3339 54.888 22.1339 54.752C21.9339 54.608 21.6659 54.536 21.3299 54.536C20.8259 54.536 20.4459 54.696 20.1899 55.016C19.9419 55.336 19.8219 55.72 19.8299 56.168H18.5939C18.6019 55.576 18.7259 55.08 18.9659 54.68C19.2139 54.28 19.5419 53.976 19.9499 53.768C20.3659 53.56 20.8339 53.456 21.3539 53.456C22.1459 53.456 22.7779 53.68 23.2499 54.128C23.7299 54.568 23.9699 55.184 23.9699 55.976C23.9699 56.448 23.8539 56.916 23.6219 57.38C23.3979 57.844 23.1019 58.292 22.7339 58.724C22.3739 59.148 21.9859 59.548 21.5699 59.924C21.1539 60.3 20.7579 60.64 20.3819 60.944H24.2219V62H18.5579ZM28.0793 62.144C27.5273 62.144 27.0553 62.036 26.6633 61.82C26.2713 61.604 25.9633 61.316 25.7393 60.956C25.5233 60.596 25.3913 60.204 25.3433 59.78H26.5313C26.6033 60.196 26.7753 60.516 27.0473 60.74C27.3193 60.964 27.6673 61.076 28.0913 61.076C28.6753 61.076 29.1553 60.804 29.5313 60.26C29.9153 59.708 30.1193 58.864 30.1433 57.728C29.9513 58.08 29.6513 58.38 29.2433 58.628C28.8433 58.876 28.3793 59 27.8513 59C27.3793 59 26.9353 58.888 26.5193 58.664C26.1033 58.44 25.7673 58.128 25.5113 57.728C25.2553 57.32 25.1273 56.84 25.1273 56.288C25.1273 55.8 25.2473 55.34 25.4873 54.908C25.7273 54.476 26.0633 54.128 26.4953 53.864C26.9353 53.592 27.4553 53.456 28.0553 53.456C28.6713 53.456 29.1913 53.572 29.6153 53.804C30.0393 54.036 30.3793 54.344 30.6353 54.728C30.8913 55.112 31.0753 55.544 31.1873 56.024C31.3073 56.504 31.3673 56.996 31.3673 57.5C31.3673 58.428 31.2353 59.24 30.9713 59.936C30.7153 60.632 30.3433 61.176 29.8553 61.568C29.3673 61.952 28.7753 62.144 28.0793 62.144ZM28.1393 57.908C28.4753 57.908 28.7753 57.832 29.0393 57.68C29.3033 57.528 29.5113 57.328 29.6633 57.08C29.8233 56.824 29.9033 56.544 29.9033 56.24C29.9033 55.912 29.8233 55.624 29.6633 55.376C29.5113 55.12 29.2993 54.92 29.0273 54.776C28.7633 54.632 28.4633 54.56 28.1273 54.56C27.7913 54.56 27.4913 54.632 27.2273 54.776C26.9633 54.92 26.7513 55.12 26.5913 55.376C26.4393 55.624 26.3633 55.908 26.3633 56.228C26.3633 56.74 26.5313 57.148 26.8673 57.452C27.2033 57.756 27.6273 57.908 28.1393 57.908Z" fill="#A3AED0"/>
<path d="M67.3997 62.144C66.8557 62.144 66.3597 62.048 65.9117 61.856C65.4717 61.656 65.1197 61.356 64.8557 60.956C64.5917 60.556 64.4517 60.056 64.4357 59.456H65.6957C65.7117 59.904 65.8637 60.284 66.1517 60.596C66.4477 60.9 66.8637 61.052 67.3997 61.052C67.9117 61.052 68.3037 60.912 68.5757 60.632C68.8477 60.344 68.9837 59.988 68.9837 59.564C68.9837 59.052 68.7997 58.672 68.4317 58.424C68.0717 58.176 67.6277 58.052 67.0997 58.052H66.4757V56.996H67.1117C67.5837 56.996 67.9637 56.884 68.2517 56.66C68.5477 56.436 68.6957 56.12 68.6957 55.712C68.6957 55.368 68.5797 55.088 68.3477 54.872C68.1237 54.656 67.8037 54.548 67.3877 54.548C66.9557 54.548 66.6157 54.676 66.3677 54.932C66.1197 55.18 65.9837 55.492 65.9597 55.868H64.6997C64.7157 55.38 64.8357 54.956 65.0597 54.596C65.2917 54.236 65.6077 53.956 66.0077 53.756C66.4077 53.556 66.8677 53.456 67.3877 53.456C67.9477 53.456 68.4157 53.556 68.7917 53.756C69.1757 53.948 69.4637 54.212 69.6557 54.548C69.8557 54.876 69.9557 55.236 69.9557 55.628C69.9557 56.076 69.8317 56.468 69.5837 56.804C69.3357 57.14 69.0037 57.364 68.5877 57.476C69.0677 57.58 69.4637 57.816 69.7757 58.184C70.0877 58.544 70.2437 59.012 70.2437 59.588C70.2437 60.052 70.1357 60.48 69.9197 60.872C69.7037 61.256 69.3837 61.564 68.9597 61.796C68.5357 62.028 68.0157 62.144 67.3997 62.144ZM74.9333 62.144C74.1733 62.144 73.5173 61.964 72.9653 61.604C72.4213 61.236 72.0013 60.728 71.7053 60.08C71.4173 59.424 71.2733 58.664 71.2733 57.8C71.2733 56.936 71.4173 56.18 71.7053 55.532C72.0013 54.876 72.4213 54.368 72.9653 54.008C73.5173 53.64 74.1733 53.456 74.9333 53.456C75.6933 53.456 76.3453 53.64 76.8893 54.008C77.4333 54.368 77.8493 54.876 78.1373 55.532C78.4333 56.18 78.5813 56.936 78.5813 57.8C78.5813 58.664 78.4333 59.424 78.1373 60.08C77.8493 60.728 77.4333 61.236 76.8893 61.604C76.3453 61.964 75.6933 62.144 74.9333 62.144ZM74.9333 61.004C75.3893 61.004 75.7933 60.876 76.1453 60.62C76.5053 60.364 76.7853 59.996 76.9853 59.516C77.1853 59.036 77.2853 58.464 77.2853 57.8C77.2853 57.136 77.1853 56.564 76.9853 56.084C76.7853 55.604 76.5053 55.236 76.1453 54.98C75.7933 54.724 75.3893 54.596 74.9333 54.596C74.4693 54.596 74.0613 54.724 73.7093 54.98C73.3573 55.236 73.0813 55.604 72.8813 56.084C72.6813 56.564 72.5813 57.136 72.5813 57.8C72.5813 58.464 72.6813 59.036 72.8813 59.516C73.0813 59.996 73.3573 60.364 73.7093 60.62C74.0613 60.876 74.4693 61.004 74.9333 61.004Z" fill="#A3AED0"/>
<path d="M116.815 62.144C116.271 62.144 115.775 62.048 115.327 61.856C114.887 61.656 114.535 61.356 114.271 60.956C114.007 60.556 113.867 60.056 113.851 59.456H115.111C115.127 59.904 115.279 60.284 115.567 60.596C115.863 60.9 116.279 61.052 116.815 61.052C117.327 61.052 117.719 60.912 117.991 60.632C118.263 60.344 118.399 59.988 118.399 59.564C118.399 59.052 118.215 58.672 117.847 58.424C117.487 58.176 117.043 58.052 116.515 58.052H115.891V56.996H116.527C116.999 56.996 117.379 56.884 117.667 56.66C117.963 56.436 118.111 56.12 118.111 55.712C118.111 55.368 117.995 55.088 117.763 54.872C117.539 54.656 117.219 54.548 116.803 54.548C116.371 54.548 116.031 54.676 115.783 54.932C115.535 55.18 115.399 55.492 115.375 55.868H114.115C114.131 55.38 114.251 54.956 114.475 54.596C114.707 54.236 115.023 53.956 115.423 53.756C115.823 53.556 116.283 53.456 116.803 53.456C117.363 53.456 117.831 53.556 118.207 53.756C118.591 53.948 118.879 54.212 119.071 54.548C119.271 54.876 119.371 55.236 119.371 55.628C119.371 56.076 119.247 56.468 118.999 56.804C118.751 57.14 118.419 57.364 118.003 57.476C118.483 57.58 118.879 57.816 119.191 58.184C119.503 58.544 119.659 59.012 119.659 59.588C119.659 60.052 119.551 60.48 119.335 60.872C119.119 61.256 118.799 61.564 118.375 61.796C117.951 62.028 117.431 62.144 116.815 62.144ZM121.7 62V55.04L120.344 55.352V54.416L122.204 53.6H123.02V62H121.7Z" fill="#A3AED0"/>
<circle cx="165.218" cy="58" r="20" fill="#F4F7FE"/>
<path d="M165.418 62V55.04L164.062 55.352V54.416L165.922 53.6H166.738V62H165.418Z" fill="#2B3674"/>
<path d="M209.969 62V61.088C210.513 60.656 211.033 60.22 211.529 59.78C212.025 59.34 212.465 58.908 212.849 58.484C213.241 58.052 213.549 57.632 213.773 57.224C213.997 56.808 214.109 56.408 214.109 56.024C214.109 55.768 214.065 55.528 213.977 55.304C213.889 55.072 213.745 54.888 213.545 54.752C213.345 54.608 213.077 54.536 212.741 54.536C212.237 54.536 211.857 54.696 211.601 55.016C211.353 55.336 211.233 55.72 211.241 56.168H210.005C210.013 55.576 210.137 55.08 210.377 54.68C210.625 54.28 210.953 53.976 211.361 53.768C211.777 53.56 212.245 53.456 212.765 53.456C213.557 53.456 214.189 53.68 214.661 54.128C215.141 54.568 215.381 55.184 215.381 55.976C215.381 56.448 215.265 56.916 215.033 57.38C214.809 57.844 214.513 58.292 214.145 58.724C213.785 59.148 213.397 59.548 212.981 59.924C212.565 60.3 212.169 60.64 211.793 60.944H215.633V62H209.969Z" fill="#2B3674"/>
<path d="M259.78 62.144C259.236 62.144 258.74 62.048 258.292 61.856C257.852 61.656 257.5 61.356 257.236 60.956C256.972 60.556 256.832 60.056 256.816 59.456H258.076C258.092 59.904 258.244 60.284 258.532 60.596C258.828 60.9 259.244 61.052 259.78 61.052C260.292 61.052 260.684 60.912 260.956 60.632C261.228 60.344 261.364 59.988 261.364 59.564C261.364 59.052 261.18 58.672 260.812 58.424C260.452 58.176 260.008 58.052 259.48 58.052H258.856V56.996H259.492C259.964 56.996 260.344 56.884 260.632 56.66C260.928 56.436 261.076 56.12 261.076 55.712C261.076 55.368 260.96 55.088 260.728 54.872C260.504 54.656 260.184 54.548 259.768 54.548C259.336 54.548 258.996 54.676 258.748 54.932C258.5 55.18 258.364 55.492 258.34 55.868H257.08C257.096 55.38 257.216 54.956 257.44 54.596C257.672 54.236 257.988 53.956 258.388 53.756C258.788 53.556 259.248 53.456 259.768 53.456C260.328 53.456 260.796 53.556 261.172 53.756C261.556 53.948 261.844 54.212 262.036 54.548C262.236 54.876 262.336 55.236 262.336 55.628C262.336 56.076 262.212 56.468 261.964 56.804C261.716 57.14 261.384 57.364 260.968 57.476C261.448 57.58 261.844 57.816 262.156 58.184C262.468 58.544 262.624 59.012 262.624 59.588C262.624 60.052 262.516 60.48 262.3 60.872C262.084 61.256 261.764 61.564 261.34 61.796C260.916 62.028 260.396 62.144 259.78 62.144Z" fill="#2B3674"/>
<path d="M307.805 62V60.32H303.593V59.312L307.601 53.6H309.065V59.216H310.241V60.32H309.065V62H307.805ZM304.973 59.216H307.877V55.004L304.973 59.216Z" fill="#2B3674"/>
<path d="M24.5144 100.144C23.9224 100.144 23.4104 100.04 22.9784 99.832C22.5464 99.616 22.2024 99.324 21.9464 98.956C21.6984 98.58 21.5464 98.156 21.4904 97.684H22.7384C22.8184 98.084 23.0184 98.416 23.3384 98.68C23.6584 98.936 24.0544 99.064 24.5264 99.064C24.8784 99.064 25.1824 98.98 25.4384 98.812C25.6944 98.636 25.8944 98.404 26.0384 98.116C26.1824 97.828 26.2544 97.504 26.2544 97.144C26.2544 96.576 26.0944 96.124 25.7744 95.788C25.4544 95.444 25.0504 95.272 24.5624 95.272C24.1464 95.272 23.7904 95.372 23.4944 95.572C23.1984 95.764 22.9824 96.008 22.8464 96.304H21.6344L22.3544 91.6H26.8904V92.716H23.3144L22.8824 94.96C23.0664 94.752 23.3184 94.58 23.6384 94.444C23.9664 94.3 24.3344 94.228 24.7424 94.228C25.3104 94.228 25.7984 94.36 26.2064 94.624C26.6144 94.88 26.9264 95.228 27.1424 95.668C27.3664 96.108 27.4784 96.596 27.4784 97.132C27.4784 97.692 27.3584 98.2 27.1184 98.656C26.8784 99.112 26.5344 99.476 26.0864 99.748C25.6464 100.012 25.1224 100.144 24.5144 100.144Z" fill="#2B3674"/>
<path d="M71.6484 100.144C71.0324 100.144 70.5124 100.028 70.0884 99.796C69.6644 99.564 69.3204 99.256 69.0564 98.872C68.8004 98.488 68.6164 98.056 68.5044 97.576C68.3924 97.096 68.3364 96.604 68.3364 96.1C68.3364 95.172 68.4644 94.36 68.7204 93.664C68.9844 92.968 69.3604 92.428 69.8484 92.044C70.3364 91.652 70.9284 91.456 71.6244 91.456C72.1764 91.456 72.6484 91.564 73.0404 91.78C73.4324 91.996 73.7364 92.284 73.9524 92.644C74.1764 93.004 74.3124 93.396 74.3604 93.82H73.1724C73.1004 93.404 72.9284 93.084 72.6564 92.86C72.3844 92.636 72.0364 92.524 71.6124 92.524C71.0284 92.524 70.5444 92.8 70.1604 93.352C69.7844 93.896 69.5844 94.736 69.5604 95.872C69.7524 95.52 70.0484 95.22 70.4484 94.972C70.8564 94.724 71.3244 94.6 71.8524 94.6C72.3244 94.6 72.7644 94.712 73.1724 94.936C73.5884 95.16 73.9244 95.476 74.1804 95.884C74.4444 96.284 74.5764 96.76 74.5764 97.312C74.5764 97.8 74.4564 98.26 74.2164 98.692C73.9764 99.124 73.6364 99.476 73.1964 99.748C72.7644 100.012 72.2484 100.144 71.6484 100.144ZM71.5764 99.04C71.9124 99.04 72.2124 98.968 72.4764 98.824C72.7404 98.68 72.9484 98.484 73.1004 98.236C73.2524 97.98 73.3284 97.692 73.3284 97.372C73.3284 96.86 73.1604 96.452 72.8244 96.148C72.4964 95.844 72.0764 95.692 71.5644 95.692C71.2284 95.692 70.9244 95.768 70.6524 95.92C70.3884 96.072 70.1804 96.276 70.0284 96.532C69.8764 96.78 69.8004 97.056 69.8004 97.36C69.8004 97.688 69.8764 97.98 70.0284 98.236C70.1884 98.484 70.4004 98.68 70.6644 98.824C70.9364 98.968 71.2404 99.04 71.5764 99.04Z" fill="#2B3674"/>
<path d="M116.81 100L120.062 92.692H115.694V91.6H121.37V92.524L118.142 100H116.81Z" fill="#2B3674"/>
<path d="M165.646 100.144C165.086 100.144 164.578 100.044 164.122 99.844C163.674 99.636 163.314 99.348 163.042 98.98C162.778 98.612 162.646 98.18 162.646 97.684C162.646 97.18 162.786 96.728 163.066 96.328C163.354 95.928 163.734 95.656 164.206 95.512C163.782 95.344 163.454 95.1 163.222 94.78C162.99 94.452 162.874 94.092 162.874 93.7C162.874 93.292 162.982 92.92 163.198 92.584C163.414 92.24 163.726 91.968 164.134 91.768C164.55 91.56 165.054 91.456 165.646 91.456C166.238 91.456 166.738 91.56 167.146 91.768C167.562 91.968 167.878 92.24 168.094 92.584C168.31 92.92 168.418 93.292 168.418 93.7C168.418 94.084 168.298 94.444 168.058 94.78C167.826 95.108 167.498 95.352 167.074 95.512C167.546 95.664 167.922 95.94 168.202 96.34C168.49 96.732 168.634 97.18 168.634 97.684C168.634 98.18 168.502 98.612 168.238 98.98C167.974 99.348 167.614 99.636 167.158 99.844C166.71 100.044 166.206 100.144 165.646 100.144ZM165.646 95.104C166.11 95.104 166.474 94.984 166.738 94.744C167.01 94.504 167.146 94.196 167.146 93.82C167.146 93.396 167.014 93.072 166.75 92.848C166.486 92.624 166.118 92.512 165.646 92.512C165.174 92.512 164.806 92.624 164.542 92.848C164.278 93.072 164.146 93.396 164.146 93.82C164.146 94.196 164.278 94.504 164.542 94.744C164.806 94.984 165.174 95.104 165.646 95.104ZM165.646 99.064C166.222 99.064 166.654 98.928 166.942 98.656C167.23 98.376 167.374 98.02 167.374 97.588C167.374 97.108 167.218 96.74 166.906 96.484C166.602 96.22 166.182 96.088 165.646 96.088C165.11 96.088 164.686 96.22 164.374 96.484C164.062 96.74 163.906 97.108 163.906 97.588C163.906 98.02 164.05 98.376 164.338 98.656C164.634 98.928 165.07 99.064 165.646 99.064Z" fill="#2B3674"/>
<path d="M212.6 100.144C212.048 100.144 211.576 100.036 211.184 99.82C210.792 99.604 210.484 99.316 210.26 98.956C210.044 98.596 209.912 98.204 209.864 97.78H211.052C211.124 98.196 211.296 98.516 211.568 98.74C211.84 98.964 212.188 99.076 212.612 99.076C213.196 99.076 213.676 98.804 214.052 98.26C214.436 97.708 214.64 96.864 214.664 95.728C214.472 96.08 214.172 96.38 213.764 96.628C213.364 96.876 212.9 97 212.372 97C211.9 97 211.456 96.888 211.04 96.664C210.624 96.44 210.288 96.128 210.032 95.728C209.776 95.32 209.648 94.84 209.648 94.288C209.648 93.8 209.768 93.34 210.008 92.908C210.248 92.476 210.584 92.128 211.016 91.864C211.456 91.592 211.976 91.456 212.576 91.456C213.192 91.456 213.712 91.572 214.136 91.804C214.56 92.036 214.9 92.344 215.156 92.728C215.412 93.112 215.596 93.544 215.708 94.024C215.828 94.504 215.888 94.996 215.888 95.5C215.888 96.428 215.756 97.24 215.492 97.936C215.236 98.632 214.864 99.176 214.376 99.568C213.888 99.952 213.296 100.144 212.6 100.144ZM212.66 95.908C212.996 95.908 213.296 95.832 213.56 95.68C213.824 95.528 214.032 95.328 214.184 95.08C214.344 94.824 214.424 94.544 214.424 94.24C214.424 93.912 214.344 93.624 214.184 93.376C214.032 93.12 213.82 92.92 213.548 92.776C213.284 92.632 212.984 92.56 212.648 92.56C212.312 92.56 212.012 92.632 211.748 92.776C211.484 92.92 211.272 93.12 211.112 93.376C210.96 93.624 210.884 93.908 210.884 94.228C210.884 94.74 211.052 95.148 211.388 95.452C211.724 95.756 212.148 95.908 212.66 95.908Z" fill="#2B3674"/>
<path d="M255.469 100V93.04L254.113 93.352V92.416L255.973 91.6H256.789V100H255.469ZM261.615 100.144C260.855 100.144 260.199 99.964 259.647 99.604C259.103 99.236 258.683 98.728 258.387 98.08C258.099 97.424 257.955 96.664 257.955 95.8C257.955 94.936 258.099 94.18 258.387 93.532C258.683 92.876 259.103 92.368 259.647 92.008C260.199 91.64 260.855 91.456 261.615 91.456C262.375 91.456 263.027 91.64 263.571 92.008C264.115 92.368 264.531 92.876 264.819 93.532C265.115 94.18 265.263 94.936 265.263 95.8C265.263 96.664 265.115 97.424 264.819 98.08C264.531 98.728 264.115 99.236 263.571 99.604C263.027 99.964 262.375 100.144 261.615 100.144ZM261.615 99.004C262.071 99.004 262.475 98.876 262.827 98.62C263.187 98.364 263.467 97.996 263.667 97.516C263.867 97.036 263.967 96.464 263.967 95.8C263.967 95.136 263.867 94.564 263.667 94.084C263.467 93.604 263.187 93.236 262.827 92.98C262.475 92.724 262.071 92.596 261.615 92.596C261.151 92.596 260.743 92.724 260.391 92.98C260.039 93.236 259.763 93.604 259.563 94.084C259.363 94.564 259.263 95.136 259.263 95.8C259.263 96.464 259.363 97.036 259.563 97.516C259.763 97.996 260.039 98.364 260.391 98.62C260.743 98.876 261.151 99.004 261.615 99.004Z" fill="#2B3674"/>
<path d="M304.808 100V93.04L303.452 93.352V92.416L305.312 91.6H306.128V100H304.808ZM308.459 100V93.04L307.103 93.352V92.416L308.963 91.6H309.779V100H308.459Z" fill="#2B3674"/>
<path d="M20.8887 138V131.04L19.5327 131.352V130.416L21.3927 129.6H22.2087V138H20.8887ZM23.5074 138V137.088C24.0514 136.656 24.5714 136.22 25.0674 135.78C25.5634 135.34 26.0034 134.908 26.3874 134.484C26.7794 134.052 27.0874 133.632 27.3114 133.224C27.5354 132.808 27.6474 132.408 27.6474 132.024C27.6474 131.768 27.6034 131.528 27.5154 131.304C27.4274 131.072 27.2834 130.888 27.0834 130.752C26.8834 130.608 26.6154 130.536 26.2794 130.536C25.7754 130.536 25.3954 130.696 25.1394 131.016C24.8914 131.336 24.7714 131.72 24.7794 132.168H23.5434C23.5514 131.576 23.6754 131.08 23.9154 130.68C24.1634 130.28 24.4914 129.976 24.8994 129.768C25.3154 129.56 25.7834 129.456 26.3034 129.456C27.0954 129.456 27.7274 129.68 28.1994 130.128C28.6794 130.568 28.9194 131.184 28.9194 131.976C28.9194 132.448 28.8034 132.916 28.5714 133.38C28.3474 133.844 28.0514 134.292 27.6834 134.724C27.3234 135.148 26.9354 135.548 26.5194 135.924C26.1034 136.3 25.7074 136.64 25.3314 136.944H29.1714V138H23.5074Z" fill="#2B3674"/>
<path d="M67.8433 138V131.04L66.4873 131.352V130.416L68.3473 129.6H69.1633V138H67.8433ZM73.3179 138.144C72.7739 138.144 72.2779 138.048 71.8299 137.856C71.3899 137.656 71.0379 137.356 70.7739 136.956C70.5099 136.556 70.3699 136.056 70.3539 135.456H71.6139C71.6299 135.904 71.7819 136.284 72.0699 136.596C72.3659 136.9 72.7819 137.052 73.3179 137.052C73.8299 137.052 74.2219 136.912 74.4939 136.632C74.7659 136.344 74.9019 135.988 74.9019 135.564C74.9019 135.052 74.7179 134.672 74.3499 134.424C73.9899 134.176 73.5459 134.052 73.0179 134.052H72.3939V132.996H73.0299C73.5019 132.996 73.8819 132.884 74.1699 132.66C74.4659 132.436 74.6139 132.12 74.6139 131.712C74.6139 131.368 74.4979 131.088 74.2659 130.872C74.0419 130.656 73.7219 130.548 73.3059 130.548C72.8739 130.548 72.5339 130.676 72.2859 130.932C72.0379 131.18 71.9019 131.492 71.8779 131.868H70.6179C70.6339 131.38 70.7539 130.956 70.9779 130.596C71.2099 130.236 71.5259 129.956 71.9259 129.756C72.3259 129.556 72.7859 129.456 73.3059 129.456C73.8659 129.456 74.3339 129.556 74.7099 129.756C75.0939 129.948 75.3819 130.212 75.5739 130.548C75.7739 130.876 75.8739 131.236 75.8739 131.628C75.8739 132.076 75.7499 132.468 75.5019 132.804C75.2539 133.14 74.9219 133.364 74.5059 133.476C74.9859 133.58 75.3819 133.816 75.6939 134.184C76.0059 134.544 76.1619 135.012 76.1619 135.588C76.1619 136.052 76.0539 136.48 75.8379 136.872C75.6219 137.256 75.3019 137.564 74.8779 137.796C74.4539 138.028 73.9339 138.144 73.3179 138.144Z" fill="#2B3674"/>
<path d="M114.728 138V131.04L113.372 131.352V130.416L115.232 129.6H116.048V138H114.728ZM121.342 138V136.32H117.13V135.312L121.138 129.6H122.602V135.216H123.778V136.32H122.602V138H121.342ZM118.51 135.216H121.414V131.004L118.51 135.216Z" fill="#2B3674"/>
<path d="M161.84 138V131.04L160.484 131.352V130.416L162.344 129.6H163.16V138H161.84ZM167.555 138.144C166.963 138.144 166.451 138.04 166.019 137.832C165.587 137.616 165.243 137.324 164.987 136.956C164.739 136.58 164.587 136.156 164.531 135.684H165.779C165.859 136.084 166.059 136.416 166.379 136.68C166.699 136.936 167.095 137.064 167.567 137.064C167.919 137.064 168.223 136.98 168.479 136.812C168.735 136.636 168.935 136.404 169.079 136.116C169.223 135.828 169.295 135.504 169.295 135.144C169.295 134.576 169.135 134.124 168.815 133.788C168.495 133.444 168.091 133.272 167.603 133.272C167.187 133.272 166.831 133.372 166.535 133.572C166.239 133.764 166.023 134.008 165.887 134.304H164.675L165.395 129.6H169.931V130.716H166.355L165.923 132.96C166.107 132.752 166.359 132.58 166.679 132.444C167.007 132.3 167.375 132.228 167.783 132.228C168.351 132.228 168.839 132.36 169.247 132.624C169.655 132.88 169.967 133.228 170.183 133.668C170.407 134.108 170.519 134.596 170.519 135.132C170.519 135.692 170.399 136.2 170.159 136.656C169.919 137.112 169.575 137.476 169.127 137.748C168.687 138.012 168.163 138.144 167.555 138.144Z" fill="#2B3674"/>
<path d="M208.818 138V131.04L207.462 131.352V130.416L209.322 129.6H210.138V138H208.818ZM214.689 138.144C214.073 138.144 213.553 138.028 213.129 137.796C212.705 137.564 212.361 137.256 212.097 136.872C211.841 136.488 211.657 136.056 211.545 135.576C211.433 135.096 211.377 134.604 211.377 134.1C211.377 133.172 211.505 132.36 211.761 131.664C212.025 130.968 212.401 130.428 212.889 130.044C213.377 129.652 213.969 129.456 214.665 129.456C215.217 129.456 215.689 129.564 216.081 129.78C216.473 129.996 216.777 130.284 216.993 130.644C217.217 131.004 217.353 131.396 217.401 131.82H216.213C216.141 131.404 215.969 131.084 215.697 130.86C215.425 130.636 215.077 130.524 214.653 130.524C214.069 130.524 213.585 130.8 213.201 131.352C212.825 131.896 212.625 132.736 212.601 133.872C212.793 133.52 213.089 133.22 213.489 132.972C213.897 132.724 214.365 132.6 214.893 132.6C215.365 132.6 215.805 132.712 216.213 132.936C216.629 133.16 216.965 133.476 217.221 133.884C217.485 134.284 217.617 134.76 217.617 135.312C217.617 135.8 217.497 136.26 217.257 136.692C217.017 137.124 216.677 137.476 216.237 137.748C215.805 138.012 215.289 138.144 214.689 138.144ZM214.617 137.04C214.953 137.04 215.253 136.968 215.517 136.824C215.781 136.68 215.989 136.484 216.141 136.236C216.293 135.98 216.369 135.692 216.369 135.372C216.369 134.86 216.201 134.452 215.865 134.148C215.537 133.844 215.117 133.692 214.605 133.692C214.269 133.692 213.965 133.768 213.693 133.92C213.429 134.072 213.221 134.276 213.069 134.532C212.917 134.78 212.841 135.056 212.841 135.36C212.841 135.688 212.917 135.98 213.069 136.236C213.229 136.484 213.441 136.68 213.705 136.824C213.977 136.968 214.281 137.04 214.617 137.04Z" fill="#2B3674"/>
<path d="M256.477 138V131.04L255.121 131.352V130.416L256.981 129.6H257.797V138H256.477ZM259.851 138L263.103 130.692H258.735V129.6H264.411V130.524L261.183 138H259.851Z" fill="#2B3674"/>
<path d="M303.033 138V131.04L301.677 131.352V130.416L303.537 129.6H304.353V138H303.033ZM308.687 138.144C308.127 138.144 307.619 138.044 307.163 137.844C306.715 137.636 306.355 137.348 306.083 136.98C305.819 136.612 305.687 136.18 305.687 135.684C305.687 135.18 305.827 134.728 306.107 134.328C306.395 133.928 306.775 133.656 307.247 133.512C306.823 133.344 306.495 133.1 306.263 132.78C306.031 132.452 305.915 132.092 305.915 131.7C305.915 131.292 306.023 130.92 306.239 130.584C306.455 130.24 306.767 129.968 307.175 129.768C307.591 129.56 308.095 129.456 308.687 129.456C309.279 129.456 309.779 129.56 310.187 129.768C310.603 129.968 310.919 130.24 311.135 130.584C311.351 130.92 311.459 131.292 311.459 131.7C311.459 132.084 311.339 132.444 311.099 132.78C310.867 133.108 310.539 133.352 310.115 133.512C310.587 133.664 310.963 133.94 311.243 134.34C311.531 134.732 311.675 135.18 311.675 135.684C311.675 136.18 311.543 136.612 311.279 136.98C311.015 137.348 310.655 137.636 310.199 137.844C309.751 138.044 309.247 138.144 308.687 138.144ZM308.687 133.104C309.151 133.104 309.515 132.984 309.779 132.744C310.051 132.504 310.187 132.196 310.187 131.82C310.187 131.396 310.055 131.072 309.791 130.848C309.527 130.624 309.159 130.512 308.687 130.512C308.215 130.512 307.847 130.624 307.583 130.848C307.319 131.072 307.187 131.396 307.187 131.82C307.187 132.196 307.319 132.504 307.583 132.744C307.847 132.984 308.215 133.104 308.687 133.104ZM308.687 137.064C309.263 137.064 309.695 136.928 309.983 136.656C310.271 136.376 310.415 136.02 310.415 135.588C310.415 135.108 310.259 134.74 309.947 134.484C309.643 134.22 309.223 134.088 308.687 134.088C308.151 134.088 307.727 134.22 307.415 134.484C307.103 134.74 306.947 135.108 306.947 135.588C306.947 136.02 307.091 136.376 307.379 136.656C307.675 136.928 308.111 137.064 308.687 137.064Z" fill="#2B3674"/>
<path d="M20.5313 176V169.04L19.1753 169.352V168.416L21.0353 167.6H21.8513V176H20.5313ZM26.1379 176.144C25.5859 176.144 25.1139 176.036 24.7219 175.82C24.3299 175.604 24.0219 175.316 23.7979 174.956C23.5819 174.596 23.4499 174.204 23.4019 173.78H24.5899C24.6619 174.196 24.8339 174.516 25.1059 174.74C25.3779 174.964 25.7259 175.076 26.1499 175.076C26.7339 175.076 27.2139 174.804 27.5899 174.26C27.9739 173.708 28.1779 172.864 28.2019 171.728C28.0099 172.08 27.7099 172.38 27.3019 172.628C26.9019 172.876 26.4379 173 25.9099 173C25.4379 173 24.9939 172.888 24.5779 172.664C24.1619 172.44 23.8259 172.128 23.5699 171.728C23.3139 171.32 23.1859 170.84 23.1859 170.288C23.1859 169.8 23.3059 169.34 23.5459 168.908C23.7859 168.476 24.1219 168.128 24.5539 167.864C24.9939 167.592 25.5139 167.456 26.1139 167.456C26.7299 167.456 27.2499 167.572 27.6739 167.804C28.0979 168.036 28.4379 168.344 28.6939 168.728C28.9499 169.112 29.1339 169.544 29.2459 170.024C29.3659 170.504 29.4259 170.996 29.4259 171.5C29.4259 172.428 29.2939 173.24 29.0299 173.936C28.7739 174.632 28.4019 175.176 27.9139 175.568C27.4259 175.952 26.8339 176.144 26.1379 176.144ZM26.1979 171.908C26.5339 171.908 26.8339 171.832 27.0979 171.68C27.3619 171.528 27.5699 171.328 27.7219 171.08C27.8819 170.824 27.9619 170.544 27.9619 170.24C27.9619 169.912 27.8819 169.624 27.7219 169.376C27.5699 169.12 27.3579 168.92 27.0859 168.776C26.8219 168.632 26.5219 168.56 26.1859 168.56C25.8499 168.56 25.5499 168.632 25.2859 168.776C25.0219 168.92 24.8099 169.12 24.6499 169.376C24.4979 169.624 24.4219 169.908 24.4219 170.228C24.4219 170.74 24.5899 171.148 24.9259 171.452C25.2619 171.756 25.6859 171.908 26.1979 171.908Z" fill="#2B3674"/>
<path d="M64.7078 176V175.088C65.2518 174.656 65.7718 174.22 66.2678 173.78C66.7638 173.34 67.2038 172.908 67.5878 172.484C67.9798 172.052 68.2878 171.632 68.5118 171.224C68.7358 170.808 68.8478 170.408 68.8478 170.024C68.8478 169.768 68.8038 169.528 68.7158 169.304C68.6278 169.072 68.4838 168.888 68.2838 168.752C68.0838 168.608 67.8158 168.536 67.4798 168.536C66.9758 168.536 66.5958 168.696 66.3398 169.016C66.0918 169.336 65.9718 169.72 65.9798 170.168H64.7438C64.7518 169.576 64.8758 169.08 65.1158 168.68C65.3638 168.28 65.6918 167.976 66.0998 167.768C66.5158 167.56 66.9838 167.456 67.5038 167.456C68.2958 167.456 68.9278 167.68 69.3998 168.128C69.8798 168.568 70.1198 169.184 70.1198 169.976C70.1198 170.448 70.0038 170.916 69.7718 171.38C69.5478 171.844 69.2518 172.292 68.8838 172.724C68.5238 173.148 68.1358 173.548 67.7198 173.924C67.3038 174.3 66.9078 174.64 66.5318 174.944H70.3718V176H64.7078ZM74.7692 176.144C74.0092 176.144 73.3532 175.964 72.8012 175.604C72.2572 175.236 71.8372 174.728 71.5412 174.08C71.2532 173.424 71.1092 172.664 71.1092 171.8C71.1092 170.936 71.2532 170.18 71.5412 169.532C71.8372 168.876 72.2572 168.368 72.8012 168.008C73.3532 167.64 74.0092 167.456 74.7692 167.456C75.5292 167.456 76.1812 167.64 76.7252 168.008C77.2692 168.368 77.6852 168.876 77.9732 169.532C78.2692 170.18 78.4172 170.936 78.4172 171.8C78.4172 172.664 78.2692 173.424 77.9732 174.08C77.6852 174.728 77.2692 175.236 76.7252 175.604C76.1812 175.964 75.5292 176.144 74.7692 176.144ZM74.7692 175.004C75.2252 175.004 75.6292 174.876 75.9812 174.62C76.3412 174.364 76.6212 173.996 76.8212 173.516C77.0212 173.036 77.1212 172.464 77.1212 171.8C77.1212 171.136 77.0212 170.564 76.8212 170.084C76.6212 169.604 76.3412 169.236 75.9812 168.98C75.6292 168.724 75.2252 168.596 74.7692 168.596C74.3052 168.596 73.8972 168.724 73.5452 168.98C73.1932 169.236 72.9172 169.604 72.7172 170.084C72.5172 170.564 72.4172 171.136 72.4172 171.8C72.4172 172.464 72.5172 173.036 72.7172 173.516C72.9172 173.996 73.1932 174.364 73.5452 174.62C73.8972 174.876 74.3052 175.004 74.7692 175.004Z" fill="#2B3674"/>
<path d="M114 176V175.088C114.544 174.656 115.064 174.22 115.56 173.78C116.056 173.34 116.496 172.908 116.88 172.484C117.272 172.052 117.58 171.632 117.804 171.224C118.028 170.808 118.14 170.408 118.14 170.024C118.14 169.768 118.096 169.528 118.008 169.304C117.92 169.072 117.776 168.888 117.576 168.752C117.376 168.608 117.108 168.536 116.772 168.536C116.268 168.536 115.888 168.696 115.632 169.016C115.384 169.336 115.264 169.72 115.272 170.168H114.036C114.044 169.576 114.168 169.08 114.408 168.68C114.656 168.28 114.984 167.976 115.392 167.768C115.808 167.56 116.276 167.456 116.796 167.456C117.588 167.456 118.22 167.68 118.692 168.128C119.172 168.568 119.412 169.184 119.412 169.976C119.412 170.448 119.296 170.916 119.064 171.38C118.84 171.844 118.544 172.292 118.176 172.724C117.816 173.148 117.428 173.548 117.012 173.924C116.596 174.3 116.2 174.64 115.824 174.944H119.664V176H114ZM121.659 176V169.04L120.303 169.352V168.416L122.163 167.6H122.979V176H121.659Z" fill="#2B3674"/>
<path d="M159.584 176V175.088C160.128 174.656 160.648 174.22 161.144 173.78C161.64 173.34 162.08 172.908 162.464 172.484C162.856 172.052 163.164 171.632 163.388 171.224C163.612 170.808 163.724 170.408 163.724 170.024C163.724 169.768 163.68 169.528 163.592 169.304C163.504 169.072 163.36 168.888 163.16 168.752C162.96 168.608 162.692 168.536 162.356 168.536C161.852 168.536 161.472 168.696 161.216 169.016C160.968 169.336 160.848 169.72 160.856 170.168H159.62C159.628 169.576 159.752 169.08 159.992 168.68C160.24 168.28 160.568 167.976 160.976 167.768C161.392 167.56 161.86 167.456 162.38 167.456C163.172 167.456 163.804 167.68 164.276 168.128C164.756 168.568 164.996 169.184 164.996 169.976C164.996 170.448 164.88 170.916 164.648 171.38C164.424 171.844 164.128 172.292 163.76 172.724C163.4 173.148 163.012 173.548 162.596 173.924C162.18 174.3 161.784 174.64 161.408 174.944H165.248V176H159.584ZM166.211 176V175.088C166.755 174.656 167.275 174.22 167.771 173.78C168.267 173.34 168.707 172.908 169.091 172.484C169.483 172.052 169.791 171.632 170.015 171.224C170.239 170.808 170.351 170.408 170.351 170.024C170.351 169.768 170.307 169.528 170.219 169.304C170.131 169.072 169.987 168.888 169.787 168.752C169.587 168.608 169.319 168.536 168.983 168.536C168.479 168.536 168.099 168.696 167.843 169.016C167.595 169.336 167.475 169.72 167.483 170.168H166.247C166.255 169.576 166.379 169.08 166.619 168.68C166.867 168.28 167.195 167.976 167.603 167.768C168.019 167.56 168.487 167.456 169.007 167.456C169.799 167.456 170.431 167.68 170.903 168.128C171.383 168.568 171.623 169.184 171.623 169.976C171.623 170.448 171.507 170.916 171.275 171.38C171.051 171.844 170.755 172.292 170.387 172.724C170.027 173.148 169.639 173.548 169.223 173.924C168.807 174.3 168.411 174.64 168.035 174.944H171.875V176H166.211Z" fill="#2B3674"/>
<path d="M206.538 176V175.088C207.082 174.656 207.602 174.22 208.098 173.78C208.594 173.34 209.034 172.908 209.418 172.484C209.81 172.052 210.118 171.632 210.342 171.224C210.566 170.808 210.678 170.408 210.678 170.024C210.678 169.768 210.634 169.528 210.546 169.304C210.458 169.072 210.314 168.888 210.114 168.752C209.914 168.608 209.646 168.536 209.31 168.536C208.806 168.536 208.426 168.696 208.17 169.016C207.922 169.336 207.802 169.72 207.81 170.168H206.574C206.582 169.576 206.706 169.08 206.946 168.68C207.194 168.28 207.522 167.976 207.93 167.768C208.346 167.56 208.814 167.456 209.334 167.456C210.126 167.456 210.758 167.68 211.23 168.128C211.71 168.568 211.95 169.184 211.95 169.976C211.95 170.448 211.834 170.916 211.602 171.38C211.378 171.844 211.082 172.292 210.714 172.724C210.354 173.148 209.966 173.548 209.55 173.924C209.134 174.3 208.738 174.64 208.362 174.944H212.202V176H206.538ZM216.022 176.144C215.478 176.144 214.982 176.048 214.534 175.856C214.094 175.656 213.742 175.356 213.478 174.956C213.214 174.556 213.074 174.056 213.058 173.456H214.318C214.334 173.904 214.486 174.284 214.774 174.596C215.07 174.9 215.486 175.052 216.022 175.052C216.534 175.052 216.926 174.912 217.198 174.632C217.47 174.344 217.606 173.988 217.606 173.564C217.606 173.052 217.422 172.672 217.054 172.424C216.694 172.176 216.25 172.052 215.722 172.052H215.098V170.996H215.734C216.206 170.996 216.586 170.884 216.874 170.66C217.17 170.436 217.318 170.12 217.318 169.712C217.318 169.368 217.202 169.088 216.97 168.872C216.746 168.656 216.426 168.548 216.01 168.548C215.578 168.548 215.238 168.676 214.99 168.932C214.742 169.18 214.606 169.492 214.582 169.868H213.322C213.338 169.38 213.458 168.956 213.682 168.596C213.914 168.236 214.23 167.956 214.63 167.756C215.03 167.556 215.49 167.456 216.01 167.456C216.57 167.456 217.038 167.556 217.414 167.756C217.798 167.948 218.086 168.212 218.278 168.548C218.478 168.876 218.578 169.236 218.578 169.628C218.578 170.076 218.454 170.468 218.206 170.804C217.958 171.14 217.626 171.364 217.21 171.476C217.69 171.58 218.086 171.816 218.398 172.184C218.71 172.544 218.866 173.012 218.866 173.588C218.866 174.052 218.758 174.48 218.542 174.872C218.326 175.256 218.006 175.564 217.582 175.796C217.158 176.028 216.638 176.144 216.022 176.144Z" fill="#2B3674"/>
<path d="M253.499 176V175.088C254.043 174.656 254.563 174.22 255.059 173.78C255.555 173.34 255.995 172.908 256.379 172.484C256.771 172.052 257.079 171.632 257.303 171.224C257.527 170.808 257.639 170.408 257.639 170.024C257.639 169.768 257.595 169.528 257.507 169.304C257.419 169.072 257.275 168.888 257.075 168.752C256.875 168.608 256.607 168.536 256.271 168.536C255.767 168.536 255.387 168.696 255.131 169.016C254.883 169.336 254.763 169.72 254.771 170.168H253.535C253.543 169.576 253.667 169.08 253.907 168.68C254.155 168.28 254.483 167.976 254.891 167.768C255.307 167.56 255.775 167.456 256.295 167.456C257.087 167.456 257.719 167.68 258.191 168.128C258.671 168.568 258.911 169.184 258.911 169.976C258.911 170.448 258.795 170.916 258.563 171.38C258.339 171.844 258.043 172.292 257.675 172.724C257.315 173.148 256.927 173.548 256.511 173.924C256.095 174.3 255.699 174.64 255.323 174.944H259.163V176H253.499ZM263.97 176V174.32H259.758V173.312L263.766 167.6H265.23V173.216H266.406V174.32H265.23V176H263.97ZM261.138 173.216H264.042V169.004L261.138 173.216Z" fill="#2B3674"/>
<path d="M300.536 176V175.088C301.08 174.656 301.6 174.22 302.096 173.78C302.592 173.34 303.032 172.908 303.416 172.484C303.808 172.052 304.116 171.632 304.34 171.224C304.564 170.808 304.676 170.408 304.676 170.024C304.676 169.768 304.632 169.528 304.544 169.304C304.456 169.072 304.312 168.888 304.112 168.752C303.912 168.608 303.644 168.536 303.308 168.536C302.804 168.536 302.424 168.696 302.168 169.016C301.92 169.336 301.8 169.72 301.808 170.168H300.572C300.58 169.576 300.704 169.08 300.944 168.68C301.192 168.28 301.52 167.976 301.928 167.768C302.344 167.56 302.812 167.456 303.332 167.456C304.124 167.456 304.756 167.68 305.228 168.128C305.708 168.568 305.948 169.184 305.948 169.976C305.948 170.448 305.832 170.916 305.6 171.38C305.376 171.844 305.08 172.292 304.712 172.724C304.352 173.148 303.964 173.548 303.548 173.924C303.132 174.3 302.736 174.64 302.36 174.944H306.2V176H300.536ZM310.259 176.144C309.667 176.144 309.155 176.04 308.723 175.832C308.291 175.616 307.947 175.324 307.691 174.956C307.443 174.58 307.291 174.156 307.235 173.684H308.483C308.563 174.084 308.763 174.416 309.083 174.68C309.403 174.936 309.799 175.064 310.271 175.064C310.623 175.064 310.927 174.98 311.183 174.812C311.439 174.636 311.639 174.404 311.783 174.116C311.927 173.828 311.999 173.504 311.999 173.144C311.999 172.576 311.839 172.124 311.519 171.788C311.199 171.444 310.795 171.272 310.307 171.272C309.891 171.272 309.535 171.372 309.239 171.572C308.943 171.764 308.727 172.008 308.591 172.304H307.379L308.099 167.6H312.635V168.716H309.059L308.627 170.96C308.811 170.752 309.063 170.58 309.383 170.444C309.711 170.3 310.079 170.228 310.487 170.228C311.055 170.228 311.543 170.36 311.951 170.624C312.359 170.88 312.671 171.228 312.887 171.668C313.111 172.108 313.223 172.596 313.223 173.132C313.223 173.692 313.103 174.2 312.863 174.656C312.623 175.112 312.279 175.476 311.831 175.748C311.391 176.012 310.867 176.144 310.259 176.144Z" fill="#2B3674"/>
<path d="M18.011 214V213.088C18.555 212.656 19.075 212.22 19.571 211.78C20.067 211.34 20.507 210.908 20.891 210.484C21.283 210.052 21.591 209.632 21.815 209.224C22.039 208.808 22.151 208.408 22.151 208.024C22.151 207.768 22.107 207.528 22.019 207.304C21.931 207.072 21.787 206.888 21.587 206.752C21.387 206.608 21.119 206.536 20.783 206.536C20.279 206.536 19.899 206.696 19.643 207.016C19.395 207.336 19.275 207.72 19.283 208.168H18.047C18.055 207.576 18.179 207.08 18.419 206.68C18.667 206.28 18.995 205.976 19.403 205.768C19.819 205.56 20.287 205.456 20.807 205.456C21.599 205.456 22.231 205.68 22.703 206.128C23.183 206.568 23.423 207.184 23.423 207.976C23.423 208.448 23.307 208.916 23.075 209.38C22.851 209.844 22.555 210.292 22.187 210.724C21.827 211.148 21.439 211.548 21.023 211.924C20.607 212.3 20.211 212.64 19.835 212.944H23.675V214H18.011ZM27.8902 214.144C27.2742 214.144 26.7542 214.028 26.3302 213.796C25.9062 213.564 25.5622 213.256 25.2982 212.872C25.0422 212.488 24.8582 212.056 24.7462 211.576C24.6342 211.096 24.5782 210.604 24.5782 210.1C24.5782 209.172 24.7062 208.36 24.9622 207.664C25.2262 206.968 25.6022 206.428 26.0902 206.044C26.5782 205.652 27.1702 205.456 27.8662 205.456C28.4182 205.456 28.8902 205.564 29.2822 205.78C29.6742 205.996 29.9782 206.284 30.1942 206.644C30.4182 207.004 30.5542 207.396 30.6022 207.82H29.4142C29.3422 207.404 29.1702 207.084 28.8982 206.86C28.6262 206.636 28.2782 206.524 27.8542 206.524C27.2702 206.524 26.7862 206.8 26.4022 207.352C26.0262 207.896 25.8262 208.736 25.8022 209.872C25.9942 209.52 26.2902 209.22 26.6902 208.972C27.0982 208.724 27.5662 208.6 28.0942 208.6C28.5662 208.6 29.0062 208.712 29.4142 208.936C29.8302 209.16 30.1662 209.476 30.4222 209.884C30.6862 210.284 30.8182 210.76 30.8182 211.312C30.8182 211.8 30.6982 212.26 30.4582 212.692C30.2182 213.124 29.8782 213.476 29.4382 213.748C29.0062 214.012 28.4902 214.144 27.8902 214.144ZM27.8182 213.04C28.1542 213.04 28.4542 212.968 28.7182 212.824C28.9822 212.68 29.1902 212.484 29.3422 212.236C29.4942 211.98 29.5702 211.692 29.5702 211.372C29.5702 210.86 29.4022 210.452 29.0662 210.148C28.7382 209.844 28.3182 209.692 27.8062 209.692C27.4702 209.692 27.1662 209.768 26.8942 209.92C26.6302 210.072 26.4222 210.276 26.2702 210.532C26.1182 210.78 26.0422 211.056 26.0422 211.36C26.0422 211.688 26.1182 211.98 26.2702 212.236C26.4302 212.484 26.6422 212.68 26.9062 212.824C27.1782 212.968 27.4822 213.04 27.8182 213.04Z" fill="#2B3674"/>
<path d="M47.5034 210C47.5034 198.954 56.4577 190 67.5034 190H94.5753V230H67.5034C56.4577 230 47.5034 221.046 47.5034 210Z" fill="#F4F7FE"/>
<circle cx="71.2173" cy="210" r="20" fill="#4318FF"/>
<path d="M65.7449 214V213.088C66.2889 212.656 66.8089 212.22 67.3049 211.78C67.8009 211.34 68.2409 210.908 68.6249 210.484C69.0169 210.052 69.3249 209.632 69.5489 209.224C69.7729 208.808 69.8849 208.408 69.8849 208.024C69.8849 207.768 69.8409 207.528 69.7529 207.304C69.6649 207.072 69.5209 206.888 69.3209 206.752C69.1209 206.608 68.8529 206.536 68.5169 206.536C68.0129 206.536 67.6329 206.696 67.3769 207.016C67.1289 207.336 67.0089 207.72 67.0169 208.168H65.7809C65.7889 207.576 65.9129 207.08 66.1529 206.68C66.4009 206.28 66.7289 205.976 67.1369 205.768C67.5529 205.56 68.0209 205.456 68.5409 205.456C69.3329 205.456 69.9649 205.68 70.4369 206.128C70.9169 206.568 71.1569 207.184 71.1569 207.976C71.1569 208.448 71.0409 208.916 70.8089 209.38C70.5849 209.844 70.2889 210.292 69.9209 210.724C69.5609 211.148 69.1729 211.548 68.7569 211.924C68.3409 212.3 67.9449 212.64 67.5689 212.944H71.4089V214H65.7449ZM72.9758 214L76.2278 206.692H71.8598V205.6H77.5358V206.524L74.3078 214H72.9758Z" fill="white"/>
<rect width="47.0718" height="40" transform="translate(94.5752 190)" fill="#F4F7FE"/>
<path d="M112.301 214V213.088C112.845 212.656 113.365 212.22 113.861 211.78C114.357 211.34 114.797 210.908 115.181 210.484C115.573 210.052 115.881 209.632 116.105 209.224C116.329 208.808 116.441 208.408 116.441 208.024C116.441 207.768 116.397 207.528 116.309 207.304C116.221 207.072 116.077 206.888 115.877 206.752C115.677 206.608 115.409 206.536 115.073 206.536C114.569 206.536 114.189 206.696 113.933 207.016C113.685 207.336 113.565 207.72 113.573 208.168H112.337C112.345 207.576 112.469 207.08 112.709 206.68C112.957 206.28 113.285 205.976 113.693 205.768C114.109 205.56 114.577 205.456 115.097 205.456C115.889 205.456 116.521 205.68 116.993 206.128C117.473 206.568 117.713 207.184 117.713 207.976C117.713 208.448 117.597 208.916 117.365 209.38C117.141 209.844 116.845 210.292 116.477 210.724C116.117 211.148 115.729 211.548 115.313 211.924C114.897 212.3 114.501 212.64 114.125 212.944H117.965V214H112.301ZM121.812 214.144C121.252 214.144 120.744 214.044 120.288 213.844C119.84 213.636 119.48 213.348 119.208 212.98C118.944 212.612 118.812 212.18 118.812 211.684C118.812 211.18 118.952 210.728 119.232 210.328C119.52 209.928 119.9 209.656 120.372 209.512C119.948 209.344 119.62 209.1 119.388 208.78C119.156 208.452 119.04 208.092 119.04 207.7C119.04 207.292 119.148 206.92 119.364 206.584C119.58 206.24 119.892 205.968 120.3 205.768C120.716 205.56 121.22 205.456 121.812 205.456C122.404 205.456 122.904 205.56 123.312 205.768C123.728 205.968 124.044 206.24 124.26 206.584C124.476 206.92 124.584 207.292 124.584 207.7C124.584 208.084 124.464 208.444 124.224 208.78C123.992 209.108 123.664 209.352 123.24 209.512C123.712 209.664 124.088 209.94 124.368 210.34C124.656 210.732 124.8 211.18 124.8 211.684C124.8 212.18 124.668 212.612 124.404 212.98C124.14 213.348 123.78 213.636 123.324 213.844C122.876 214.044 122.372 214.144 121.812 214.144ZM121.812 209.104C122.276 209.104 122.64 208.984 122.904 208.744C123.176 208.504 123.312 208.196 123.312 207.82C123.312 207.396 123.18 207.072 122.916 206.848C122.652 206.624 122.284 206.512 121.812 206.512C121.34 206.512 120.972 206.624 120.708 206.848C120.444 207.072 120.312 207.396 120.312 207.82C120.312 208.196 120.444 208.504 120.708 208.744C120.972 208.984 121.34 209.104 121.812 209.104ZM121.812 213.064C122.388 213.064 122.82 212.928 123.108 212.656C123.396 212.376 123.54 212.02 123.54 211.588C123.54 211.108 123.384 210.74 123.072 210.484C122.768 210.22 122.348 210.088 121.812 210.088C121.276 210.088 120.852 210.22 120.54 210.484C120.228 210.74 120.072 211.108 120.072 211.588C120.072 212.02 120.216 212.376 120.504 212.656C120.8 212.928 121.236 213.064 121.812 213.064Z" fill="#4318FF"/>
<rect width="47.0718" height="40" transform="translate(141.647 190)" fill="#F4F7FE"/>
<path d="M159.273 214V213.088C159.817 212.656 160.337 212.22 160.833 211.78C161.329 211.34 161.769 210.908 162.153 210.484C162.545 210.052 162.853 209.632 163.077 209.224C163.301 208.808 163.413 208.408 163.413 208.024C163.413 207.768 163.369 207.528 163.281 207.304C163.193 207.072 163.049 206.888 162.849 206.752C162.649 206.608 162.381 206.536 162.045 206.536C161.541 206.536 161.161 206.696 160.905 207.016C160.657 207.336 160.537 207.72 160.545 208.168H159.309C159.317 207.576 159.441 207.08 159.681 206.68C159.929 206.28 160.257 205.976 160.665 205.768C161.081 205.56 161.549 205.456 162.069 205.456C162.861 205.456 163.493 205.68 163.965 206.128C164.445 206.568 164.685 207.184 164.685 207.976C164.685 208.448 164.569 208.916 164.337 209.38C164.113 209.844 163.817 210.292 163.449 210.724C163.089 211.148 162.701 211.548 162.285 211.924C161.869 212.3 161.473 212.64 161.097 212.944H164.937V214H159.273ZM168.795 214.144C168.243 214.144 167.771 214.036 167.379 213.82C166.987 213.604 166.679 213.316 166.455 212.956C166.239 212.596 166.107 212.204 166.059 211.78H167.247C167.319 212.196 167.491 212.516 167.763 212.74C168.035 212.964 168.383 213.076 168.807 213.076C169.391 213.076 169.871 212.804 170.247 212.26C170.631 211.708 170.835 210.864 170.859 209.728C170.667 210.08 170.367 210.38 169.959 210.628C169.559 210.876 169.095 211 168.567 211C168.095 211 167.651 210.888 167.235 210.664C166.819 210.44 166.483 210.128 166.227 209.728C165.971 209.32 165.843 208.84 165.843 208.288C165.843 207.8 165.963 207.34 166.203 206.908C166.443 206.476 166.779 206.128 167.211 205.864C167.651 205.592 168.171 205.456 168.771 205.456C169.387 205.456 169.907 205.572 170.331 205.804C170.755 206.036 171.095 206.344 171.351 206.728C171.607 207.112 171.791 207.544 171.903 208.024C172.023 208.504 172.083 208.996 172.083 209.5C172.083 210.428 171.951 211.24 171.687 211.936C171.431 212.632 171.059 213.176 170.571 213.568C170.083 213.952 169.491 214.144 168.795 214.144ZM168.855 209.908C169.191 209.908 169.491 209.832 169.755 209.68C170.019 209.528 170.227 209.328 170.379 209.08C170.539 208.824 170.619 208.544 170.619 208.24C170.619 207.912 170.539 207.624 170.379 207.376C170.227 207.12 170.015 206.92 169.743 206.776C169.479 206.632 169.179 206.56 168.843 206.56C168.507 206.56 168.207 206.632 167.943 206.776C167.679 206.92 167.467 207.12 167.307 207.376C167.155 207.624 167.079 207.908 167.079 208.228C167.079 208.74 167.247 209.148 167.583 209.452C167.919 209.756 168.343 209.908 168.855 209.908Z" fill="#4318FF"/>
<path d="M188.719 190H215.791C226.836 190 235.791 198.954 235.791 210C235.791 221.046 226.836 230 215.791 230H188.719V190Z" fill="#F4F7FE"/>
<circle cx="212.718" cy="210" r="20" fill="#4318FF"/>
<path d="M208.615 214.144C208.071 214.144 207.575 214.048 207.127 213.856C206.687 213.656 206.335 213.356 206.071 212.956C205.807 212.556 205.667 212.056 205.651 211.456H206.911C206.927 211.904 207.079 212.284 207.367 212.596C207.663 212.9 208.079 213.052 208.615 213.052C209.127 213.052 209.519 212.912 209.791 212.632C210.063 212.344 210.199 211.988 210.199 211.564C210.199 211.052 210.015 210.672 209.647 210.424C209.287 210.176 208.843 210.052 208.315 210.052H207.691V208.996H208.327C208.799 208.996 209.179 208.884 209.467 208.66C209.763 208.436 209.911 208.12 209.911 207.712C209.911 207.368 209.795 207.088 209.563 206.872C209.339 206.656 209.019 206.548 208.603 206.548C208.171 206.548 207.831 206.676 207.583 206.932C207.335 207.18 207.199 207.492 207.175 207.868H205.915C205.931 207.38 206.051 206.956 206.275 206.596C206.507 206.236 206.823 205.956 207.223 205.756C207.623 205.556 208.083 205.456 208.603 205.456C209.163 205.456 209.631 205.556 210.007 205.756C210.391 205.948 210.679 206.212 210.871 206.548C211.071 206.876 211.171 207.236 211.171 207.628C211.171 208.076 211.047 208.468 210.799 208.804C210.551 209.14 210.219 209.364 209.803 209.476C210.283 209.58 210.679 209.816 210.991 210.184C211.303 210.544 211.459 211.012 211.459 211.588C211.459 212.052 211.351 212.48 211.135 212.872C210.919 213.256 210.599 213.564 210.175 213.796C209.751 214.028 209.231 214.144 208.615 214.144ZM216.149 214.144C215.389 214.144 214.733 213.964 214.181 213.604C213.637 213.236 213.217 212.728 212.921 212.08C212.633 211.424 212.489 210.664 212.489 209.8C212.489 208.936 212.633 208.18 212.921 207.532C213.217 206.876 213.637 206.368 214.181 206.008C214.733 205.64 215.389 205.456 216.149 205.456C216.909 205.456 217.561 205.64 218.105 206.008C218.649 206.368 219.065 206.876 219.353 207.532C219.649 208.18 219.797 208.936 219.797 209.8C219.797 210.664 219.649 211.424 219.353 212.08C219.065 212.728 218.649 213.236 218.105 213.604C217.561 213.964 216.909 214.144 216.149 214.144ZM216.149 213.004C216.605 213.004 217.009 212.876 217.361 212.62C217.721 212.364 218.001 211.996 218.201 211.516C218.401 211.036 218.501 210.464 218.501 209.8C218.501 209.136 218.401 208.564 218.201 208.084C218.001 207.604 217.721 207.236 217.361 206.98C217.009 206.724 216.605 206.596 216.149 206.596C215.685 206.596 215.277 206.724 214.925 206.98C214.573 207.236 214.297 207.604 214.097 208.084C213.897 208.564 213.797 209.136 213.797 209.8C213.797 210.464 213.897 211.036 214.097 211.516C214.297 211.996 214.573 212.364 214.925 212.62C215.277 212.876 215.685 213.004 216.149 213.004Z" fill="white"/>
<path d="M259.562 214V207.04L258.206 207.352V206.416L260.066 205.6H260.882V214H259.562Z" fill="#A3AED0"/>
<path d="M304.113 214V213.088C304.657 212.656 305.177 212.22 305.673 211.78C306.169 211.34 306.609 210.908 306.993 210.484C307.385 210.052 307.693 209.632 307.917 209.224C308.141 208.808 308.253 208.408 308.253 208.024C308.253 207.768 308.209 207.528 308.121 207.304C308.033 207.072 307.889 206.888 307.689 206.752C307.489 206.608 307.221 206.536 306.885 206.536C306.381 206.536 306.001 206.696 305.745 207.016C305.497 207.336 305.377 207.72 305.385 208.168H304.149C304.157 207.576 304.281 207.08 304.521 206.68C304.769 206.28 305.097 205.976 305.505 205.768C305.921 205.56 306.389 205.456 306.909 205.456C307.701 205.456 308.333 205.68 308.805 206.128C309.285 206.568 309.525 207.184 309.525 207.976C309.525 208.448 309.409 208.916 309.177 209.38C308.953 209.844 308.657 210.292 308.289 210.724C307.929 211.148 307.541 211.548 307.125 211.924C306.709 212.3 306.313 212.64 305.937 212.944H309.777V214H304.113Z" fill="#A3AED0"/>
<path d="M24.4209 252.144C23.8769 252.144 23.3809 252.048 22.9329 251.856C22.4929 251.656 22.1409 251.356 21.8769 250.956C21.6129 250.556 21.4729 250.056 21.4569 249.456H22.7169C22.7329 249.904 22.8849 250.284 23.1729 250.596C23.4689 250.9 23.8849 251.052 24.4209 251.052C24.9329 251.052 25.3249 250.912 25.5969 250.632C25.8689 250.344 26.0049 249.988 26.0049 249.564C26.0049 249.052 25.8209 248.672 25.4529 248.424C25.0929 248.176 24.6489 248.052 24.1209 248.052H23.4969V246.996H24.1329C24.6049 246.996 24.9849 246.884 25.2729 246.66C25.5689 246.436 25.7169 246.12 25.7169 245.712C25.7169 245.368 25.6009 245.088 25.3689 244.872C25.1449 244.656 24.8249 244.548 24.4089 244.548C23.9769 244.548 23.6369 244.676 23.3889 244.932C23.1409 245.18 23.0049 245.492 22.9809 245.868H21.7209C21.7369 245.38 21.8569 244.956 22.0809 244.596C22.3129 244.236 22.6289 243.956 23.0289 243.756C23.4289 243.556 23.8889 243.456 24.4089 243.456C24.9689 243.456 25.4369 243.556 25.8129 243.756C26.1969 243.948 26.4849 244.212 26.6769 244.548C26.8769 244.876 26.9769 245.236 26.9769 245.628C26.9769 246.076 26.8529 246.468 26.6049 246.804C26.3569 247.14 26.0249 247.364 25.6089 247.476C26.0889 247.58 26.4849 247.816 26.7969 248.184C27.1089 248.544 27.2649 249.012 27.2649 249.588C27.2649 250.052 27.1569 250.48 26.9409 250.872C26.7249 251.256 26.4049 251.564 25.9809 251.796C25.5569 252.028 25.0369 252.144 24.4209 252.144Z" fill="#A3AED0"/>
<path d="M72.4451 252V250.32H68.2331V249.312L72.2411 243.6H73.7051V249.216H74.8811V250.32H73.7051V252H72.4451ZM69.6131 249.216H72.5171V245.004L69.6131 249.216Z" fill="#A3AED0"/>
<path d="M118.658 252.144C118.066 252.144 117.554 252.04 117.122 251.832C116.69 251.616 116.346 251.324 116.09 250.956C115.842 250.58 115.69 250.156 115.634 249.684H116.882C116.962 250.084 117.162 250.416 117.482 250.68C117.802 250.936 118.198 251.064 118.67 251.064C119.022 251.064 119.326 250.98 119.582 250.812C119.838 250.636 120.038 250.404 120.182 250.116C120.326 249.828 120.398 249.504 120.398 249.144C120.398 248.576 120.238 248.124 119.918 247.788C119.598 247.444 119.194 247.272 118.706 247.272C118.29 247.272 117.934 247.372 117.638 247.572C117.342 247.764 117.126 248.008 116.99 248.304H115.778L116.498 243.6H121.034V244.716H117.458L117.026 246.96C117.21 246.752 117.462 246.58 117.782 246.444C118.11 246.3 118.478 246.228 118.886 246.228C119.454 246.228 119.942 246.36 120.35 246.624C120.758 246.88 121.07 247.228 121.286 247.668C121.51 248.108 121.622 248.596 121.622 249.132C121.622 249.692 121.502 250.2 121.262 250.656C121.022 251.112 120.678 251.476 120.23 251.748C119.79 252.012 119.266 252.144 118.658 252.144Z" fill="#A3AED0"/>
<path d="M165.792 252.144C165.176 252.144 164.656 252.028 164.232 251.796C163.808 251.564 163.464 251.256 163.2 250.872C162.944 250.488 162.76 250.056 162.648 249.576C162.536 249.096 162.48 248.604 162.48 248.1C162.48 247.172 162.608 246.36 162.864 245.664C163.128 244.968 163.504 244.428 163.992 244.044C164.48 243.652 165.072 243.456 165.768 243.456C166.32 243.456 166.792 243.564 167.184 243.78C167.576 243.996 167.88 244.284 168.096 244.644C168.32 245.004 168.456 245.396 168.504 245.82H167.316C167.244 245.404 167.072 245.084 166.8 244.86C166.528 244.636 166.18 244.524 165.756 244.524C165.172 244.524 164.688 244.8 164.304 245.352C163.928 245.896 163.728 246.736 163.704 247.872C163.896 247.52 164.192 247.22 164.592 246.972C165 246.724 165.468 246.6 165.996 246.6C166.468 246.6 166.908 246.712 167.316 246.936C167.732 247.16 168.068 247.476 168.324 247.884C168.588 248.284 168.72 248.76 168.72 249.312C168.72 249.8 168.6 250.26 168.36 250.692C168.12 251.124 167.78 251.476 167.34 251.748C166.908 252.012 166.392 252.144 165.792 252.144ZM165.72 251.04C166.056 251.04 166.356 250.968 166.62 250.824C166.884 250.68 167.092 250.484 167.244 250.236C167.396 249.98 167.472 249.692 167.472 249.372C167.472 248.86 167.304 248.452 166.968 248.148C166.64 247.844 166.22 247.692 165.708 247.692C165.372 247.692 165.068 247.768 164.796 247.92C164.532 248.072 164.324 248.276 164.172 248.532C164.02 248.78 163.944 249.056 163.944 249.36C163.944 249.688 164.02 249.98 164.172 250.236C164.332 250.484 164.544 250.68 164.808 250.824C165.08 250.968 165.384 251.04 165.72 251.04Z" fill="#A3AED0"/>
<path d="M210.954 252L214.206 244.692H209.838V243.6H215.514V244.524L212.286 252H210.954Z" fill="#A3AED0"/>
<path d="M259.79 252.144C259.23 252.144 258.722 252.044 258.266 251.844C257.818 251.636 257.458 251.348 257.186 250.98C256.922 250.612 256.79 250.18 256.79 249.684C256.79 249.18 256.93 248.728 257.21 248.328C257.498 247.928 257.878 247.656 258.35 247.512C257.926 247.344 257.598 247.1 257.366 246.78C257.134 246.452 257.018 246.092 257.018 245.7C257.018 245.292 257.126 244.92 257.342 244.584C257.558 244.24 257.87 243.968 258.278 243.768C258.694 243.56 259.198 243.456 259.79 243.456C260.382 243.456 260.882 243.56 261.29 243.768C261.706 243.968 262.022 244.24 262.238 244.584C262.454 244.92 262.562 245.292 262.562 245.7C262.562 246.084 262.442 246.444 262.202 246.78C261.97 247.108 261.642 247.352 261.218 247.512C261.69 247.664 262.066 247.94 262.346 248.34C262.634 248.732 262.778 249.18 262.778 249.684C262.778 250.18 262.646 250.612 262.382 250.98C262.118 251.348 261.758 251.636 261.302 251.844C260.854 252.044 260.35 252.144 259.79 252.144ZM259.79 247.104C260.254 247.104 260.618 246.984 260.882 246.744C261.154 246.504 261.29 246.196 261.29 245.82C261.29 245.396 261.158 245.072 260.894 244.848C260.63 244.624 260.262 244.512 259.79 244.512C259.318 244.512 258.95 244.624 258.686 244.848C258.422 245.072 258.29 245.396 258.29 245.82C258.29 246.196 258.422 246.504 258.686 246.744C258.95 246.984 259.318 247.104 259.79 247.104ZM259.79 251.064C260.366 251.064 260.798 250.928 261.086 250.656C261.374 250.376 261.518 250.02 261.518 249.588C261.518 249.108 261.362 248.74 261.05 248.484C260.746 248.22 260.326 248.088 259.79 248.088C259.254 248.088 258.83 248.22 258.518 248.484C258.206 248.74 258.05 249.108 258.05 249.588C258.05 250.02 258.194 250.376 258.482 250.656C258.778 250.928 259.214 251.064 259.79 251.064Z" fill="#A3AED0"/>
<path d="M306.744 252.144C306.192 252.144 305.72 252.036 305.328 251.82C304.936 251.604 304.628 251.316 304.404 250.956C304.188 250.596 304.056 250.204 304.008 249.78H305.196C305.268 250.196 305.44 250.516 305.712 250.74C305.984 250.964 306.332 251.076 306.756 251.076C307.34 251.076 307.82 250.804 308.196 250.26C308.58 249.708 308.784 248.864 308.808 247.728C308.616 248.08 308.316 248.38 307.908 248.628C307.508 248.876 307.044 249 306.516 249C306.044 249 305.6 248.888 305.184 248.664C304.768 248.44 304.432 248.128 304.176 247.728C303.92 247.32 303.792 246.84 303.792 246.288C303.792 245.8 303.912 245.34 304.152 244.908C304.392 244.476 304.728 244.128 305.16 243.864C305.6 243.592 306.12 243.456 306.72 243.456C307.336 243.456 307.856 243.572 308.28 243.804C308.704 244.036 309.044 244.344 309.3 244.728C309.556 245.112 309.74 245.544 309.852 246.024C309.972 246.504 310.032 246.996 310.032 247.5C310.032 248.428 309.9 249.24 309.636 249.936C309.38 250.632 309.008 251.176 308.52 251.568C308.032 251.952 307.44 252.144 306.744 252.144ZM306.804 247.908C307.14 247.908 307.44 247.832 307.704 247.68C307.968 247.528 308.176 247.328 308.328 247.08C308.488 246.824 308.568 246.544 308.568 246.24C308.568 245.912 308.488 245.624 308.328 245.376C308.176 245.12 307.964 244.92 307.692 244.776C307.428 244.632 307.128 244.56 306.792 244.56C306.456 244.56 306.156 244.632 305.892 244.776C305.628 244.92 305.416 245.12 305.256 245.376C305.104 245.624 305.028 245.908 305.028 246.228C305.028 246.74 305.196 247.148 305.532 247.452C305.868 247.756 306.292 247.908 306.804 247.908Z" fill="#A3AED0"/>
</svg>
