<svg width="410" height="24" viewBox="0 0 410 24" fill="none" xmlns="http://www.w3.org/2000/svg">
<path d="M202.616 17.168C201.954 17.168 201.356 17.0187 200.824 16.72C200.302 16.412 199.886 15.9873 199.578 15.446C199.27 14.8953 199.116 14.256 199.116 13.528C199.116 12.8 199.27 12.1653 199.578 11.624C199.896 11.0733 200.32 10.6487 200.852 10.35C201.384 10.042 201.977 9.888 202.63 9.888C203.293 9.888 203.886 10.042 204.408 10.35C204.94 10.6487 205.36 11.0733 205.668 11.624C205.986 12.1653 206.144 12.8 206.144 13.528C206.144 14.256 205.986 14.8953 205.668 15.446C205.36 15.9873 204.94 16.412 204.408 16.72C203.876 17.0187 203.279 17.168 202.616 17.168ZM202.616 15.894C202.971 15.894 203.298 15.8053 203.596 15.628C203.904 15.4507 204.152 15.1893 204.338 14.844C204.525 14.4893 204.618 14.0507 204.618 13.528C204.618 13.0053 204.525 12.5713 204.338 12.226C204.161 11.8713 203.918 11.6053 203.61 11.428C203.312 11.2507 202.985 11.162 202.63 11.162C202.276 11.162 201.944 11.2507 201.636 11.428C201.338 11.6053 201.095 11.8713 200.908 12.226C200.722 12.5713 200.628 13.0053 200.628 13.528C200.628 14.0507 200.722 14.4893 200.908 14.844C201.095 15.1893 201.338 15.4507 201.636 15.628C201.935 15.8053 202.262 15.894 202.616 15.894ZM207.469 17V10.056H208.799L208.925 11.372C209.168 10.9147 209.504 10.5553 209.933 10.294C210.372 10.0233 210.899 9.888 211.515 9.888V11.442H211.109C210.699 11.442 210.33 11.512 210.003 11.652C209.686 11.7827 209.429 12.0113 209.233 12.338C209.047 12.6553 208.953 13.0987 208.953 13.668V17H207.469Z" fill="#A3AED0"/>
<line y1="13.5" x2="182" y2="13.5" stroke="#E0E5F2"/>
<line x1="227" y1="13.5" x2="410" y2="13.5" stroke="#E0E5F2"/>
</svg>
