<svg width="120" height="15" viewBox="0 0 120 15" fill="none" xmlns="http://www.w3.org/2000/svg">
<path d="M4.228 11.168C3.50933 11.168 2.87933 11.042 2.338 10.79C1.79667 10.538 1.372 10.1787 1.064 9.712C0.765333 9.24533 0.611333 8.69 0.602 8.046H2.17C2.17933 8.56867 2.36133 9.012 2.716 9.376C3.07067 9.74 3.57 9.922 4.214 9.922C4.78333 9.922 5.22667 9.78667 5.544 9.516C5.87067 9.236 6.034 8.88133 6.034 8.452C6.034 8.10667 5.95467 7.82667 5.796 7.612C5.64667 7.39733 5.43667 7.22 5.166 7.08C4.90467 6.94 4.60133 6.814 4.256 6.702C3.91067 6.59 3.54667 6.46867 3.164 6.338C2.408 6.086 1.83867 5.75933 1.456 5.358C1.08267 4.95667 0.896 4.42933 0.896 3.776C0.886667 3.22533 1.01267 2.74467 1.274 2.334C1.54467 1.92333 1.918 1.606 2.394 1.382C2.87933 1.14867 3.444 1.032 4.088 1.032C4.72267 1.032 5.278 1.14867 5.754 1.382C6.23933 1.61533 6.61733 1.942 6.888 2.362C7.15867 2.77267 7.29867 3.25333 7.308 3.804H5.74C5.74 3.552 5.67467 3.314 5.544 3.09C5.41333 2.85667 5.222 2.66533 4.97 2.516C4.718 2.36667 4.41 2.292 4.046 2.292C3.57933 2.28267 3.192 2.39933 2.884 2.642C2.58533 2.88467 2.436 3.22067 2.436 3.65C2.436 4.03267 2.548 4.32667 2.772 4.532C2.996 4.73733 3.304 4.91 3.696 5.05C4.088 5.18067 4.536 5.33467 5.04 5.512C5.52533 5.67067 5.95933 5.862 6.342 6.086C6.72467 6.31 7.028 6.604 7.252 6.968C7.48533 7.332 7.602 7.794 7.602 8.354C7.602 8.84867 7.476 9.31067 7.224 9.74C6.972 10.16 6.594 10.5053 6.09 10.776C5.586 11.0373 4.96533 11.168 4.228 11.168ZM12.1365 11.168C11.4551 11.168 10.8485 11.0187 10.3165 10.72C9.7938 10.412 9.38314 9.98733 9.08447 9.446C8.7858 8.90467 8.63647 8.27467 8.63647 7.556C8.63647 6.828 8.78114 6.18867 9.07047 5.638C9.36914 5.08733 9.7798 4.658 10.3025 4.35C10.8345 4.042 11.4505 3.888 12.1505 3.888C12.8318 3.888 13.4245 4.042 13.9285 4.35C14.4325 4.64867 14.8245 5.05 15.1045 5.554C15.3845 6.058 15.5245 6.61333 15.5245 7.22C15.5245 7.31333 15.5198 7.416 15.5105 7.528C15.5105 7.63067 15.5058 7.74733 15.4965 7.878H10.0925C10.1391 8.55 10.3585 9.06333 10.7505 9.418C11.1518 9.76333 11.6138 9.936 12.1365 9.936C12.5565 9.936 12.9065 9.84267 13.1865 9.656C13.4758 9.46 13.6905 9.19867 13.8305 8.872H15.3145C15.1278 9.52533 14.7545 10.0713 14.1945 10.51C13.6438 10.9487 12.9578 11.168 12.1365 11.168ZM12.1365 5.106C11.6418 5.106 11.2031 5.25533 10.8205 5.554C10.4378 5.84333 10.2045 6.282 10.1205 6.87H14.0405C14.0125 6.32867 13.8211 5.89933 13.4665 5.582C13.1118 5.26467 12.6685 5.106 12.1365 5.106ZM20.0322 11.168C19.3509 11.168 18.7442 11.0187 18.2122 10.72C17.6896 10.412 17.2789 9.98733 16.9802 9.446C16.6816 8.90467 16.5322 8.27467 16.5322 7.556C16.5322 6.828 16.6769 6.18867 16.9662 5.638C17.2649 5.08733 17.6756 4.658 18.1982 4.35C18.7302 4.042 19.3462 3.888 20.0462 3.888C20.7276 3.888 21.3202 4.042 21.8242 4.35C22.3282 4.64867 22.7203 5.05 23.0003 5.554C23.2802 6.058 23.4202 6.61333 23.4202 7.22C23.4202 7.31333 23.4156 7.416 23.4062 7.528C23.4062 7.63067 23.4016 7.74733 23.3923 7.878H17.9882C18.0349 8.55 18.2542 9.06333 18.6462 9.418C19.0476 9.76333 19.5096 9.936 20.0322 9.936C20.4522 9.936 20.8022 9.84267 21.0822 9.656C21.3716 9.46 21.5862 9.19867 21.7262 8.872H23.2102C23.0236 9.52533 22.6503 10.0713 22.0902 10.51C21.5396 10.9487 20.8536 11.168 20.0322 11.168ZM20.0322 5.106C19.5376 5.106 19.0989 5.25533 18.7162 5.554C18.3336 5.84333 18.1002 6.282 18.0162 6.87H21.9363C21.9082 6.32867 21.7169 5.89933 21.3622 5.582C21.0076 5.26467 20.5642 5.106 20.0322 5.106ZM27.9274 14.08V4.056H29.2574L29.4114 5.134C29.6354 4.80733 29.9434 4.518 30.3354 4.266C30.7274 4.014 31.2314 3.888 31.8474 3.888C32.5194 3.888 33.112 4.04667 33.6254 4.364C34.1387 4.68133 34.54 5.11533 34.8294 5.666C35.128 6.21667 35.2774 6.842 35.2774 7.542C35.2774 8.242 35.128 8.86733 34.8294 9.418C34.54 9.95933 34.1387 10.3887 33.6254 10.706C33.112 11.014 32.5147 11.168 31.8334 11.168C31.292 11.168 30.8114 11.0607 30.3914 10.846C29.9807 10.6313 29.654 10.328 29.4114 9.936V14.08H27.9274ZM31.5814 9.88C32.216 9.88 32.7387 9.66533 33.1494 9.236C33.56 8.79733 33.7654 8.228 33.7654 7.528C33.7654 7.07067 33.672 6.66467 33.4854 6.31C33.2987 5.95533 33.042 5.68 32.7154 5.484C32.3887 5.27867 32.0107 5.176 31.5814 5.176C30.9467 5.176 30.424 5.39533 30.0134 5.834C29.612 6.27267 29.4114 6.83733 29.4114 7.528C29.4114 8.228 29.612 8.79733 30.0134 9.236C30.424 9.66533 30.9467 9.88 31.5814 9.88ZM36.6025 11V4.056H37.9325L38.0585 5.372C38.3011 4.91467 38.6371 4.55533 39.0665 4.294C39.5051 4.02333 40.0325 3.888 40.6485 3.888V5.442H40.2425C39.8318 5.442 39.4631 5.512 39.1365 5.652C38.8191 5.78267 38.5625 6.01133 38.3665 6.338C38.1798 6.65533 38.0865 7.09867 38.0865 7.668V11H36.6025ZM44.6974 11.168C44.0347 11.168 43.4374 11.0187 42.9054 10.72C42.3827 10.412 41.9674 9.98733 41.6594 9.446C41.3514 8.89533 41.1974 8.256 41.1974 7.528C41.1974 6.8 41.3514 6.16533 41.6594 5.624C41.9767 5.07333 42.4014 4.64867 42.9334 4.35C43.4654 4.042 44.0581 3.888 44.7114 3.888C45.3741 3.888 45.9667 4.042 46.4894 4.35C47.0214 4.64867 47.4414 5.07333 47.7494 5.624C48.0667 6.16533 48.2254 6.8 48.2254 7.528C48.2254 8.256 48.0667 8.89533 47.7494 9.446C47.4414 9.98733 47.0214 10.412 46.4894 10.72C45.9574 11.0187 45.3601 11.168 44.6974 11.168ZM44.6974 9.894C45.0521 9.894 45.3787 9.80533 45.6774 9.628C45.9854 9.45067 46.2327 9.18933 46.4194 8.844C46.6061 8.48933 46.6994 8.05067 46.6994 7.528C46.6994 7.00533 46.6061 6.57133 46.4194 6.226C46.2421 5.87133 45.9994 5.60533 45.6914 5.428C45.3927 5.25067 45.0661 5.162 44.7114 5.162C44.3567 5.162 44.0254 5.25067 43.7174 5.428C43.4187 5.60533 43.1761 5.87133 42.9894 6.226C42.8027 6.57133 42.7094 7.00533 42.7094 7.528C42.7094 8.05067 42.8027 8.48933 42.9894 8.844C43.1761 9.18933 43.4187 9.45067 43.7174 9.628C44.0161 9.80533 44.3427 9.894 44.6974 9.894ZM50.4323 2.74C50.1523 2.74 49.9189 2.656 49.7323 2.488C49.5549 2.31067 49.4663 2.09133 49.4663 1.83C49.4663 1.56867 49.5549 1.354 49.7323 1.186C49.9189 1.00867 50.1523 0.92 50.4323 0.92C50.7123 0.92 50.9409 1.00867 51.1183 1.186C51.3049 1.354 51.3983 1.56867 51.3983 1.83C51.3983 2.09133 51.3049 2.31067 51.1183 2.488C50.9409 2.656 50.7123 2.74 50.4323 2.74ZM48.2203 14.08V12.82H48.7663C49.0929 12.82 49.3263 12.75 49.4663 12.61C49.6063 12.4793 49.6763 12.2553 49.6763 11.938V4.056H51.1603V11.952C51.1603 12.708 50.9689 13.2493 50.5863 13.576C50.2036 13.912 49.6716 14.08 48.9903 14.08H48.2203ZM56.0866 11.168C55.4053 11.168 54.7986 11.0187 54.2666 10.72C53.744 10.412 53.3333 9.98733 53.0346 9.446C52.736 8.90467 52.5866 8.27467 52.5866 7.556C52.5866 6.828 52.7313 6.18867 53.0206 5.638C53.3193 5.08733 53.73 4.658 54.2526 4.35C54.7846 4.042 55.4006 3.888 56.1006 3.888C56.782 3.888 57.3746 4.042 57.8786 4.35C58.3826 4.64867 58.7746 5.05 59.0546 5.554C59.3346 6.058 59.4746 6.61333 59.4746 7.22C59.4746 7.31333 59.47 7.416 59.4606 7.528C59.4606 7.63067 59.456 7.74733 59.4466 7.878H54.0426C54.0893 8.55 54.3086 9.06333 54.7006 9.418C55.102 9.76333 55.564 9.936 56.0866 9.936C56.5066 9.936 56.8566 9.84267 57.1366 9.656C57.426 9.46 57.6406 9.19867 57.7806 8.872H59.2646C59.078 9.52533 58.7046 10.0713 58.1446 10.51C57.594 10.9487 56.908 11.168 56.0866 11.168ZM56.0866 5.106C55.592 5.106 55.1533 5.25533 54.7706 5.554C54.388 5.84333 54.1546 6.282 54.0706 6.87H57.9906C57.9626 6.32867 57.7713 5.89933 57.4166 5.582C57.062 5.26467 56.6186 5.106 56.0866 5.106ZM64.0244 11.168C63.3431 11.168 62.7317 11.014 62.1904 10.706C61.6584 10.398 61.2384 9.97333 60.9304 9.432C60.6317 8.88133 60.4824 8.24667 60.4824 7.528C60.4824 6.80933 60.6317 6.17933 60.9304 5.638C61.2384 5.08733 61.6584 4.658 62.1904 4.35C62.7317 4.042 63.3431 3.888 64.0244 3.888C64.8831 3.888 65.6017 4.112 66.1804 4.56C66.7684 5.008 67.1464 5.61467 67.3144 6.38H65.7604C65.6671 5.99733 65.4617 5.69867 65.1444 5.484C64.8271 5.26933 64.4537 5.162 64.0244 5.162C63.6604 5.162 63.3244 5.25533 63.0164 5.442C62.7084 5.61933 62.4611 5.88533 62.2744 6.24C62.0877 6.58533 61.9944 7.01467 61.9944 7.528C61.9944 8.04133 62.0877 8.47533 62.2744 8.83C62.4611 9.17533 62.7084 9.44133 63.0164 9.628C63.3244 9.81467 63.6604 9.908 64.0244 9.908C64.4537 9.908 64.8271 9.80067 65.1444 9.586C65.4617 9.37133 65.6671 9.068 65.7604 8.676H67.3144C67.1557 9.42267 66.7824 10.0247 66.1944 10.482C65.6064 10.9393 64.8831 11.168 64.0244 11.168ZM71.4191 11C70.7378 11 70.1965 10.8367 69.7951 10.51C69.3938 10.174 69.1931 9.58133 69.1931 8.732V5.302H68.0031V4.056H69.1931L69.3751 2.292H70.6771V4.056H72.6371V5.302H70.6771V8.732C70.6771 9.11467 70.7565 9.38067 70.9151 9.53C71.0831 9.67 71.3678 9.74 71.7691 9.74H72.5671V11H71.4191ZM80.2986 11.168C79.6266 11.168 79.034 11.0093 78.5206 10.692C78.0073 10.3747 77.606 9.94067 77.3166 9.39C77.0273 8.83933 76.8826 8.214 76.8826 7.514C76.8826 6.814 77.0273 6.19333 77.3166 5.652C77.606 5.10133 78.0073 4.672 78.5206 4.364C79.0433 4.04667 79.6406 3.888 80.3126 3.888C80.8633 3.888 81.344 3.99533 81.7546 4.21C82.1746 4.42467 82.5013 4.728 82.7346 5.12V0.92H84.2186V11H82.8886L82.7346 9.922C82.5106 10.2487 82.2026 10.538 81.8106 10.79C81.4186 11.042 80.9146 11.168 80.2986 11.168ZM80.5646 9.88C81.1993 9.88 81.7173 9.66067 82.1186 9.222C82.5293 8.78333 82.7346 8.21867 82.7346 7.528C82.7346 6.828 82.5293 6.26333 82.1186 5.834C81.7173 5.39533 81.1993 5.176 80.5646 5.176C79.93 5.176 79.4073 5.39533 78.9966 5.834C78.586 6.26333 78.3806 6.828 78.3806 7.528C78.3806 7.98533 78.474 8.39133 78.6606 8.746C78.8473 9.10067 79.104 9.38067 79.4306 9.586C79.7666 9.782 80.1446 9.88 80.5646 9.88ZM89.0577 11.168C88.3764 11.168 87.7697 11.0187 87.2377 10.72C86.7151 10.412 86.3044 9.98733 86.0057 9.446C85.7071 8.90467 85.5577 8.27467 85.5577 7.556C85.5577 6.828 85.7024 6.18867 85.9917 5.638C86.2904 5.08733 86.7011 4.658 87.2237 4.35C87.7557 4.042 88.3717 3.888 89.0717 3.888C89.7531 3.888 90.3457 4.042 90.8497 4.35C91.3537 4.64867 91.7457 5.05 92.0257 5.554C92.3057 6.058 92.4457 6.61333 92.4457 7.22C92.4457 7.31333 92.4411 7.416 92.4317 7.528C92.4317 7.63067 92.4271 7.74733 92.4177 7.878H87.0137C87.0604 8.55 87.2797 9.06333 87.6717 9.418C88.0731 9.76333 88.5351 9.936 89.0577 9.936C89.4777 9.936 89.8277 9.84267 90.1077 9.656C90.3971 9.46 90.6117 9.19867 90.7517 8.872H92.2357C92.0491 9.52533 91.6757 10.0713 91.1157 10.51C90.5651 10.9487 89.8791 11.168 89.0577 11.168ZM89.0577 5.106C88.5631 5.106 88.1244 5.25533 87.7417 5.554C87.3591 5.84333 87.1257 6.282 87.0417 6.87H90.9617C90.9337 6.32867 90.7424 5.89933 90.3877 5.582C90.0331 5.26467 89.5897 5.106 89.0577 5.106ZM96.4398 11C95.7584 11 95.2171 10.8367 94.8158 10.51C94.4144 10.174 94.2138 9.58133 94.2138 8.732V5.302H93.0238V4.056H94.2138L94.3958 2.292H95.6978V4.056H97.6578V5.302H95.6978V8.732C95.6978 9.11467 95.7771 9.38067 95.9358 9.53C96.1038 9.67 96.3884 9.74 96.7898 9.74H97.5878V11H96.4398ZM101.26 11.168C100.672 11.168 100.187 11.07 99.8039 10.874C99.4213 10.678 99.1366 10.4213 98.9499 10.104C98.7633 9.77733 98.6699 9.42267 98.6699 9.04C98.6699 8.368 98.9313 7.836 99.4539 7.444C99.9766 7.052 100.723 6.856 101.694 6.856H103.514V6.73C103.514 6.18867 103.365 5.78267 103.066 5.512C102.777 5.24133 102.399 5.106 101.932 5.106C101.521 5.106 101.162 5.20867 100.854 5.414C100.555 5.61 100.373 5.904 100.308 6.296H98.8239C98.8706 5.792 99.0386 5.36267 99.3279 5.008C99.6266 4.644 99.9999 4.36867 100.448 4.182C100.905 3.986 101.405 3.888 101.946 3.888C102.917 3.888 103.668 4.14467 104.2 4.658C104.732 5.162 104.998 5.85267 104.998 6.73V11H103.71L103.584 9.81C103.388 10.1927 103.103 10.5147 102.73 10.776C102.357 11.0373 101.867 11.168 101.26 11.168ZM101.554 9.964C101.955 9.964 102.291 9.87067 102.562 9.684C102.842 9.488 103.057 9.23133 103.206 8.914C103.365 8.59667 103.463 8.24667 103.5 7.864H101.848C101.26 7.864 100.84 7.96667 100.588 8.172C100.345 8.37733 100.224 8.634 100.224 8.942C100.224 9.25933 100.341 9.51133 100.574 9.698C100.817 9.87533 101.143 9.964 101.554 9.964ZM107.288 2.74C107.008 2.74 106.775 2.656 106.588 2.488C106.411 2.31067 106.322 2.09133 106.322 1.83C106.322 1.56867 106.411 1.354 106.588 1.186C106.775 1.00867 107.008 0.92 107.288 0.92C107.568 0.92 107.797 1.00867 107.974 1.186C108.161 1.354 108.254 1.56867 108.254 1.83C108.254 2.09133 108.161 2.31067 107.974 2.488C107.797 2.656 107.568 2.74 107.288 2.74ZM106.546 11V4.056H108.03V11H106.546ZM109.709 11V0.92H111.193V11H109.709ZM115.565 11.168C114.687 11.168 113.964 10.9533 113.395 10.524C112.825 10.0947 112.499 9.52533 112.415 8.816H113.913C113.987 9.13333 114.165 9.40867 114.445 9.642C114.725 9.866 115.093 9.978 115.551 9.978C115.999 9.978 116.325 9.88467 116.531 9.698C116.736 9.51133 116.839 9.29667 116.839 9.054C116.839 8.69933 116.694 8.46133 116.405 8.34C116.125 8.20933 115.733 8.09267 115.229 7.99C114.837 7.906 114.445 7.794 114.053 7.654C113.67 7.514 113.348 7.318 113.087 7.066C112.835 6.80467 112.709 6.45467 112.709 6.016C112.709 5.40933 112.942 4.90533 113.409 4.504C113.875 4.09333 114.529 3.888 115.369 3.888C116.143 3.888 116.769 4.07467 117.245 4.448C117.73 4.82133 118.015 5.34867 118.099 6.03H116.671C116.624 5.73133 116.484 5.498 116.251 5.33C116.027 5.162 115.723 5.078 115.341 5.078C114.967 5.078 114.678 5.15733 114.473 5.316C114.267 5.46533 114.165 5.66133 114.165 5.904C114.165 6.14667 114.305 6.338 114.585 6.478C114.874 6.618 115.252 6.744 115.719 6.856C116.185 6.95867 116.615 7.08 117.007 7.22C117.408 7.35067 117.73 7.54667 117.973 7.808C118.215 8.06933 118.337 8.452 118.337 8.956C118.346 9.59067 118.099 10.118 117.595 10.538C117.1 10.958 116.423 11.168 115.565 11.168Z" fill="#4318FF"/>
<path d="M0 12.75H7.952V13.45H0V12.75ZM7.95047 12.75H15.8465V13.45H7.95047V12.75ZM15.8462 12.75H23.7423V13.45H15.8462V12.75ZM23.742 12.75H26.99V13.45H23.742V12.75ZM26.9894 12.75H35.6694V13.45H26.9894V12.75ZM35.6645 12.75H40.7045V13.45H35.6645V12.75ZM40.5114 12.75H48.6174V13.45H40.5114V12.75ZM48.6123 12.75H51.9023V13.45H48.6123V12.75ZM51.9006 12.75H59.7966V13.45H51.9006V12.75ZM59.7964 12.75H67.7064V13.45H59.7964V12.75ZM67.5691 12.75H76.1973V13.45H67.5691V12.75ZM76.1966 12.75H84.8766V13.45H76.1966V12.75ZM84.8717 12.75H92.7677V13.45H84.8717V12.75ZM92.5898 12.75H105.516V13.45H92.5898V12.75ZM105.51 12.75H108.772V13.45H105.51V12.75ZM108.771 12.75H119.023V13.45H108.771V12.75Z" fill="#4318FF"/>
</svg>
