<svg width="79" height="40" viewBox="0 0 79 40" fill="none" xmlns="http://www.w3.org/2000/svg">
<rect width="79" height="40" rx="20" fill="#F4F7FE"/>
<path d="M16.322 25L19.906 15.2H21.922L25.506 25H23.602L22.818 22.732H18.996L18.198 25H16.322ZM19.486 21.332H22.328L20.9 17.258L19.486 21.332ZM26.4464 28.08V18.056H28.0424L28.2384 19.05C28.4624 18.742 28.7564 18.4713 29.1204 18.238C29.4937 18.0047 29.9744 17.888 30.5624 17.888C31.2157 17.888 31.7991 18.0467 32.3124 18.364C32.8257 18.6813 33.2317 19.1153 33.5304 19.666C33.8291 20.2167 33.9784 20.842 33.9784 21.542C33.9784 22.242 33.8291 22.8673 33.5304 23.418C33.2317 23.9593 32.8257 24.3887 32.3124 24.706C31.7991 25.014 31.2157 25.168 30.5624 25.168C30.0397 25.168 29.5824 25.07 29.1904 24.874C28.7984 24.678 28.4811 24.4027 28.2384 24.048V28.08H26.4464ZM30.1844 23.6C30.7537 23.6 31.2251 23.4087 31.5984 23.026C31.9717 22.6433 32.1584 22.1487 32.1584 21.542C32.1584 20.9353 31.9717 20.436 31.5984 20.044C31.2251 19.652 30.7537 19.456 30.1844 19.456C29.6057 19.456 29.1297 19.652 28.7564 20.044C28.3924 20.4267 28.2104 20.9213 28.2104 21.528C28.2104 22.1347 28.3924 22.634 28.7564 23.026C29.1297 23.4087 29.6057 23.6 30.1844 23.6ZM35.2992 25V18.056H36.8952L37.0632 19.358C37.3152 18.91 37.6559 18.5553 38.0852 18.294C38.5239 18.0233 39.0372 17.888 39.6252 17.888V19.778H39.1212C38.7292 19.778 38.3792 19.8387 38.0712 19.96C37.7632 20.0813 37.5206 20.2913 37.3432 20.59C37.1752 20.8887 37.0912 21.304 37.0912 21.836V25H35.2992ZM41.536 16.978C41.2093 16.978 40.9387 16.88 40.724 16.684C40.5187 16.488 40.416 16.2407 40.416 15.942C40.416 15.6433 40.5187 15.4007 40.724 15.214C40.9387 15.018 41.2093 14.92 41.536 14.92C41.8627 14.92 42.1287 15.018 42.334 15.214C42.5487 15.4007 42.656 15.6433 42.656 15.942C42.656 16.2407 42.5487 16.488 42.334 16.684C42.1287 16.88 41.8627 16.978 41.536 16.978ZM40.64 25V18.056H42.432V25H40.64ZM44.0224 25V14.92H45.8144V25H44.0224Z" fill="#4318FF"/>
<path d="M54.75 17.75L59 22.25L63.25 17.75" stroke="#4318FF" stroke-width="1.5" stroke-linecap="round" stroke-linejoin="round"/>
</svg>
