<svg width="78" height="40" viewBox="0 0 78 40" fill="none" xmlns="http://www.w3.org/2000/svg">
<path d="M16.714 25V23.698C17.3113 23.2033 17.89 22.7133 18.45 22.228C19.0193 21.7427 19.5233 21.262 19.962 20.786C20.41 20.31 20.7647 19.848 21.026 19.4C21.2967 18.9427 21.432 18.4993 21.432 18.07C21.432 17.6687 21.32 17.314 21.096 17.006C20.8813 16.698 20.522 16.544 20.018 16.544C19.5047 16.544 19.1173 16.712 18.856 17.048C18.5947 17.384 18.464 17.79 18.464 18.266H16.728C16.7467 17.5473 16.9053 16.95 17.204 16.474C17.5027 15.9887 17.8993 15.6293 18.394 15.396C18.8887 15.1533 19.444 15.032 20.06 15.032C21.0587 15.032 21.8333 15.3073 22.384 15.858C22.944 16.3993 23.224 17.104 23.224 17.972C23.224 18.5133 23.098 19.0407 22.846 19.554C22.6033 20.0673 22.2813 20.562 21.88 21.038C21.4787 21.514 21.0447 21.962 20.578 22.382C20.1113 22.7927 19.6587 23.1753 19.22 23.53H23.462V25H16.714ZM28.6197 25.168C27.7144 25.168 26.9397 24.958 26.2957 24.538C25.6517 24.1087 25.1524 23.516 24.7977 22.76C24.4524 21.9947 24.2797 21.108 24.2797 20.1C24.2797 19.1013 24.4524 18.2193 24.7977 17.454C25.1524 16.6887 25.6517 16.096 26.2957 15.676C26.9397 15.2467 27.7144 15.032 28.6197 15.032C29.525 15.032 30.2997 15.2467 30.9437 15.676C31.5877 16.096 32.0824 16.6887 32.4277 17.454C32.7824 18.2193 32.9597 19.1013 32.9597 20.1C32.9597 21.108 32.7824 21.9947 32.4277 22.76C32.0824 23.516 31.5877 24.1087 30.9437 24.538C30.2997 24.958 29.525 25.168 28.6197 25.168ZM28.6197 23.558C29.357 23.558 29.959 23.25 30.4257 22.634C30.8924 22.018 31.1257 21.1733 31.1257 20.1C31.1257 19.0267 30.8924 18.182 30.4257 17.566C29.959 16.95 29.357 16.642 28.6197 16.642C27.873 16.642 27.2664 16.95 26.7997 17.566C26.3424 18.182 26.1137 19.0267 26.1137 20.1C26.1137 21.1733 26.3424 22.018 26.7997 22.634C27.2664 23.25 27.873 23.558 28.6197 23.558ZM33.9548 25V23.698C34.5521 23.2033 35.1308 22.7133 35.6908 22.228C36.2601 21.7427 36.7641 21.262 37.2028 20.786C37.6508 20.31 38.0054 19.848 38.2668 19.4C38.5374 18.9427 38.6728 18.4993 38.6728 18.07C38.6728 17.6687 38.5608 17.314 38.3368 17.006C38.1221 16.698 37.7628 16.544 37.2588 16.544C36.7454 16.544 36.3581 16.712 36.0968 17.048C35.8354 17.384 35.7048 17.79 35.7048 18.266H33.9688C33.9874 17.5473 34.1461 16.95 34.4448 16.474C34.7434 15.9887 35.1401 15.6293 35.6348 15.396C36.1294 15.1533 36.6848 15.032 37.3008 15.032C38.2994 15.032 39.0741 15.3073 39.6248 15.858C40.1848 16.3993 40.4648 17.104 40.4648 17.972C40.4648 18.5133 40.3388 19.0407 40.0868 19.554C39.8441 20.0673 39.5221 20.562 39.1208 21.038C38.7194 21.514 38.2854 21.962 37.8188 22.382C37.3521 22.7927 36.8994 23.1753 36.4608 23.53H40.7028V25H33.9548ZM42.9748 25V17.244L41.3648 17.622V16.25L43.7308 15.2H44.8368V25H42.9748Z" fill="#2B3674"/>
<g opacity="0.3">
<path d="M53.75 17.75L58 22.25L62.25 17.75" stroke="#2B3674" stroke-width="1.5" stroke-linecap="round" stroke-linejoin="round"/>
</g>
</svg>
