<svg width="341" height="39" viewBox="0 0 341 39" fill="none" xmlns="http://www.w3.org/2000/svg">
<rect y="29" width="341" height="10" rx="5" fill="#E9EDF7"/>
<rect y="29" width="230" height="10" rx="5" fill="#4318FF"/>
<path d="M3.798 17V15.936C4.43267 15.432 5.03933 14.9233 5.618 14.41C6.19667 13.8967 6.71 13.3927 7.158 12.898C7.61533 12.394 7.97467 11.904 8.236 11.428C8.49733 10.9427 8.628 10.476 8.628 10.028C8.628 9.72933 8.57667 9.44933 8.474 9.188C8.37133 8.91733 8.20333 8.70267 7.97 8.544C7.73667 8.376 7.424 8.292 7.032 8.292C6.444 8.292 6.00067 8.47867 5.702 8.852C5.41267 9.22533 5.27267 9.67333 5.282 10.196H3.84C3.84933 9.50533 3.994 8.92667 4.274 8.46C4.56333 7.99333 4.946 7.63867 5.422 7.396C5.90733 7.15333 6.45333 7.032 7.06 7.032C7.984 7.032 8.72133 7.29333 9.272 7.816C9.832 8.32933 10.112 9.048 10.112 9.972C10.112 10.5227 9.97667 11.0687 9.706 11.61C9.44467 12.1513 9.09933 12.674 8.67 13.178C8.25 13.6727 7.79733 14.1393 7.312 14.578C6.82667 15.0167 6.36467 15.4133 5.926 15.768H10.406V17H3.798ZM15.1417 17.168C14.4511 17.168 13.8537 17.0467 13.3497 16.804C12.8457 16.552 12.4444 16.2113 12.1457 15.782C11.8564 15.3433 11.6791 14.8487 11.6137 14.298H13.0697C13.1631 14.7647 13.3964 15.152 13.7697 15.46C14.1431 15.7587 14.6051 15.908 15.1557 15.908C15.5664 15.908 15.9211 15.81 16.2197 15.614C16.5184 15.4087 16.7517 15.138 16.9197 14.802C17.0877 14.466 17.1717 14.088 17.1717 13.668C17.1717 13.0053 16.9851 12.478 16.6117 12.086C16.2384 11.6847 15.7671 11.484 15.1977 11.484C14.7124 11.484 14.2971 11.6007 13.9517 11.834C13.6064 12.058 13.3544 12.3427 13.1957 12.688H11.7817L12.6217 7.2H17.9137V8.502H13.7417L13.2377 11.12C13.4524 10.8773 13.7464 10.6767 14.1197 10.518C14.5024 10.35 14.9317 10.266 15.4077 10.266C16.0704 10.266 16.6397 10.42 17.1157 10.728C17.5917 11.0267 17.9557 11.4327 18.2077 11.946C18.4691 12.4593 18.5997 13.0287 18.5997 13.654C18.5997 14.3073 18.4597 14.9 18.1797 15.432C17.8997 15.964 17.4984 16.3887 16.9757 16.706C16.4624 17.014 15.8511 17.168 15.1417 17.168ZM20.6047 17.084C20.3247 17.084 20.0913 16.9953 19.9047 16.818C19.7273 16.6313 19.6387 16.412 19.6387 16.16C19.6387 15.8987 19.7273 15.6793 19.9047 15.502C20.0913 15.3153 20.3247 15.222 20.6047 15.222C20.8847 15.222 21.1133 15.3153 21.2907 15.502C21.468 15.6793 21.5567 15.8987 21.5567 16.16C21.5567 16.412 21.468 16.6313 21.2907 16.818C21.1133 16.9953 20.8847 17.084 20.6047 17.084ZM26.002 17.168C25.2833 17.168 24.6767 17.0327 24.182 16.762C23.6873 16.4913 23.286 16.132 22.978 15.684C22.6793 15.236 22.4647 14.732 22.334 14.172C22.2033 13.612 22.138 13.038 22.138 12.45C22.138 11.3673 22.2873 10.42 22.586 9.608C22.894 8.796 23.3327 8.166 23.902 7.718C24.4713 7.26067 25.162 7.032 25.974 7.032C26.618 7.032 27.1687 7.158 27.626 7.41C28.0833 7.662 28.438 7.998 28.69 8.418C28.9513 8.838 29.11 9.29533 29.166 9.79H27.78C27.696 9.30467 27.4953 8.93133 27.178 8.67C26.8607 8.40867 26.4547 8.278 25.96 8.278C25.2787 8.278 24.714 8.6 24.266 9.244C23.8273 9.87867 23.594 10.8587 23.566 12.184C23.79 11.7733 24.1353 11.4233 24.602 11.134C25.078 10.8447 25.624 10.7 26.24 10.7C26.7907 10.7 27.304 10.8307 27.78 11.092C28.2653 11.3533 28.6573 11.722 28.956 12.198C29.264 12.6647 29.418 13.22 29.418 13.864C29.418 14.4333 29.278 14.97 28.998 15.474C28.718 15.978 28.3213 16.3887 27.808 16.706C27.304 17.014 26.702 17.168 26.002 17.168ZM25.918 15.88C26.31 15.88 26.66 15.796 26.968 15.628C27.276 15.46 27.5187 15.2313 27.696 14.942C27.8733 14.6433 27.962 14.3073 27.962 13.934C27.962 13.3367 27.766 12.8607 27.374 12.506C26.9913 12.1513 26.5013 11.974 25.904 11.974C25.512 11.974 25.1573 12.0627 24.84 12.24C24.532 12.4173 24.2893 12.6553 24.112 12.954C23.9347 13.2433 23.846 13.5653 23.846 13.92C23.846 14.3027 23.9347 14.6433 24.112 14.942C24.2987 15.2313 24.546 15.46 24.854 15.628C25.1713 15.796 25.526 15.88 25.918 15.88ZM38.473 17.168C37.549 17.168 36.7417 16.958 36.051 16.538C35.3604 16.118 34.8237 15.53 34.441 14.774C34.0584 14.018 33.867 13.136 33.867 12.128C33.867 11.1293 34.063 10.2473 34.455 9.482C34.847 8.71667 35.4024 8.11933 36.121 7.69C36.849 7.25133 37.7077 7.032 38.697 7.032C39.817 7.032 40.7504 7.30267 41.497 7.844C42.2437 8.38533 42.729 9.132 42.953 10.084H41.273C41.1237 9.56133 40.8297 9.15067 40.391 8.852C39.9524 8.55333 39.3877 8.404 38.697 8.404C37.6704 8.404 36.863 8.73533 36.275 9.398C35.687 10.0607 35.393 10.9753 35.393 12.142C35.393 13.3087 35.6824 14.2187 36.261 14.872C36.8397 15.5253 37.6097 15.852 38.571 15.852C39.5417 15.852 40.2697 15.5767 40.755 15.026C41.2497 14.4753 41.539 13.7427 41.623 12.828H38.963V11.68H43.121V17H41.763L41.637 15.558C41.3104 16.0713 40.8997 16.468 40.405 16.748C39.9104 17.028 39.2664 17.168 38.473 17.168ZM48.4921 17.168C47.9508 17.168 47.4701 17.0607 47.0501 16.846C46.6395 16.6313 46.3128 16.328 46.0701 15.936L45.9161 17H44.5861V6.92H46.0701V11.134C46.2941 10.8073 46.6021 10.518 46.9941 10.266C47.3861 10.014 47.8901 9.888 48.5061 9.888C49.1781 9.888 49.7708 10.0467 50.2841 10.364C50.7975 10.6813 51.1988 11.1153 51.4881 11.666C51.7868 12.2167 51.9361 12.842 51.9361 13.542C51.9361 14.242 51.7868 14.8673 51.4881 15.418C51.1988 15.9593 50.7975 16.3887 50.2841 16.706C49.7708 17.014 49.1735 17.168 48.4921 17.168ZM48.2401 15.88C48.8748 15.88 49.3975 15.6653 49.8081 15.236C50.2188 14.7973 50.4241 14.228 50.4241 13.528C50.4241 13.0707 50.3308 12.6647 50.1441 12.31C49.9575 11.9553 49.7008 11.68 49.3741 11.484C49.0475 11.2787 48.6695 11.176 48.2401 11.176C47.6055 11.176 47.0828 11.3953 46.6721 11.834C46.2708 12.2727 46.0701 12.8373 46.0701 13.528C46.0701 14.228 46.2708 14.7973 46.6721 15.236C47.0828 15.6653 47.6055 15.88 48.2401 15.88Z" fill="#A3AED0"/>
<path d="M301.41 17.168C300.719 17.168 300.122 17.0467 299.618 16.804C299.114 16.552 298.713 16.2113 298.414 15.782C298.125 15.3433 297.947 14.8487 297.882 14.298H299.338C299.431 14.7647 299.665 15.152 300.038 15.46C300.411 15.7587 300.873 15.908 301.424 15.908C301.835 15.908 302.189 15.81 302.488 15.614C302.787 15.4087 303.02 15.138 303.188 14.802C303.356 14.466 303.44 14.088 303.44 13.668C303.44 13.0053 303.253 12.478 302.88 12.086C302.507 11.6847 302.035 11.484 301.466 11.484C300.981 11.484 300.565 11.6007 300.22 11.834C299.875 12.058 299.623 12.3427 299.464 12.688H298.05L298.89 7.2H304.182V8.502H300.01L299.506 11.12C299.721 10.8773 300.015 10.6767 300.388 10.518C300.771 10.35 301.2 10.266 301.676 10.266C302.339 10.266 302.908 10.42 303.384 10.728C303.86 11.0267 304.224 11.4327 304.476 11.946C304.737 12.4593 304.868 13.0287 304.868 13.654C304.868 14.3073 304.728 14.9 304.448 15.432C304.168 15.964 303.767 16.3887 303.244 16.706C302.731 17.014 302.119 17.168 301.41 17.168ZM310.261 17.168C309.374 17.168 308.609 16.958 307.965 16.538C307.33 16.1087 306.84 15.516 306.495 14.76C306.159 13.9947 305.991 13.108 305.991 12.1C305.991 11.092 306.159 10.21 306.495 9.454C306.84 8.68867 307.33 8.096 307.965 7.676C308.609 7.24667 309.374 7.032 310.261 7.032C311.148 7.032 311.908 7.24667 312.543 7.676C313.178 8.096 313.663 8.68867 313.999 9.454C314.344 10.21 314.517 11.092 314.517 12.1C314.517 13.108 314.344 13.9947 313.999 14.76C313.663 15.516 313.178 16.1087 312.543 16.538C311.908 16.958 311.148 17.168 310.261 17.168ZM310.261 15.838C310.793 15.838 311.264 15.6887 311.675 15.39C312.095 15.0913 312.422 14.662 312.655 14.102C312.888 13.542 313.005 12.8747 313.005 12.1C313.005 11.3253 312.888 10.658 312.655 10.098C312.422 9.538 312.095 9.10867 311.675 8.81C311.264 8.51133 310.793 8.362 310.261 8.362C309.72 8.362 309.244 8.51133 308.833 8.81C308.422 9.10867 308.1 9.538 307.867 10.098C307.634 10.658 307.517 11.3253 307.517 12.1C307.517 12.8747 307.634 13.542 307.867 14.102C308.1 14.662 308.422 15.0913 308.833 15.39C309.244 15.6887 309.72 15.838 310.261 15.838ZM323.394 17.168C322.47 17.168 321.663 16.958 320.972 16.538C320.282 16.118 319.745 15.53 319.362 14.774C318.98 14.018 318.788 13.136 318.788 12.128C318.788 11.1293 318.984 10.2473 319.376 9.482C319.768 8.71667 320.324 8.11933 321.042 7.69C321.77 7.25133 322.629 7.032 323.618 7.032C324.738 7.032 325.672 7.30267 326.418 7.844C327.165 8.38533 327.65 9.132 327.874 10.084H326.194C326.045 9.56133 325.751 9.15067 325.312 8.852C324.874 8.55333 324.309 8.404 323.618 8.404C322.592 8.404 321.784 8.73533 321.196 9.398C320.608 10.0607 320.314 10.9753 320.314 12.142C320.314 13.3087 320.604 14.2187 321.182 14.872C321.761 15.5253 322.531 15.852 323.492 15.852C324.463 15.852 325.191 15.5767 325.676 15.026C326.171 14.4753 326.46 13.7427 326.544 12.828H323.884V11.68H328.042V17H326.684L326.558 15.558C326.232 16.0713 325.821 16.468 325.326 16.748C324.832 17.028 324.188 17.168 323.394 17.168ZM333.413 17.168C332.872 17.168 332.391 17.0607 331.971 16.846C331.561 16.6313 331.234 16.328 330.991 15.936L330.837 17H329.507V6.92H330.991V11.134C331.215 10.8073 331.523 10.518 331.915 10.266C332.307 10.014 332.811 9.888 333.427 9.888C334.099 9.888 334.692 10.0467 335.205 10.364C335.719 10.6813 336.12 11.1153 336.409 11.666C336.708 12.2167 336.857 12.842 336.857 13.542C336.857 14.242 336.708 14.8673 336.409 15.418C336.12 15.9593 335.719 16.3887 335.205 16.706C334.692 17.014 334.095 17.168 333.413 17.168ZM333.161 15.88C333.796 15.88 334.319 15.6653 334.729 15.236C335.14 14.7973 335.345 14.228 335.345 13.528C335.345 13.0707 335.252 12.6647 335.065 12.31C334.879 11.9553 334.622 11.68 334.295 11.484C333.969 11.2787 333.591 11.176 333.161 11.176C332.527 11.176 332.004 11.3953 331.593 11.834C331.192 12.2727 330.991 12.8373 330.991 13.528C330.991 14.228 331.192 14.7973 331.593 15.236C332.004 15.6653 332.527 15.88 333.161 15.88Z" fill="#A3AED0"/>
</svg>
