<svg width="59" height="24" viewBox="0 0 59 24" fill="none" xmlns="http://www.w3.org/2000/svg">
<path d="M3.29 17V8.404H0.392V7.2H7.658V8.404H4.774V17H3.29ZM9.55073 8.74C9.27073 8.74 9.0374 8.656 8.85073 8.488C8.6734 8.31067 8.58473 8.09133 8.58473 7.83C8.58473 7.56867 8.6734 7.354 8.85073 7.186C9.0374 7.00867 9.27073 6.92 9.55073 6.92C9.83073 6.92 10.0594 7.00867 10.2367 7.186C10.4234 7.354 10.5167 7.56867 10.5167 7.83C10.5167 8.09133 10.4234 8.31067 10.2367 8.488C10.0594 8.656 9.83073 8.74 9.55073 8.74ZM8.80873 17V10.056H10.2927V17H8.80873ZM14.8837 17C14.2024 17 13.6611 16.8367 13.2597 16.51C12.8584 16.174 12.6577 15.5813 12.6577 14.732V11.302H11.4677V10.056H12.6577L12.8397 8.292H14.1417V10.056H16.1017V11.302H14.1417V14.732C14.1417 15.1147 14.2211 15.3807 14.3797 15.53C14.5477 15.67 14.8324 15.74 15.2337 15.74H16.0317V17H14.8837ZM17.3519 17V6.92H18.8359V17H17.3519ZM23.6832 17.168C23.0019 17.168 22.3952 17.0187 21.8632 16.72C21.3405 16.412 20.9299 15.9873 20.6312 15.446C20.3325 14.9047 20.1832 14.2747 20.1832 13.556C20.1832 12.828 20.3279 12.1887 20.6172 11.638C20.9159 11.0873 21.3265 10.658 21.8492 10.35C22.3812 10.042 22.9972 9.888 23.6972 9.888C24.3785 9.888 24.9712 10.042 25.4752 10.35C25.9792 10.6487 26.3712 11.05 26.6512 11.554C26.9312 12.058 27.0712 12.6133 27.0712 13.22C27.0712 13.3133 27.0665 13.416 27.0572 13.528C27.0572 13.6307 27.0525 13.7473 27.0432 13.878H21.6392C21.6859 14.55 21.9052 15.0633 22.2972 15.418C22.6985 15.7633 23.1605 15.936 23.6832 15.936C24.1032 15.936 24.4532 15.8427 24.7332 15.656C25.0225 15.46 25.2372 15.1987 25.3772 14.872H26.8612C26.6745 15.5253 26.3012 16.0713 25.7412 16.51C25.1905 16.9487 24.5045 17.168 23.6832 17.168ZM23.6832 11.106C23.1885 11.106 22.7499 11.2553 22.3672 11.554C21.9845 11.8433 21.7512 12.282 21.6672 12.87H25.5872C25.5592 12.3287 25.3679 11.8993 25.0132 11.582C24.6585 11.2647 24.2152 11.106 23.6832 11.106Z" fill="#A3AED0"/>
<path d="M43.12 9.29L47 13.17L50.88 9.29C51.27 8.9 51.9 8.9 52.29 9.29C52.68 9.68 52.68 10.31 52.29 10.7L47.7 15.29C47.31 15.68 46.68 15.68 46.29 15.29L41.7 10.7C41.31 10.31 41.31 9.68 41.7 9.29C42.09 8.91 42.73 8.9 43.12 9.29Z" fill="#A3AED0"/>
</svg>
