<svg width="60" height="55" viewBox="0 0 60 55" fill="none" xmlns="http://www.w3.org/2000/svg">
<ellipse cx="29.1747" cy="47" rx="6.98083" ry="8" fill="#4318FF"/>
<ellipse cx="29.1745" cy="47" rx="4.36301" ry="5" fill="white"/>
<path d="M0.5 6C0.5 2.68629 3.18629 0 6.5 0H53.3861C56.6998 0 59.3861 2.68629 59.3861 6V22.6316C59.3861 25.9453 56.6998 28.6316 53.3861 28.6316H39.6911C36.2648 28.6316 33.0225 30.182 30.8715 32.8489C30.3941 33.4408 29.4921 33.4408 29.0147 32.8489C26.8637 30.182 23.6214 28.6316 20.1951 28.6316H6.5C3.18629 28.6316 0.5 25.9453 0.5 22.6316V6Z" fill="#4318FF"/>
<path d="M11.6119 18.1639V17.3169C10.9005 17.2362 10.3212 16.9869 9.87385 16.5689C9.42652 16.1509 9.19552 15.5899 9.18085 14.8859H10.6659C10.6805 15.1792 10.7685 15.4359 10.9299 15.6559C11.0985 15.8759 11.3259 16.0262 11.6119 16.1069V13.7859C11.5459 13.7639 11.4762 13.7419 11.4029 13.7199C11.3369 13.6979 11.2672 13.6759 11.1939 13.6539C10.5999 13.4486 10.1452 13.1846 9.82985 12.8619C9.52185 12.5392 9.36785 12.1102 9.36785 11.5749C9.36052 10.9442 9.56585 10.4382 9.98385 10.0569C10.4019 9.66824 10.9445 9.44458 11.6119 9.38591V8.49491H12.3489V9.39691C13.0089 9.46291 13.5405 9.69391 13.9439 10.0899C14.3545 10.4786 14.5709 10.9809 14.5929 11.5969H13.0859C13.0785 11.3842 13.0089 11.1899 12.8769 11.0139C12.7522 10.8306 12.5762 10.7022 12.3489 10.6289V12.6749C12.4075 12.6969 12.4662 12.7189 12.5249 12.7409C12.5835 12.7556 12.6422 12.7739 12.7009 12.7959C13.0822 12.9279 13.4305 13.0819 13.7459 13.2579C14.0612 13.4339 14.3142 13.6686 14.5049 13.9619C14.6955 14.2479 14.7909 14.6182 14.7909 15.0729C14.7909 15.4542 14.6955 15.8099 14.5049 16.1399C14.3215 16.4699 14.0465 16.7449 13.6799 16.9649C13.3205 17.1776 12.8769 17.2986 12.3489 17.3279V18.1639H11.6119ZM10.8419 11.4759C10.8419 11.7106 10.9115 11.9012 11.0509 12.0479C11.1902 12.1872 11.3772 12.3082 11.6119 12.4109V10.5849C11.3845 10.6289 11.1975 10.7279 11.0509 10.8819C10.9115 11.0359 10.8419 11.2339 10.8419 11.4759ZM13.2949 15.1719C13.2949 14.8786 13.2069 14.6476 13.0309 14.4789C12.8549 14.3102 12.6275 14.1672 12.3489 14.0499V16.1399C12.6422 16.0959 12.8732 15.9896 13.0419 15.8209C13.2105 15.6522 13.2949 15.4359 13.2949 15.1719ZM16.6353 17.2069V11.1129L15.3703 11.4099V10.3319L17.2293 9.50691H18.0983V17.2069H16.6353ZM22.5283 17.3389C21.817 17.3389 21.2083 17.1739 20.7023 16.8439C20.1963 16.5066 19.804 16.0409 19.5253 15.4469C19.254 14.8456 19.1183 14.1489 19.1183 13.3569C19.1183 12.5722 19.254 11.8792 19.5253 11.2779C19.804 10.6766 20.1963 10.2109 20.7023 9.88091C21.2083 9.54358 21.817 9.37491 22.5283 9.37491C23.2397 9.37491 23.8483 9.54358 24.3543 9.88091C24.8603 10.2109 25.249 10.6766 25.5203 11.2779C25.799 11.8792 25.9383 12.5722 25.9383 13.3569C25.9383 14.1489 25.799 14.8456 25.5203 15.4469C25.249 16.0409 24.8603 16.5066 24.3543 16.8439C23.8483 17.1739 23.2397 17.3389 22.5283 17.3389ZM22.5283 16.0739C23.1077 16.0739 23.5807 15.8319 23.9473 15.3479C24.314 14.8639 24.4973 14.2002 24.4973 13.3569C24.4973 12.5136 24.314 11.8499 23.9473 11.3659C23.5807 10.8819 23.1077 10.6399 22.5283 10.6399C21.9417 10.6399 21.465 10.8819 21.0983 11.3659C20.739 11.8499 20.5593 12.5136 20.5593 13.3569C20.5593 14.2002 20.739 14.8639 21.0983 15.3479C21.465 15.8319 21.9417 16.0739 22.5283 16.0739ZM29.6779 17.3389C29.1499 17.3389 28.6732 17.2472 28.2479 17.0639C27.8226 16.8732 27.4816 16.6056 27.2249 16.2609C26.9756 15.9162 26.8509 15.5166 26.8509 15.0619C26.8509 14.5926 26.9719 14.1819 27.2139 13.8299C27.4632 13.4779 27.7896 13.2249 28.1929 13.0709C27.8409 12.9169 27.5622 12.6969 27.3569 12.4109C27.1516 12.1176 27.0489 11.7912 27.0489 11.4319C27.0489 11.0652 27.1479 10.7279 27.3459 10.4199C27.5439 10.1046 27.8372 9.85158 28.2259 9.66091C28.6219 9.47024 29.1059 9.37491 29.6779 9.37491C30.2499 9.37491 30.7302 9.47024 31.1189 9.66091C31.5076 9.85158 31.8009 10.1046 31.9989 10.4199C32.1969 10.7279 32.2959 11.0652 32.2959 11.4319C32.2959 11.7839 32.1896 12.1102 31.9769 12.4109C31.7716 12.7042 31.4966 12.9242 31.1519 13.0709C31.5626 13.2249 31.8889 13.4779 32.1309 13.8299C32.3729 14.1819 32.4939 14.5926 32.4939 15.0619C32.4939 15.5166 32.3692 15.9162 32.1199 16.2609C31.8706 16.6056 31.5296 16.8732 31.0969 17.0639C30.6716 17.2472 30.1986 17.3389 29.6779 17.3389ZM29.6779 12.6529C30.0592 12.6529 30.3599 12.5539 30.5799 12.3559C30.7999 12.1579 30.9099 11.9049 30.9099 11.5969C30.9099 11.2596 30.7999 10.9956 30.5799 10.8049C30.3672 10.6142 30.0666 10.5189 29.6779 10.5189C29.2819 10.5189 28.9776 10.6142 28.7649 10.8049C28.5522 10.9956 28.4459 11.2596 28.4459 11.5969C28.4459 11.9122 28.5522 12.1689 28.7649 12.3669C28.9849 12.5576 29.2892 12.6529 29.6779 12.6529ZM29.6779 16.1619C30.1472 16.1619 30.5029 16.0482 30.7449 15.8209C30.9869 15.5862 31.1079 15.2929 31.1079 14.9409C31.1079 14.5522 30.9796 14.2479 30.7229 14.0279C30.4736 13.8079 30.1252 13.6979 29.6779 13.6979C29.2306 13.6979 28.8749 13.8079 28.6109 14.0279C28.3542 14.2479 28.2259 14.5522 28.2259 14.9409C28.2259 15.2929 28.3469 15.5862 28.5889 15.8209C28.8382 16.0482 29.2012 16.1619 29.6779 16.1619ZM34.2309 17.2839C33.9742 17.2839 33.7615 17.2032 33.5929 17.0419C33.4315 16.8806 33.3509 16.6862 33.3509 16.4589C33.3509 16.2242 33.4315 16.0262 33.5929 15.8649C33.7615 15.7036 33.9742 15.6229 34.2309 15.6229C34.4875 15.6229 34.6965 15.7036 34.8579 15.8649C35.0265 16.0262 35.1109 16.2242 35.1109 16.4589C35.1109 16.6862 35.0265 16.8806 34.8579 17.0419C34.6965 17.2032 34.4875 17.2839 34.2309 17.2839ZM38.798 17.3389C38.0867 17.3389 37.478 17.1739 36.972 16.8439C36.466 16.5066 36.0737 16.0409 35.795 15.4469C35.5237 14.8456 35.388 14.1489 35.388 13.3569C35.388 12.5722 35.5237 11.8792 35.795 11.2779C36.0737 10.6766 36.466 10.2109 36.972 9.88091C37.478 9.54358 38.0867 9.37491 38.798 9.37491C39.5093 9.37491 40.118 9.54358 40.624 9.88091C41.13 10.2109 41.5187 10.6766 41.79 11.2779C42.0687 11.8792 42.208 12.5722 42.208 13.3569C42.208 14.1489 42.0687 14.8456 41.79 15.4469C41.5187 16.0409 41.13 16.5066 40.624 16.8439C40.118 17.1739 39.5093 17.3389 38.798 17.3389ZM38.798 16.0739C39.3773 16.0739 39.8503 15.8319 40.217 15.3479C40.5837 14.8639 40.767 14.2002 40.767 13.3569C40.767 12.5136 40.5837 11.8499 40.217 11.3659C39.8503 10.8819 39.3773 10.6399 38.798 10.6399C38.2113 10.6399 37.7347 10.8819 37.368 11.3659C37.0087 11.8499 36.829 12.5136 36.829 13.3569C36.829 14.2002 37.0087 14.8639 37.368 15.3479C37.7347 15.8319 38.2113 16.0739 38.798 16.0739ZM46.3876 17.3389C45.6762 17.3389 45.0676 17.1739 44.5616 16.8439C44.0556 16.5066 43.6632 16.0409 43.3846 15.4469C43.1132 14.8456 42.9776 14.1489 42.9776 13.3569C42.9776 12.5722 43.1132 11.8792 43.3846 11.2779C43.6632 10.6766 44.0556 10.2109 44.5616 9.88091C45.0676 9.54358 45.6762 9.37491 46.3876 9.37491C47.0989 9.37491 47.7076 9.54358 48.2136 9.88091C48.7196 10.2109 49.1082 10.6766 49.3796 11.2779C49.6582 11.8792 49.7976 12.5722 49.7976 13.3569C49.7976 14.1489 49.6582 14.8456 49.3796 15.4469C49.1082 16.0409 48.7196 16.5066 48.2136 16.8439C47.7076 17.1739 47.0989 17.3389 46.3876 17.3389ZM46.3876 16.0739C46.9669 16.0739 47.4399 15.8319 47.8066 15.3479C48.1732 14.8639 48.3566 14.2002 48.3566 13.3569C48.3566 12.5136 48.1732 11.8499 47.8066 11.3659C47.4399 10.8819 46.9669 10.6399 46.3876 10.6399C45.8009 10.6399 45.3242 10.8819 44.9576 11.3659C44.5982 11.8499 44.4186 12.5136 44.4186 13.3569C44.4186 14.2002 44.5982 14.8639 44.9576 15.3479C45.3242 15.8319 45.8009 16.0739 46.3876 16.0739Z" fill="white"/>
</svg>
