<svg width="774" height="345" viewBox="0 0 774 345" fill="none" xmlns="http://www.w3.org/2000/svg">
<g clip-path="url(#clip0_201_1835)">
<rect width="774" height="345" rx="20" fill="white"/>
<g filter="url(#filter0_d_201_1835)">
<path d="M213.925 178.282C230.36 173.973 268.826 166.646 291.206 171.818C319.181 178.282 327.924 203.145 349.954 195.686C371.985 188.227 419.892 135.518 453.113 156.9C486.333 178.282 497.174 234.473 538.437 195.686C579.7 156.9 576.203 136.512 610.473 140.49C644.743 144.468 701.043 157.894 721.325 140.49" stroke="#4318FF" stroke-width="4" stroke-linecap="round"/>
</g>
<path d="M213.925 235.756C230.36 231.45 252.041 209.227 274.421 214.394C302.396 220.852 314.286 263.583 336.316 256.131C358.347 248.679 417.183 205.546 453.113 214.394C497.523 225.33 491.229 274.505 532.492 235.756C573.756 197.006 598.933 220.362 633.203 224.336C667.473 228.311 701.043 215.387 721.325 198" stroke="#6AD2FF" stroke-width="4" stroke-linecap="round"/>
<ellipse cx="437.175" cy="152" rx="6.98083" ry="8" fill="#4318FF"/>
<ellipse cx="437.175" cy="152" rx="4.36301" ry="5" fill="white"/>
<path d="M408.5 111C408.5 107.686 411.186 105 414.5 105H461.386C464.7 105 467.386 107.686 467.386 111V127.632C467.386 130.945 464.7 133.632 461.386 133.632H447.691C444.265 133.632 441.022 135.182 438.871 137.849C438.394 138.441 437.492 138.441 437.015 137.849C434.864 135.182 431.621 133.632 428.195 133.632H414.5C411.186 133.632 408.5 130.945 408.5 127.632V111Z" fill="#4318FF"/>
<path d="M419.612 123.164V122.317C418.901 122.236 418.321 121.987 417.874 121.569C417.427 121.151 417.196 120.59 417.181 119.886H418.666C418.681 120.179 418.769 120.436 418.93 120.656C419.099 120.876 419.326 121.026 419.612 121.107V118.786C419.546 118.764 419.476 118.742 419.403 118.72C419.337 118.698 419.267 118.676 419.194 118.654C418.6 118.449 418.145 118.185 417.83 117.862C417.522 117.539 417.368 117.11 417.368 116.575C417.361 115.944 417.566 115.438 417.984 115.057C418.402 114.668 418.945 114.445 419.612 114.386V113.495H420.349V114.397C421.009 114.463 421.541 114.694 421.944 115.09C422.355 115.479 422.571 115.981 422.593 116.597H421.086C421.079 116.384 421.009 116.19 420.877 116.014C420.752 115.831 420.576 115.702 420.349 115.629V117.675C420.408 117.697 420.466 117.719 420.525 117.741C420.584 117.756 420.642 117.774 420.701 117.796C421.082 117.928 421.431 118.082 421.746 118.258C422.061 118.434 422.314 118.669 422.505 118.962C422.696 119.248 422.791 119.618 422.791 120.073C422.791 120.454 422.696 120.81 422.505 121.14C422.322 121.47 422.047 121.745 421.68 121.965C421.321 122.178 420.877 122.299 420.349 122.328V123.164H419.612ZM418.842 116.476C418.842 116.711 418.912 116.901 419.051 117.048C419.19 117.187 419.377 117.308 419.612 117.411V115.585C419.385 115.629 419.198 115.728 419.051 115.882C418.912 116.036 418.842 116.234 418.842 116.476ZM421.295 120.172C421.295 119.879 421.207 119.648 421.031 119.479C420.855 119.31 420.628 119.167 420.349 119.05V121.14C420.642 121.096 420.873 120.99 421.042 120.821C421.211 120.652 421.295 120.436 421.295 120.172ZM424.635 122.207V116.113L423.37 116.41V115.332L425.229 114.507H426.098V122.207H424.635ZM430.528 122.339C429.817 122.339 429.208 122.174 428.702 121.844C428.196 121.507 427.804 121.041 427.525 120.447C427.254 119.846 427.118 119.149 427.118 118.357C427.118 117.572 427.254 116.879 427.525 116.278C427.804 115.677 428.196 115.211 428.702 114.881C429.208 114.544 429.817 114.375 430.528 114.375C431.24 114.375 431.848 114.544 432.354 114.881C432.86 115.211 433.249 115.677 433.52 116.278C433.799 116.879 433.938 117.572 433.938 118.357C433.938 119.149 433.799 119.846 433.52 120.447C433.249 121.041 432.86 121.507 432.354 121.844C431.848 122.174 431.24 122.339 430.528 122.339ZM430.528 121.074C431.108 121.074 431.581 120.832 431.947 120.348C432.314 119.864 432.497 119.2 432.497 118.357C432.497 117.514 432.314 116.85 431.947 116.366C431.581 115.882 431.108 115.64 430.528 115.64C429.942 115.64 429.465 115.882 429.098 116.366C428.739 116.85 428.559 117.514 428.559 118.357C428.559 119.2 428.739 119.864 429.098 120.348C429.465 120.832 429.942 121.074 430.528 121.074ZM437.678 122.339C437.15 122.339 436.673 122.247 436.248 122.064C435.823 121.873 435.482 121.606 435.225 121.261C434.976 120.916 434.851 120.517 434.851 120.062C434.851 119.593 434.972 119.182 435.214 118.83C435.463 118.478 435.79 118.225 436.193 118.071C435.841 117.917 435.562 117.697 435.357 117.411C435.152 117.118 435.049 116.791 435.049 116.432C435.049 116.065 435.148 115.728 435.346 115.42C435.544 115.105 435.837 114.852 436.226 114.661C436.622 114.47 437.106 114.375 437.678 114.375C438.25 114.375 438.73 114.47 439.119 114.661C439.508 114.852 439.801 115.105 439.999 115.42C440.197 115.728 440.296 116.065 440.296 116.432C440.296 116.784 440.19 117.11 439.977 117.411C439.772 117.704 439.497 117.924 439.152 118.071C439.563 118.225 439.889 118.478 440.131 118.83C440.373 119.182 440.494 119.593 440.494 120.062C440.494 120.517 440.369 120.916 440.12 121.261C439.871 121.606 439.53 121.873 439.097 122.064C438.672 122.247 438.199 122.339 437.678 122.339ZM437.678 117.653C438.059 117.653 438.36 117.554 438.58 117.356C438.8 117.158 438.91 116.905 438.91 116.597C438.91 116.26 438.8 115.996 438.58 115.805C438.367 115.614 438.067 115.519 437.678 115.519C437.282 115.519 436.978 115.614 436.765 115.805C436.552 115.996 436.446 116.26 436.446 116.597C436.446 116.912 436.552 117.169 436.765 117.367C436.985 117.558 437.289 117.653 437.678 117.653ZM437.678 121.162C438.147 121.162 438.503 121.048 438.745 120.821C438.987 120.586 439.108 120.293 439.108 119.941C439.108 119.552 438.98 119.248 438.723 119.028C438.474 118.808 438.125 118.698 437.678 118.698C437.231 118.698 436.875 118.808 436.611 119.028C436.354 119.248 436.226 119.552 436.226 119.941C436.226 120.293 436.347 120.586 436.589 120.821C436.838 121.048 437.201 121.162 437.678 121.162ZM442.231 122.284C441.974 122.284 441.762 122.203 441.593 122.042C441.432 121.881 441.351 121.686 441.351 121.459C441.351 121.224 441.432 121.026 441.593 120.865C441.762 120.704 441.974 120.623 442.231 120.623C442.488 120.623 442.697 120.704 442.858 120.865C443.027 121.026 443.111 121.224 443.111 121.459C443.111 121.686 443.027 121.881 442.858 122.042C442.697 122.203 442.488 122.284 442.231 122.284ZM446.798 122.339C446.087 122.339 445.478 122.174 444.972 121.844C444.466 121.507 444.074 121.041 443.795 120.447C443.524 119.846 443.388 119.149 443.388 118.357C443.388 117.572 443.524 116.879 443.795 116.278C444.074 115.677 444.466 115.211 444.972 114.881C445.478 114.544 446.087 114.375 446.798 114.375C447.509 114.375 448.118 114.544 448.624 114.881C449.13 115.211 449.519 115.677 449.79 116.278C450.069 116.879 450.208 117.572 450.208 118.357C450.208 119.149 450.069 119.846 449.79 120.447C449.519 121.041 449.13 121.507 448.624 121.844C448.118 122.174 447.509 122.339 446.798 122.339ZM446.798 121.074C447.377 121.074 447.85 120.832 448.217 120.348C448.584 119.864 448.767 119.2 448.767 118.357C448.767 117.514 448.584 116.85 448.217 116.366C447.85 115.882 447.377 115.64 446.798 115.64C446.211 115.64 445.735 115.882 445.368 116.366C445.009 116.85 444.829 117.514 444.829 118.357C444.829 119.2 445.009 119.864 445.368 120.348C445.735 120.832 446.211 121.074 446.798 121.074ZM454.388 122.339C453.676 122.339 453.068 122.174 452.562 121.844C452.056 121.507 451.663 121.041 451.385 120.447C451.113 119.846 450.978 119.149 450.978 118.357C450.978 117.572 451.113 116.879 451.385 116.278C451.663 115.677 452.056 115.211 452.562 114.881C453.068 114.544 453.676 114.375 454.388 114.375C455.099 114.375 455.708 114.544 456.214 114.881C456.72 115.211 457.108 115.677 457.38 116.278C457.658 116.879 457.798 117.572 457.798 118.357C457.798 119.149 457.658 119.846 457.38 120.447C457.108 121.041 456.72 121.507 456.214 121.844C455.708 122.174 455.099 122.339 454.388 122.339ZM454.388 121.074C454.967 121.074 455.44 120.832 455.807 120.348C456.173 119.864 456.357 119.2 456.357 118.357C456.357 117.514 456.173 116.85 455.807 116.366C455.44 115.882 454.967 115.64 454.388 115.64C453.801 115.64 453.324 115.882 452.958 116.366C452.598 116.85 452.419 117.514 452.419 118.357C452.419 119.2 452.598 119.864 452.958 120.348C453.324 120.832 453.801 121.074 454.388 121.074Z" fill="white"/>
<path d="M214.802 310.144C214.186 310.144 213.646 310.036 213.182 309.82C212.718 309.604 212.354 309.296 212.09 308.896C211.834 308.496 211.702 308.02 211.694 307.468H213.038C213.046 307.916 213.202 308.296 213.506 308.608C213.81 308.92 214.238 309.076 214.79 309.076C215.278 309.076 215.658 308.96 215.93 308.728C216.21 308.488 216.35 308.184 216.35 307.816C216.35 307.52 216.282 307.28 216.146 307.096C216.018 306.912 215.838 306.76 215.606 306.64C215.382 306.52 215.122 306.412 214.826 306.316C214.53 306.22 214.218 306.116 213.89 306.004C213.242 305.788 212.754 305.508 212.426 305.164C212.106 304.82 211.946 304.368 211.946 303.808C211.938 303.336 212.046 302.924 212.27 302.572C212.502 302.22 212.822 301.948 213.23 301.756C213.646 301.556 214.13 301.456 214.682 301.456C215.226 301.456 215.702 301.556 216.11 301.756C216.526 301.956 216.85 302.236 217.082 302.596C217.314 302.948 217.434 303.36 217.442 303.832H216.098C216.098 303.616 216.042 303.412 215.93 303.22C215.818 303.02 215.654 302.856 215.438 302.728C215.222 302.6 214.958 302.536 214.646 302.536C214.246 302.528 213.914 302.628 213.65 302.836C213.394 303.044 213.266 303.332 213.266 303.7C213.266 304.028 213.362 304.28 213.554 304.456C213.746 304.632 214.01 304.78 214.346 304.9C214.682 305.012 215.066 305.144 215.498 305.296C215.914 305.432 216.286 305.596 216.614 305.788C216.942 305.98 217.202 306.232 217.394 306.544C217.594 306.856 217.694 307.252 217.694 307.732C217.694 308.156 217.586 308.552 217.37 308.92C217.154 309.28 216.83 309.576 216.398 309.808C215.966 310.032 215.434 310.144 214.802 310.144ZM218.845 310V301.6H224.185V302.632H220.117V305.248H223.825V306.256H220.117V308.968H224.185V310H218.845ZM225.461 310V301.6H228.401C229.057 301.6 229.601 301.712 230.033 301.936C230.465 302.152 230.785 302.452 230.993 302.836C231.209 303.212 231.317 303.64 231.317 304.12C231.317 304.576 231.213 304.996 231.005 305.38C230.805 305.756 230.489 306.056 230.057 306.28C229.625 306.504 229.073 306.616 228.401 306.616H226.733V310H225.461ZM226.733 305.572H228.341C228.941 305.572 229.369 305.444 229.625 305.188C229.889 304.924 230.021 304.568 230.021 304.12C230.021 303.656 229.889 303.296 229.625 303.04C229.369 302.776 228.941 302.644 228.341 302.644H226.733V305.572Z" fill="#A3AED0"/>
<path d="M311.769 310.144C310.937 310.144 310.209 309.96 309.585 309.592C308.961 309.224 308.473 308.716 308.121 308.068C307.769 307.412 307.593 306.656 307.593 305.8C307.593 304.944 307.769 304.192 308.121 303.544C308.473 302.888 308.961 302.376 309.585 302.008C310.209 301.64 310.937 301.456 311.769 301.456C312.601 301.456 313.329 301.64 313.953 302.008C314.577 302.376 315.061 302.888 315.405 303.544C315.757 304.192 315.933 304.944 315.933 305.8C315.933 306.656 315.757 307.412 315.405 308.068C315.061 308.716 314.577 309.224 313.953 309.592C313.329 309.96 312.601 310.144 311.769 310.144ZM311.769 309.004C312.345 309.004 312.845 308.876 313.269 308.62C313.701 308.364 314.037 307.996 314.277 307.516C314.517 307.036 314.637 306.464 314.637 305.8C314.637 305.136 314.517 304.564 314.277 304.084C314.037 303.604 313.701 303.236 313.269 302.98C312.845 302.724 312.345 302.596 311.769 302.596C311.193 302.596 310.689 302.724 310.257 302.98C309.825 303.236 309.489 303.604 309.249 304.084C309.017 304.564 308.901 305.136 308.901 305.8C308.901 306.464 309.017 307.036 309.249 307.516C309.489 307.996 309.825 308.364 310.257 308.62C310.689 308.876 311.193 309.004 311.769 309.004ZM320.854 310.144C320.022 310.144 319.302 309.964 318.694 309.604C318.094 309.236 317.63 308.728 317.302 308.08C316.974 307.424 316.81 306.668 316.81 305.812C316.81 304.948 316.974 304.192 317.302 303.544C317.63 302.888 318.094 302.376 318.694 302.008C319.302 301.64 320.022 301.456 320.854 301.456C321.838 301.456 322.642 301.696 323.266 302.176C323.89 302.656 324.286 303.328 324.454 304.192H323.038C322.926 303.704 322.686 303.316 322.318 303.028C321.95 302.74 321.458 302.596 320.842 302.596C320.002 302.596 319.338 302.884 318.85 303.46C318.362 304.028 318.118 304.812 318.118 305.812C318.118 306.804 318.362 307.584 318.85 308.152C319.338 308.72 320.002 309.004 320.842 309.004C321.458 309.004 321.95 308.868 322.318 308.596C322.686 308.324 322.926 307.952 323.038 307.48H324.454C324.286 308.312 323.89 308.964 323.266 309.436C322.642 309.908 321.838 310.144 320.854 310.144ZM327.428 310V302.632H324.944V301.6H331.172V302.632H328.7V310H327.428Z" fill="#A3AED0"/>
<path d="M405.284 310V301.6H406.556L410.768 307.924V301.6H412.04V310H410.768L406.556 303.676V310H405.284ZM417.381 310.144C416.549 310.144 415.821 309.96 415.197 309.592C414.573 309.224 414.085 308.716 413.733 308.068C413.381 307.412 413.205 306.656 413.205 305.8C413.205 304.944 413.381 304.192 413.733 303.544C414.085 302.888 414.573 302.376 415.197 302.008C415.821 301.64 416.549 301.456 417.381 301.456C418.213 301.456 418.941 301.64 419.565 302.008C420.189 302.376 420.673 302.888 421.017 303.544C421.369 304.192 421.545 304.944 421.545 305.8C421.545 306.656 421.369 307.412 421.017 308.068C420.673 308.716 420.189 309.224 419.565 309.592C418.941 309.96 418.213 310.144 417.381 310.144ZM417.381 309.004C417.957 309.004 418.457 308.876 418.881 308.62C419.313 308.364 419.649 307.996 419.889 307.516C420.129 307.036 420.249 306.464 420.249 305.8C420.249 305.136 420.129 304.564 419.889 304.084C419.649 303.604 419.313 303.236 418.881 302.98C418.457 302.724 417.957 302.596 417.381 302.596C416.805 302.596 416.301 302.724 415.869 302.98C415.437 303.236 415.101 303.604 414.861 304.084C414.629 304.564 414.513 305.136 414.513 305.8C414.513 306.464 414.629 307.036 414.861 307.516C415.101 307.996 415.437 308.364 415.869 308.62C416.301 308.876 416.805 309.004 417.381 309.004ZM424.901 310L421.793 301.6H423.149L425.669 308.68L428.201 301.6H429.545L426.437 310H424.901Z" fill="#A3AED0"/>
<path d="M504 310V301.6H506.724C507.708 301.6 508.516 301.772 509.148 302.116C509.788 302.46 510.26 302.948 510.564 303.58C510.876 304.204 511.032 304.948 511.032 305.812C511.032 306.668 510.876 307.412 510.564 308.044C510.26 308.668 509.788 309.152 509.148 309.496C508.516 309.832 507.708 310 506.724 310H504ZM505.272 308.92H506.676C507.436 308.92 508.036 308.796 508.476 308.548C508.924 308.3 509.244 307.944 509.436 307.48C509.636 307.016 509.736 306.46 509.736 305.812C509.736 305.164 509.636 304.604 509.436 304.132C509.244 303.66 508.924 303.3 508.476 303.052C508.036 302.796 507.436 302.668 506.676 302.668H505.272V308.92ZM512.197 310V301.6H517.537V302.632H513.469V305.248H517.177V306.256H513.469V308.968H517.537V310H512.197ZM522.557 310.144C521.725 310.144 521.005 309.964 520.397 309.604C519.797 309.236 519.333 308.728 519.005 308.08C518.677 307.424 518.513 306.668 518.513 305.812C518.513 304.948 518.677 304.192 519.005 303.544C519.333 302.888 519.797 302.376 520.397 302.008C521.005 301.64 521.725 301.456 522.557 301.456C523.541 301.456 524.345 301.696 524.969 302.176C525.593 302.656 525.989 303.328 526.157 304.192H524.741C524.629 303.704 524.389 303.316 524.021 303.028C523.653 302.74 523.161 302.596 522.545 302.596C521.705 302.596 521.041 302.884 520.553 303.46C520.065 304.028 519.821 304.812 519.821 305.812C519.821 306.804 520.065 307.584 520.553 308.152C521.041 308.72 521.705 309.004 522.545 309.004C523.161 309.004 523.653 308.868 524.021 308.596C524.389 308.324 524.629 307.952 524.741 307.48H526.157C525.989 308.312 525.593 308.964 524.969 309.436C524.345 309.908 523.541 310.144 522.557 310.144Z" fill="#A3AED0"/>
<path d="M604.632 310.144C603.848 310.144 603.224 309.924 602.76 309.484C602.304 309.044 602.076 308.424 602.076 307.624H603.348C603.348 308.024 603.444 308.356 603.636 308.62C603.836 308.884 604.16 309.016 604.608 309.016C605.048 309.016 605.36 308.892 605.544 308.644C605.728 308.388 605.82 308.064 605.82 307.672V301.6H607.092V307.672C607.092 308.464 606.872 309.076 606.432 309.508C605.992 309.932 605.392 310.144 604.632 310.144ZM607.648 310L610.744 301.6H612.136L615.208 310H613.864L613.144 307.948H609.712L608.992 310H607.648ZM610.072 306.94H612.784L611.428 303.112L610.072 306.94ZM616.139 310V301.6H617.411L621.623 307.924V301.6H622.895V310H621.623L617.411 303.676V310H616.139Z" fill="#A3AED0"/>
<path d="M701.279 310V301.6H706.547V302.632H702.551V305.284H705.863V306.304H702.551V310H701.279ZM707.554 310V301.6H712.894V302.632H708.826V305.248H712.534V306.256H708.826V308.968H712.894V310H707.554ZM714.17 310V301.6H717.338C718.21 301.6 718.87 301.804 719.318 302.212C719.766 302.62 719.99 303.132 719.99 303.748C719.99 304.284 719.846 304.712 719.558 305.032C719.27 305.344 718.922 305.556 718.514 305.668C718.834 305.732 719.118 305.86 719.366 306.052C719.622 306.244 719.822 306.484 719.966 306.772C720.11 307.06 720.182 307.372 720.182 307.708C720.182 308.14 720.074 308.532 719.858 308.884C719.65 309.228 719.342 309.5 718.934 309.7C718.526 309.9 718.026 310 717.434 310H714.17ZM715.442 305.2H717.182C717.67 305.2 718.042 305.088 718.298 304.864C718.554 304.632 718.682 304.316 718.682 303.916C718.682 303.524 718.554 303.212 718.298 302.98C718.05 302.748 717.67 302.632 717.158 302.632H715.442V305.2ZM715.442 308.956H717.266C717.778 308.956 718.174 308.836 718.454 308.596C718.742 308.356 718.886 308.02 718.886 307.588C718.886 307.156 718.738 306.816 718.442 306.568C718.146 306.312 717.746 306.184 717.242 306.184H715.442V308.956Z" fill="#A3AED0"/>
<rect x="709" y="28" width="33" height="33" rx="10" fill="#F4F7FE"/>
<g clip-path="url(#clip1_201_1835)">
<path d="M720.4 42.2H720.6C721.37 42.2 722 42.83 722 43.6V50.6C722 51.37 721.37 52 720.6 52H720.4C719.63 52 719 51.37 719 50.6V43.6C719 42.83 719.63 42.2 720.4 42.2ZM726 38C726.77 38 727.4 38.63 727.4 39.4V50.6C727.4 51.37 726.77 52 726 52C725.23 52 724.6 51.37 724.6 50.6V39.4C724.6 38.63 725.23 38 726 38ZM731.6 46C732.37 46 733 46.63 733 47.4V50.6C733 51.37 732.37 52 731.6 52C730.83 52 730.2 51.37 730.2 50.6V47.4C730.2 46.63 730.83 46 731.6 46Z" fill="#4318FF"/>
</g>
<path d="M34.5942 144.893V136.297H31.6962V135.093H38.9622V136.297H36.0782V144.893H34.5942ZM42.0051 145.061C41.3425 145.061 40.7451 144.912 40.2131 144.613C39.6905 144.305 39.2751 143.88 38.9671 143.339C38.6591 142.788 38.5051 142.149 38.5051 141.421C38.5051 140.693 38.6591 140.058 38.9671 139.517C39.2845 138.966 39.7091 138.542 40.2411 138.243C40.7731 137.935 41.3658 137.781 42.0191 137.781C42.6818 137.781 43.2745 137.935 43.7971 138.243C44.3291 138.542 44.7491 138.966 45.0571 139.517C45.3745 140.058 45.5331 140.693 45.5331 141.421C45.5331 142.149 45.3745 142.788 45.0571 143.339C44.7491 143.88 44.3291 144.305 43.7971 144.613C43.2651 144.912 42.6678 145.061 42.0051 145.061ZM42.0051 143.787C42.3598 143.787 42.6865 143.698 42.9851 143.521C43.2931 143.344 43.5405 143.082 43.7271 142.737C43.9138 142.382 44.0071 141.944 44.0071 141.421C44.0071 140.898 43.9138 140.464 43.7271 140.119C43.5498 139.764 43.3071 139.498 42.9991 139.321C42.7005 139.144 42.3738 139.055 42.0191 139.055C41.6645 139.055 41.3331 139.144 41.0251 139.321C40.7265 139.498 40.4838 139.764 40.2971 140.119C40.1105 140.464 40.0171 140.898 40.0171 141.421C40.0171 141.944 40.1105 142.382 40.2971 142.737C40.4838 143.082 40.7265 143.344 41.0251 143.521C41.3238 143.698 41.6505 143.787 42.0051 143.787ZM49.4965 144.893C48.8152 144.893 48.2739 144.73 47.8725 144.403C47.4712 144.067 47.2705 143.474 47.2705 142.625V139.195H46.0805V137.949H47.2705L47.4525 136.185H48.7545V137.949H50.7145V139.195H48.7545V142.625C48.7545 143.008 48.8339 143.274 48.9925 143.423C49.1605 143.563 49.4452 143.633 49.8465 143.633H50.6445V144.893H49.4965ZM54.3167 145.061C53.7287 145.061 53.2434 144.963 52.8607 144.767C52.478 144.571 52.1934 144.314 52.0067 143.997C51.82 143.67 51.7267 143.316 51.7267 142.933C51.7267 142.261 51.988 141.729 52.5107 141.337C53.0334 140.945 53.78 140.749 54.7507 140.749H56.5707V140.623C56.5707 140.082 56.4214 139.676 56.1227 139.405C55.8334 139.134 55.4554 138.999 54.9887 138.999C54.578 138.999 54.2187 139.102 53.9107 139.307C53.612 139.503 53.43 139.797 53.3647 140.189H51.8807C51.9274 139.685 52.0954 139.256 52.3847 138.901C52.6834 138.537 53.0567 138.262 53.5047 138.075C53.962 137.879 54.4614 137.781 55.0027 137.781C55.9734 137.781 56.7247 138.038 57.2567 138.551C57.7887 139.055 58.0547 139.746 58.0547 140.623V144.893H56.7667L56.6407 143.703C56.4447 144.086 56.16 144.408 55.7867 144.669C55.4134 144.93 54.9234 145.061 54.3167 145.061ZM54.6107 143.857C55.012 143.857 55.348 143.764 55.6187 143.577C55.8987 143.381 56.1134 143.124 56.2627 142.807C56.4214 142.49 56.5194 142.14 56.5567 141.757H54.9047C54.3167 141.757 53.8967 141.86 53.6447 142.065C53.402 142.27 53.2807 142.527 53.2807 142.835C53.2807 143.152 53.3974 143.404 53.6307 143.591C53.8734 143.768 54.2 143.857 54.6107 143.857ZM59.505 144.893V134.813H60.989V144.893H59.505ZM69.1256 145.061C68.407 145.061 67.777 144.935 67.2356 144.683C66.6943 144.431 66.2696 144.072 65.9616 143.605C65.663 143.138 65.509 142.583 65.4996 141.939H67.0676C67.077 142.462 67.259 142.905 67.6136 143.269C67.9683 143.633 68.4676 143.815 69.1116 143.815C69.681 143.815 70.1243 143.68 70.4416 143.409C70.7683 143.129 70.9316 142.774 70.9316 142.345C70.9316 142 70.8523 141.72 70.6936 141.505C70.5443 141.29 70.3343 141.113 70.0636 140.973C69.8023 140.833 69.499 140.707 69.1536 140.595C68.8083 140.483 68.4443 140.362 68.0616 140.231C67.3056 139.979 66.7363 139.652 66.3536 139.251C65.9803 138.85 65.7936 138.322 65.7936 137.669C65.7843 137.118 65.9103 136.638 66.1716 136.227C66.4423 135.816 66.8156 135.499 67.2916 135.275C67.777 135.042 68.3416 134.925 68.9856 134.925C69.6203 134.925 70.1756 135.042 70.6516 135.275C71.137 135.508 71.515 135.835 71.7856 136.255C72.0563 136.666 72.1963 137.146 72.2056 137.697H70.6376C70.6376 137.445 70.5723 137.207 70.4416 136.983C70.311 136.75 70.1196 136.558 69.8676 136.409C69.6156 136.26 69.3076 136.185 68.9436 136.185C68.477 136.176 68.0896 136.292 67.7816 136.535C67.483 136.778 67.3336 137.114 67.3336 137.543C67.3336 137.926 67.4456 138.22 67.6696 138.425C67.8936 138.63 68.2016 138.803 68.5936 138.943C68.9856 139.074 69.4336 139.228 69.9376 139.405C70.423 139.564 70.857 139.755 71.2396 139.979C71.6223 140.203 71.9256 140.497 72.1496 140.861C72.383 141.225 72.4996 141.687 72.4996 142.247C72.4996 142.742 72.3736 143.204 72.1216 143.633C71.8696 144.053 71.4916 144.398 70.9876 144.669C70.4836 144.93 69.863 145.061 69.1256 145.061ZM73.7861 147.973V137.949H75.1161L75.2701 139.027C75.4941 138.7 75.8021 138.411 76.1941 138.159C76.5861 137.907 77.0901 137.781 77.7061 137.781C78.3781 137.781 78.9708 137.94 79.4841 138.257C79.9974 138.574 80.3988 139.008 80.6881 139.559C80.9868 140.11 81.1361 140.735 81.1361 141.435C81.1361 142.135 80.9868 142.76 80.6881 143.311C80.3988 143.852 79.9974 144.282 79.4841 144.599C78.9708 144.907 78.3734 145.061 77.6921 145.061C77.1508 145.061 76.6701 144.954 76.2501 144.739C75.8394 144.524 75.5128 144.221 75.2701 143.829V147.973H73.7861ZM77.4401 143.773C78.0748 143.773 78.5974 143.558 79.0081 143.129C79.4188 142.69 79.6241 142.121 79.6241 141.421C79.6241 140.964 79.5308 140.558 79.3441 140.203C79.1574 139.848 78.9008 139.573 78.5741 139.377C78.2474 139.172 77.8694 139.069 77.4401 139.069C76.8054 139.069 76.2828 139.288 75.8721 139.727C75.4708 140.166 75.2701 140.73 75.2701 141.421C75.2701 142.121 75.4708 142.69 75.8721 143.129C76.2828 143.558 76.8054 143.773 77.4401 143.773ZM85.7092 145.061C85.0278 145.061 84.4212 144.912 83.8892 144.613C83.3665 144.305 82.9558 143.88 82.6572 143.339C82.3585 142.798 82.2092 142.168 82.2092 141.449C82.2092 140.721 82.3538 140.082 82.6432 139.531C82.9418 138.98 83.3525 138.551 83.8752 138.243C84.4072 137.935 85.0232 137.781 85.7232 137.781C86.4045 137.781 86.9972 137.935 87.5012 138.243C88.0052 138.542 88.3972 138.943 88.6772 139.447C88.9572 139.951 89.0972 140.506 89.0972 141.113C89.0972 141.206 89.0925 141.309 89.0832 141.421C89.0832 141.524 89.0785 141.64 89.0692 141.771H83.6652C83.7118 142.443 83.9312 142.956 84.3232 143.311C84.7245 143.656 85.1865 143.829 85.7092 143.829C86.1292 143.829 86.4792 143.736 86.7592 143.549C87.0485 143.353 87.2632 143.092 87.4032 142.765H88.8872C88.7005 143.418 88.3272 143.964 87.7672 144.403C87.2165 144.842 86.5305 145.061 85.7092 145.061ZM85.7092 138.999C85.2145 138.999 84.7758 139.148 84.3932 139.447C84.0105 139.736 83.7772 140.175 83.6932 140.763H87.6132C87.5852 140.222 87.3938 139.792 87.0392 139.475C86.6845 139.158 86.2412 138.999 85.7092 138.999ZM90.357 144.893V137.949H91.673L91.785 139.167C91.9996 138.738 92.3123 138.402 92.723 138.159C93.143 137.907 93.6236 137.781 94.165 137.781C95.005 137.781 95.663 138.042 96.139 138.565C96.6243 139.088 96.867 139.867 96.867 140.903V144.893H95.397V141.057C95.397 139.713 94.8463 139.041 93.745 139.041C93.1943 139.041 92.737 139.237 92.373 139.629C92.0183 140.021 91.841 140.581 91.841 141.309V144.893H90.357ZM101.247 144.893C100.565 144.893 100.024 144.73 99.6228 144.403C99.2214 144.067 99.0208 143.474 99.0208 142.625V139.195H97.8308V137.949H99.0208L99.2028 136.185H100.505V137.949H102.465V139.195H100.505V142.625C100.505 143.008 100.584 143.274 100.743 143.423C100.911 143.563 101.195 143.633 101.597 143.633H102.395V144.893H101.247Z" fill="#A3AED0"/>
<path d="M40.2802 125.958V123.34C38.0815 123.091 36.2909 122.32 34.9082 121.028C33.5255 119.736 32.8115 118.002 32.7662 115.826H37.3562C37.4015 116.733 37.6735 117.526 38.1722 118.206C38.6935 118.886 39.3962 119.351 40.2802 119.6V112.426C40.0762 112.358 39.8609 112.29 39.6342 112.222C39.4302 112.154 39.2149 112.086 38.9882 112.018C37.1522 111.383 35.7469 110.567 34.7722 109.57C33.8202 108.573 33.3442 107.247 33.3442 105.592C33.3215 103.643 33.9562 102.079 35.2482 100.9C36.5402 99.6987 38.2175 99.0073 40.2802 98.826V96.072H42.5582V98.86C44.5982 99.064 46.2415 99.778 47.4882 101.002C48.7575 102.203 49.4262 103.756 49.4942 105.66H44.8362C44.8135 105.003 44.5982 104.402 44.1902 103.858C43.8049 103.291 43.2609 102.895 42.5582 102.668V108.992C42.7395 109.06 42.9209 109.128 43.1022 109.196C43.2835 109.241 43.4649 109.298 43.6462 109.366C44.8249 109.774 45.9015 110.25 46.8762 110.794C47.8509 111.338 48.6329 112.063 49.2222 112.97C49.8115 113.854 50.1062 114.999 50.1062 116.404C50.1062 117.583 49.8115 118.682 49.2222 119.702C48.6555 120.722 47.8055 121.572 46.6722 122.252C45.5615 122.909 44.1902 123.283 42.5582 123.374V125.958H40.2802ZM37.9002 105.286C37.9002 106.011 38.1155 106.601 38.5462 107.054C38.9769 107.485 39.5549 107.859 40.2802 108.176V102.532C39.5775 102.668 38.9995 102.974 38.5462 103.45C38.1155 103.926 37.9002 104.538 37.9002 105.286ZM45.4822 116.71C45.4822 115.803 45.2102 115.089 44.6662 114.568C44.1222 114.047 43.4195 113.605 42.5582 113.242V119.702C43.4649 119.566 44.1789 119.237 44.7002 118.716C45.2215 118.195 45.4822 117.526 45.4822 116.71ZM61.0093 123.408C59.4453 123.408 58.0286 123.136 56.7593 122.592C55.49 122.025 54.47 121.164 53.6993 120.008C52.9286 118.852 52.5206 117.401 52.4753 115.656H56.7593C56.782 116.812 57.156 117.787 57.8813 118.58C58.6293 119.351 59.672 119.736 61.0093 119.736C62.2786 119.736 63.2533 119.385 63.9333 118.682C64.6133 117.979 64.9533 117.095 64.9533 116.03C64.9533 114.783 64.5 113.843 63.5933 113.208C62.7093 112.551 61.5646 112.222 60.1593 112.222H58.3913V108.652H60.1933C61.3493 108.652 62.3126 108.38 63.0833 107.836C63.854 107.292 64.2393 106.487 64.2393 105.422C64.2393 104.538 63.9446 103.835 63.3553 103.314C62.7886 102.77 61.9953 102.498 60.9753 102.498C59.8646 102.498 58.992 102.827 58.3573 103.484C57.7453 104.141 57.4053 104.946 57.3373 105.898H53.0873C53.178 103.699 53.9373 101.965 55.3653 100.696C56.816 99.4267 58.686 98.792 60.9753 98.792C62.6073 98.792 63.9786 99.0867 65.0893 99.676C66.2226 100.243 67.0726 101.002 67.6393 101.954C68.2286 102.906 68.5233 103.96 68.5233 105.116C68.5233 106.453 68.1493 107.587 67.4013 108.516C66.676 109.423 65.7693 110.035 64.6813 110.352C66.0186 110.624 67.1066 111.281 67.9453 112.324C68.784 113.344 69.2033 114.636 69.2033 116.2C69.2033 117.515 68.886 118.716 68.2513 119.804C67.6166 120.892 66.6873 121.765 65.4633 122.422C64.262 123.079 62.7773 123.408 61.0093 123.408ZM73.8584 123L82.8344 102.906H71.1044V99.2H87.3224V102.294L78.3804 123H73.8584ZM89.7231 123.238C88.9298 123.238 88.2724 122.989 87.7511 122.49C87.2524 121.991 87.0031 121.391 87.0031 120.688C87.0031 119.963 87.2524 119.351 87.7511 118.852C88.2724 118.353 88.9298 118.104 89.7231 118.104C90.5164 118.104 91.1624 118.353 91.6611 118.852C92.1824 119.351 92.4431 119.963 92.4431 120.688C92.4431 121.391 92.1824 121.991 91.6611 122.49C91.1624 122.989 90.5164 123.238 89.7231 123.238ZM103.977 123.408C102.232 123.408 100.724 123.102 99.4551 122.49C98.2084 121.878 97.2224 121.039 96.4971 119.974C95.7944 118.886 95.3864 117.662 95.2731 116.302H99.5231C99.7271 117.277 100.226 118.093 101.019 118.75C101.812 119.385 102.798 119.702 103.977 119.702C105.246 119.702 106.278 119.237 107.071 118.308C107.887 117.379 108.295 116.223 108.295 114.84C108.295 113.412 107.887 112.279 107.071 111.44C106.278 110.601 105.269 110.182 104.045 110.182C103.025 110.182 102.141 110.431 101.393 110.93C100.645 111.429 100.112 112.052 99.7951 112.8H95.6131L97.6531 99.2H110.845V103.008H100.917L99.8291 108.516C100.328 107.972 101.008 107.53 101.869 107.19C102.73 106.827 103.694 106.646 104.759 106.646C106.459 106.646 107.876 107.031 109.009 107.802C110.142 108.55 111.004 109.547 111.593 110.794C112.182 112.018 112.477 113.355 112.477 114.806C112.477 116.461 112.114 117.934 111.389 119.226C110.686 120.518 109.689 121.538 108.397 122.286C107.128 123.034 105.654 123.408 103.977 123.408ZM115.847 123V99.2H120.199V108.822L129.005 99.2H134.377L125.605 108.652L134.615 123H129.277L122.477 111.984L120.199 114.466V123H115.847Z" fill="#2B3674"/>
<path d="M137.628 142.052V140.768H139.884V138.692H141.192V140.768H143.436V142.052H141.192V144.128H139.884V142.052H137.628ZM144.488 144.884V143.768C145 143.344 145.496 142.924 145.976 142.508C146.464 142.092 146.896 141.68 147.272 141.272C147.656 140.864 147.96 140.468 148.184 140.084C148.416 139.692 148.532 139.312 148.532 138.944C148.532 138.6 148.436 138.296 148.244 138.032C148.06 137.768 147.752 137.636 147.32 137.636C146.88 137.636 146.548 137.78 146.324 138.068C146.1 138.356 145.988 138.704 145.988 139.112H144.5C144.516 138.496 144.652 137.984 144.908 137.576C145.164 137.16 145.504 136.852 145.928 136.652C146.352 136.444 146.828 136.34 147.356 136.34C148.212 136.34 148.876 136.576 149.348 137.048C149.828 137.512 150.068 138.116 150.068 138.86C150.068 139.324 149.96 139.776 149.744 140.216C149.536 140.656 149.26 141.08 148.916 141.488C148.572 141.896 148.2 142.28 147.8 142.64C147.4 142.992 147.012 143.32 146.636 143.624H150.272V144.884H144.488ZM151.932 144.968C151.652 144.968 151.42 144.88 151.236 144.704C151.06 144.528 150.972 144.316 150.972 144.068C150.972 143.812 151.06 143.596 151.236 143.42C151.42 143.244 151.652 143.156 151.932 143.156C152.212 143.156 152.44 143.244 152.616 143.42C152.8 143.596 152.892 143.812 152.892 144.068C152.892 144.316 152.8 144.528 152.616 144.704C152.44 144.88 152.212 144.968 151.932 144.968ZM157.791 144.884V143.324H153.651V142.1L157.587 136.484H159.327V141.992H160.431V143.324H159.327V144.884H157.791ZM155.295 141.992H157.887V138.176L155.295 141.992ZM164.41 145.028C163.794 145.028 163.262 144.92 162.814 144.704C162.374 144.488 162.026 144.192 161.77 143.816C161.522 143.432 161.378 143 161.338 142.52H162.838C162.91 142.864 163.086 143.152 163.366 143.384C163.646 143.608 163.994 143.72 164.41 143.72C164.858 143.72 165.222 143.556 165.502 143.228C165.79 142.9 165.934 142.492 165.934 142.004C165.934 141.5 165.79 141.1 165.502 140.804C165.222 140.508 164.866 140.36 164.434 140.36C164.074 140.36 163.762 140.448 163.498 140.624C163.234 140.8 163.046 141.02 162.934 141.284H161.458L162.178 136.484H166.834V137.828H163.33L162.946 139.772C163.122 139.58 163.362 139.424 163.666 139.304C163.97 139.176 164.31 139.112 164.686 139.112C165.286 139.112 165.786 139.248 166.186 139.52C166.586 139.784 166.89 140.136 167.098 140.576C167.306 141.008 167.41 141.48 167.41 141.992C167.41 142.576 167.282 143.096 167.026 143.552C166.778 144.008 166.426 144.368 165.97 144.632C165.522 144.896 165.002 145.028 164.41 145.028ZM170.328 140.612C169.944 140.612 169.596 140.528 169.284 140.36C168.972 140.184 168.724 139.936 168.54 139.616C168.356 139.296 168.264 138.916 168.264 138.476C168.264 138.036 168.356 137.656 168.54 137.336C168.724 137.016 168.972 136.772 169.284 136.604C169.596 136.428 169.948 136.34 170.34 136.34C170.724 136.34 171.068 136.428 171.372 136.604C171.684 136.772 171.932 137.016 172.116 137.336C172.3 137.656 172.392 138.036 172.392 138.476C172.392 138.916 172.3 139.296 172.116 139.616C171.932 139.936 171.684 140.184 171.372 140.36C171.06 140.528 170.712 140.612 170.328 140.612ZM169.872 144.884L174.612 136.484H176.112L171.372 144.884H169.872ZM170.328 139.544C170.56 139.544 170.76 139.456 170.928 139.28C171.096 139.096 171.18 138.828 171.18 138.476C171.18 138.124 171.096 137.856 170.928 137.672C170.768 137.488 170.568 137.396 170.328 137.396C170.088 137.396 169.884 137.488 169.716 137.672C169.556 137.856 169.476 138.124 169.476 138.476C169.476 138.828 169.556 139.096 169.716 139.28C169.884 139.456 170.088 139.544 170.328 139.544ZM175.704 145.028C175.32 145.028 174.972 144.944 174.66 144.776C174.348 144.6 174.1 144.352 173.916 144.032C173.732 143.712 173.64 143.332 173.64 142.892C173.64 142.452 173.732 142.076 173.916 141.764C174.1 141.444 174.348 141.2 174.66 141.032C174.972 140.856 175.324 140.768 175.716 140.768C176.1 140.768 176.444 140.856 176.748 141.032C177.06 141.2 177.308 141.444 177.492 141.764C177.676 142.076 177.768 142.452 177.768 142.892C177.768 143.332 177.676 143.712 177.492 144.032C177.308 144.352 177.06 144.6 176.748 144.776C176.444 144.944 176.096 145.028 175.704 145.028ZM175.704 143.96C175.944 143.96 176.144 143.872 176.304 143.696C176.472 143.512 176.556 143.244 176.556 142.892C176.556 142.54 176.472 142.272 176.304 142.088C176.144 141.904 175.944 141.812 175.704 141.812C175.464 141.812 175.26 141.904 175.092 142.088C174.932 142.272 174.852 142.54 174.852 142.892C174.852 143.244 174.932 143.512 175.092 143.696C175.26 143.872 175.464 143.96 175.704 143.96Z" fill="#05CD99"/>
<g clip-path="url(#clip2_201_1835)">
<path d="M119.87 142.351L124.062 138.612L128.255 142.351H119.87Z" fill="#05CD99"/>
</g>
<path d="M60.0006 187.946C58.8806 187.946 57.8992 187.701 57.0566 187.21C56.2246 186.72 55.5686 186.042 55.0886 185.178C54.6192 184.304 54.3846 183.296 54.3846 182.154C54.3846 181.013 54.6192 180.01 55.0886 179.146C55.5686 178.272 56.2246 177.589 57.0566 177.098C57.8992 176.608 58.8806 176.362 60.0006 176.362C61.1099 176.362 62.0859 176.608 62.9286 177.098C63.7712 177.589 64.4272 178.272 64.8966 179.146C65.3659 180.01 65.6006 181.013 65.6006 182.154C65.6006 183.296 65.3659 184.304 64.8966 185.178C64.4272 186.042 63.7712 186.72 62.9286 187.21C62.0859 187.701 61.1099 187.946 60.0006 187.946ZM60.0006 186.106C61.0672 186.106 61.9152 185.754 62.5446 185.05C63.1846 184.346 63.5046 183.381 63.5046 182.154C63.5046 180.928 63.1846 179.962 62.5446 179.258C61.9152 178.554 61.0672 178.202 60.0006 178.202C58.9339 178.202 58.0806 178.554 57.4406 179.258C56.8006 179.962 56.4806 180.928 56.4806 182.154C56.4806 183.381 56.8006 184.346 57.4406 185.05C58.0806 185.754 58.9339 186.106 60.0006 186.106ZM67.0408 187.754V179.818H68.8488L69.0088 181.162C69.2541 180.693 69.6061 180.32 70.0648 180.042C70.5341 179.765 71.0835 179.626 71.7128 179.626C72.6941 179.626 73.4568 179.936 74.0008 180.554C74.5448 181.173 74.8168 182.08 74.8168 183.274V187.754H72.7688V183.466C72.7688 182.784 72.6301 182.261 72.3528 181.898C72.0755 181.536 71.6435 181.354 71.0568 181.354C70.4808 181.354 70.0061 181.557 69.6328 181.962C69.2701 182.368 69.0888 182.933 69.0888 183.658V187.754H67.0408ZM83.4837 187.754C82.6517 187.754 81.985 187.552 81.4837 187.146C80.9823 186.741 80.7317 186.021 80.7317 184.986V181.53H79.3717V179.818H80.7317L80.9717 177.69H82.7797V179.818H84.9237V181.53H82.7797V185.002C82.7797 185.386 82.8597 185.653 83.0197 185.802C83.1903 185.941 83.4783 186.01 83.8837 186.01H84.8757V187.754H83.4837ZM86.3621 187.754V179.818H88.1861L88.3781 181.306C88.6661 180.794 89.0554 180.389 89.5461 180.09C90.0474 179.781 90.6341 179.626 91.3061 179.626V181.786H90.7301C90.2821 181.786 89.8821 181.856 89.5301 181.994C89.1781 182.133 88.9007 182.373 88.6981 182.714C88.5061 183.056 88.4101 183.53 88.4101 184.138V187.754H86.3621ZM95.1218 187.946C94.4391 187.946 93.8791 187.84 93.4418 187.626C93.0045 187.402 92.6791 187.109 92.4658 186.746C92.2525 186.384 92.1458 185.984 92.1458 185.546C92.1458 184.81 92.4338 184.213 93.0098 183.754C93.5858 183.296 94.4498 183.066 95.6018 183.066H97.6178V182.874C97.6178 182.33 97.4631 181.93 97.1538 181.674C96.8445 181.418 96.4605 181.29 96.0018 181.29C95.5858 181.29 95.2231 181.392 94.9138 181.594C94.6045 181.786 94.4125 182.074 94.3378 182.458H92.3378C92.3911 181.882 92.5831 181.381 92.9138 180.954C93.2551 180.528 93.6925 180.202 94.2258 179.978C94.7591 179.744 95.3565 179.626 96.0178 179.626C97.1485 179.626 98.0391 179.909 98.6898 180.474C99.3405 181.04 99.6658 181.84 99.6658 182.874V187.754H97.9218L97.7298 186.474C97.4951 186.901 97.1645 187.253 96.7378 187.53C96.3218 187.808 95.7831 187.946 95.1218 187.946ZM95.5858 186.346C96.1725 186.346 96.6258 186.154 96.9458 185.77C97.2765 185.386 97.4845 184.912 97.5698 184.346H95.8258C95.2818 184.346 94.8925 184.448 94.6578 184.65C94.4231 184.842 94.3058 185.082 94.3058 185.37C94.3058 185.68 94.4231 185.92 94.6578 186.09C94.8925 186.261 95.2018 186.346 95.5858 186.346ZM105.188 187.946C104.378 187.946 103.663 187.77 103.044 187.418C102.426 187.066 101.935 186.576 101.572 185.946C101.22 185.317 101.044 184.597 101.044 183.786C101.044 182.976 101.22 182.256 101.572 181.626C101.935 180.997 102.426 180.506 103.044 180.154C103.663 179.802 104.378 179.626 105.188 179.626C106.202 179.626 107.055 179.893 107.748 180.426C108.442 180.949 108.884 181.674 109.076 182.602H106.916C106.81 182.218 106.596 181.92 106.276 181.706C105.967 181.482 105.599 181.37 105.172 181.37C104.607 181.37 104.127 181.584 103.732 182.01C103.338 182.437 103.14 183.029 103.14 183.786C103.14 184.544 103.338 185.136 103.732 185.562C104.127 185.989 104.607 186.202 105.172 186.202C105.599 186.202 105.967 186.096 106.276 185.882C106.596 185.669 106.81 185.365 106.916 184.97H109.076C108.884 185.866 108.442 186.586 107.748 187.13C107.055 187.674 106.202 187.946 105.188 187.946ZM110.574 187.754V176.234H112.622V183.034L115.438 179.818H117.87L114.622 183.434L118.398 187.754H115.838L112.622 183.77V187.754H110.574Z" fill="#05CD99"/>
<rect x="31.3042" y="174.757" width="16" height="16" rx="8" fill="#05CD99"/>
<g clip-path="url(#clip3_201_1835)">
<path d="M38.125 184.506L36.5208 182.902C36.3421 182.723 36.0579 182.723 35.8792 182.902C35.7004 183.081 35.7004 183.365 35.8792 183.543L37.7996 185.464C37.9783 185.643 38.2671 185.643 38.4458 185.464L43.3042 180.61C43.4829 180.431 43.4829 180.147 43.3042 179.968C43.1254 179.79 42.8413 179.79 42.6625 179.968L38.125 184.506Z" fill="white"/>
</g>
<rect x="31" y="26" width="123" height="37" rx="7" fill="#F4F7FE"/>
<g clip-path="url(#clip4_201_1835)">
<path d="M58 38.25H57.25V37.5C57.25 37.0875 56.9125 36.75 56.5 36.75C56.0875 36.75 55.75 37.0875 55.75 37.5V38.25H48.25V37.5C48.25 37.0875 47.9125 36.75 47.5 36.75C47.0875 36.75 46.75 37.0875 46.75 37.5V38.25H46C45.175 38.25 44.5 38.925 44.5 39.75V51.75C44.5 52.575 45.175 53.25 46 53.25H58C58.825 53.25 59.5 52.575 59.5 51.75V39.75C59.5 38.925 58.825 38.25 58 38.25ZM57.25 51.75H46.75C46.3375 51.75 46 51.4125 46 51V42H58V51C58 51.4125 57.6625 51.75 57.25 51.75Z" fill="#A3AED0"/>
</g>
<path d="M70.29 50V41.404H67.392V40.2H74.658V41.404H71.774V50H70.29ZM75.7107 50V39.92H77.1947V44.176C77.4281 43.7747 77.7501 43.462 78.1607 43.238C78.5807 43.0047 79.0427 42.888 79.5467 42.888C80.3774 42.888 81.0307 43.1493 81.5067 43.672C81.9827 44.1947 82.2207 44.974 82.2207 46.01V50H80.7507V46.164C80.7507 44.82 80.2141 44.148 79.1407 44.148C78.5807 44.148 78.1141 44.344 77.7407 44.736C77.3767 45.128 77.1947 45.688 77.1947 46.416V50H75.7107ZM84.5285 41.74C84.2485 41.74 84.0152 41.656 83.8285 41.488C83.6512 41.3107 83.5625 41.0913 83.5625 40.83C83.5625 40.5687 83.6512 40.354 83.8285 40.186C84.0152 40.0087 84.2485 39.92 84.5285 39.92C84.8085 39.92 85.0372 40.0087 85.2145 40.186C85.4012 40.354 85.4945 40.5687 85.4945 40.83C85.4945 41.0913 85.4012 41.3107 85.2145 41.488C85.0372 41.656 84.8085 41.74 84.5285 41.74ZM83.7865 50V43.056H85.2705V50H83.7865ZM89.7216 50.168C88.8442 50.168 88.1209 49.9533 87.5516 49.524C86.9822 49.0947 86.6556 48.5253 86.5716 47.816H88.0696C88.1442 48.1333 88.3216 48.4087 88.6016 48.642C88.8816 48.866 89.2502 48.978 89.7076 48.978C90.1556 48.978 90.4822 48.8847 90.6876 48.698C90.8929 48.5113 90.9956 48.2967 90.9956 48.054C90.9956 47.6993 90.8509 47.4613 90.5616 47.34C90.2816 47.2093 89.8896 47.0927 89.3856 46.99C88.9936 46.906 88.6016 46.794 88.2096 46.654C87.8269 46.514 87.5049 46.318 87.2436 46.066C86.9916 45.8047 86.8656 45.4547 86.8656 45.016C86.8656 44.4093 87.0989 43.9053 87.5656 43.504C88.0322 43.0933 88.6856 42.888 89.5256 42.888C90.3002 42.888 90.9256 43.0747 91.4016 43.448C91.8869 43.8213 92.1716 44.3487 92.2556 45.03H90.8276C90.7809 44.7313 90.6409 44.498 90.4076 44.33C90.1836 44.162 89.8802 44.078 89.4976 44.078C89.1242 44.078 88.8349 44.1573 88.6296 44.316C88.4242 44.4653 88.3216 44.6613 88.3216 44.904C88.3216 45.1467 88.4616 45.338 88.7416 45.478C89.0309 45.618 89.4089 45.744 89.8756 45.856C90.3422 45.9587 90.7716 46.08 91.1636 46.22C91.5649 46.3507 91.8869 46.5467 92.1296 46.808C92.3722 47.0693 92.4936 47.452 92.4936 47.956C92.5029 48.5907 92.2556 49.118 91.7516 49.538C91.2569 49.958 90.5802 50.168 89.7216 50.168ZM97.081 50V43.056H98.397L98.523 44.036C98.747 43.6813 99.041 43.4013 99.405 43.196C99.7783 42.9907 100.208 42.888 100.693 42.888C101.794 42.888 102.56 43.322 102.989 44.19C103.241 43.7887 103.577 43.4713 103.997 43.238C104.426 43.0047 104.888 42.888 105.383 42.888C106.251 42.888 106.932 43.1493 107.427 43.672C107.922 44.1947 108.169 44.974 108.169 46.01V50H106.685V46.164C106.685 44.82 106.172 44.148 105.145 44.148C104.622 44.148 104.193 44.344 103.857 44.736C103.53 45.128 103.367 45.688 103.367 46.416V50H101.883V46.164C101.883 44.82 101.365 44.148 100.329 44.148C99.8156 44.148 99.391 44.344 99.055 44.736C98.7283 45.128 98.565 45.688 98.565 46.416V50H97.081ZM112.873 50.168C112.211 50.168 111.613 50.0187 111.081 49.72C110.559 49.412 110.143 48.9873 109.835 48.446C109.527 47.8953 109.373 47.256 109.373 46.528C109.373 45.8 109.527 45.1653 109.835 44.624C110.153 44.0733 110.577 43.6487 111.109 43.35C111.641 43.042 112.234 42.888 112.887 42.888C113.55 42.888 114.143 43.042 114.665 43.35C115.197 43.6487 115.617 44.0733 115.925 44.624C116.243 45.1653 116.401 45.8 116.401 46.528C116.401 47.256 116.243 47.8953 115.925 48.446C115.617 48.9873 115.197 49.412 114.665 49.72C114.133 50.0187 113.536 50.168 112.873 50.168ZM112.873 48.894C113.228 48.894 113.555 48.8053 113.853 48.628C114.161 48.4507 114.409 48.1893 114.595 47.844C114.782 47.4893 114.875 47.0507 114.875 46.528C114.875 46.0053 114.782 45.5713 114.595 45.226C114.418 44.8713 114.175 44.6053 113.867 44.428C113.569 44.2507 113.242 44.162 112.887 44.162C112.533 44.162 112.201 44.2507 111.893 44.428C111.595 44.6053 111.352 44.8713 111.165 45.226C110.979 45.5713 110.885 46.0053 110.885 46.528C110.885 47.0507 110.979 47.4893 111.165 47.844C111.352 48.1893 111.595 48.4507 111.893 48.628C112.192 48.8053 112.519 48.894 112.873 48.894ZM117.726 50V43.056H119.042L119.154 44.274C119.369 43.8447 119.681 43.5087 120.092 43.266C120.512 43.014 120.993 42.888 121.534 42.888C122.374 42.888 123.032 43.1493 123.508 43.672C123.993 44.1947 124.236 44.974 124.236 46.01V50H122.766V46.164C122.766 44.82 122.215 44.148 121.114 44.148C120.563 44.148 120.106 44.344 119.742 44.736C119.387 45.128 119.21 45.688 119.21 46.416V50H117.726ZM128.616 50C127.935 50 127.393 49.8367 126.992 49.51C126.591 49.174 126.39 48.5813 126.39 47.732V44.302H125.2V43.056H126.39L126.572 41.292H127.874V43.056H129.834V44.302H127.874V47.732C127.874 48.1147 127.953 48.3807 128.112 48.53C128.28 48.67 128.565 48.74 128.966 48.74H129.764V50H128.616ZM131.084 50V39.92H132.568V44.176C132.801 43.7747 133.123 43.462 133.534 43.238C133.954 43.0047 134.416 42.888 134.92 42.888C135.751 42.888 136.404 43.1493 136.88 43.672C137.356 44.1947 137.594 44.974 137.594 46.01V50H136.124V46.164C136.124 44.82 135.587 44.148 134.514 44.148C133.954 44.148 133.487 44.344 133.114 44.736C132.75 45.128 132.568 45.688 132.568 46.416V50H131.084Z" fill="#A3AED0"/>
</g>
<defs>
<filter id="filter0_d_201_1835" x="190.924" y="130" width="553.4" height="115" filterUnits="userSpaceOnUse" color-interpolation-filters="sRGB">
<feFlood flood-opacity="0" result="BackgroundImageFix"/>
<feColorMatrix in="SourceAlpha" type="matrix" values="0 0 0 0 0 0 0 0 0 0 0 0 0 0 0 0 0 0 127 0" result="hardAlpha"/>
<feOffset dy="13"/>
<feGaussianBlur stdDeviation="10.5"/>
<feColorMatrix type="matrix" values="0 0 0 0 0.262745 0 0 0 0 0.0941176 0 0 0 0 1 0 0 0 0.25 0"/>
<feBlend mode="normal" in2="BackgroundImageFix" result="effect1_dropShadow_201_1835"/>
<feBlend mode="normal" in="SourceGraphic" in2="effect1_dropShadow_201_1835" result="shape"/>
</filter>
<clipPath id="clip0_201_1835">
<rect width="774" height="345" rx="20" fill="white"/>
</clipPath>
<clipPath id="clip1_201_1835">
<rect width="24" height="24" fill="white" transform="translate(714 33)"/>
</clipPath>
<clipPath id="clip2_201_1835">
<rect width="20.1242" height="17.948" fill="white" transform="translate(114 131.882)"/>
</clipPath>
<clipPath id="clip3_201_1835">
<rect width="11" height="11" fill="white" transform="translate(34 177.081)"/>
</clipPath>
<clipPath id="clip4_201_1835">
<rect width="18" height="18" fill="white" transform="translate(43 36)"/>
</clipPath>
</defs>
</svg>
